{
.appVersion = "3151";
.formatVersion = 3;
customParameters = (
{
name = vendorID;
value = COMM;
},
{
name = panose;
value = (
2,
13,
3,
4,
3,
5,
2,
5,
2,
3
);
},
{
name = unicodeRanges;
value = (
0,
1,
2
);
},
{
name = codePageRanges;
value = (
"1252",
"1250",
"1254",
"1257",
"bit 29"
);
},
{
name = fsType;
value = (
2
);
},
{
name = glyphOrder;
value = (
.notdef,
Eth,
eth,
Lslash,
lslash,
Scaron,
scaron,
Yacute,
yacute,
Thorn,
thorn,
Zcaron,
zcaron,
onehalf,
onequarter,
onesuperior,
threequarters,
threesuperior,
twosuperior,
brokenbar,
minus,
multiply,
space,
exclam,
quotedbl,
numbersign,
dollar,
percent,
ampersand,
quotesingle,
parenleft,
parenright,
asterisk,
plus,
comma,
hyphen,
period,
slash,
zero,
one,
two,
three,
four,
five,
six,
seven,
eight,
nine,
colon,
semicolon,
less,
equal,
greater,
question,
at,
A,
B,
C,
D,
E,
F,
G,
H,
I,
J,
K,
L,
M,
N,
O,
P,
Q,
R,
S,
T,
U,
V,
W,
X,
Y,
Z,
bracketleft,
backslash,
bracketright,
asciicircum,
underscore,
grave,
a,
b,
c,
d,
e,
f,
g,
h,
i,
j,
k,
l,
m,
n,
o,
p,
q,
r,
s,
t,
u,
v,
w,
x,
y,
z,
braceleft,
bar,
braceright,
asciitilde,
Adieresis,
Aring,
Ccedilla,
Eacute,
Ntilde,
Odieresis,
Udieresis,
aacute,
agrave,
acircumflex,
adieresis,
atilde,
aring,
ccedilla,
eacute,
egrave,
ecircumflex,
edieresis,
iacute,
igrave,
icircumflex,
idieresis,
ntilde,
oacute,
ograve,
ocircumflex,
odieresis,
otilde,
uacute,
ugrave,
ucircumflex,
udieresis,
dagger,
degree,
cent,
sterling,
section,
bullet,
paragraph,
germandbls,
registered,
copyright,
trademark,
acute,
dieresis,
notequal,
AE,
Oslash,
infinity,
plusminus,
lessequal,
greaterequal,
yen,
mu,
partialdiff,
summation,
product,
pi,
integral,
ordfeminine,
ordmasculine,
Omega,
ae,
oslash,
questiondown,
exclamdown,
logicalnot,
radical,
florin,
approxequal,
Delta,
guillemotleft,
guillemotright,
ellipsis,
uni00A0,
Agrave,
Atilde,
Otilde,
OE,
oe,
endash,
emdash,
quotedblleft,
quotedblright,
quoteleft,
quoteright,
divide,
lozenge,
ydieresis,
Ydieresis,
fraction,
Euro,
guilsinglleft,
guilsinglright,

glyphs = (
{
glyphname = Eth;
kernRight = Eth;
layers = (
{
hints = (
{
horizontal = 1;
place = (0, 59);
place = (0, 59);
type = Stem;
},
{
horizontal = 1;
place = (330, 57);
place = (330, 57);
type = Stem;
},
{
horizontal = 1;
place = (656, 59);
place = (656, 59);
type = Stem;
},
{
place = (74, 68);
place = (74, 68);
type = Stem;
},
{
place = (565, 69);
place = (565, 69);
type = Stem;
}
);
layerId = m01;
shapes = (
{
closed = 1;
nodes = (
(142,59,l),
(142,330,l),
(379,330,l),
(379,387,l),
(142,387,l),
(142,656,l),
(326,656,ls),
(497,656,o),
(565,536,o),
(565,355,cs),
(565,174,o),
(490,59,o),
(319,59,cs)
);
},
{
closed = 1;
nodes = (
(74,0,l),
(321,0,ls),
(532,0,o),
(634,143,o),
(634,355,cs),
(634,567,o),
(539,715,o),
(328,715,cs),
(74,715,l),
(74,387,l),
(3,387,l),
(3,330,l),
(74,330,l)
);
}
);
width = 674;
}
);
note = Eth;
unicode = 208;
},
{
glyphname = eth;
layers = (
{
hints = (
{
horizontal = 1;
place = (-13, 52);
place = (-13, 52);
type = Stem;
},
{
horizontal = 1;
place = (476, 51);
place = (476, 51);
type = Stem;
},
{
horizontal = 1;
place = (715, -20);
target = down;
type = TopGhost;
},
{
place = (25, 64);
place = (25, 64);
type = Stem;
},
{
place = (440, 63);
place = (440, 63);
type = Stem;
},
{
horizontal = 1;
place = (700, -20);
target = down;
type = TopGhost;
},
{
horizontal = 1;
place = (643, 72);
place = (643, 72);
type = Stem;
}
);
layerId = m01;
shapes = (
{
closed = 1;
nodes = (
(170,562,l),
(309,613,l),
(353,567,o),
(390,514,o),
(415,452,c),
(414,452,l),
(376,499,o),
(322,527,o),
(259,527,cs),
(116,527,o),
(25,412,o),
(25,258,cs),
(25,104,o),
(116,-13,o),
(265,-13,cs),
(414,-13,o),
(503,103,o),
(503,270,cs),
(503,442,o),
(438,558,o),
(367,634,c),
(450,664,l),
(436,700,l),
(336,664,l),
(314,684,o),
(291,701,o),
(271,715,c),
(192,715,l),
(222,692,o),
(252,668,o),
(279,643,c),
(156,598,l)
);
},
{
closed = 1;
nodes = (
(149,39,o),
(89,137,o),
(89,258,cs),
(89,379,o),
(148,476,o),
(263,476,cs),
(379,476,o),
(440,383,o),
(440,259,cs),
(440,138,o),
(380,39,o),
(265,39,cs)
);
}
);
width = 529;
}
);
note = eth;
unicode = 240;
},
{
glyphname = Lslash;
layers = (
{
hints = (
{
horizontal = 1;
place = (0, 62);
place = (0, 62);
type = Stem;
},
{
horizontal = 1;
place = (715, -20);
target = down;
type = TopGhost;
},
{
place = (76, 67);
place = (76, 67);
type = Stem;
}
);
layerId = m01;
shapes = (
{
closed = 1;
nodes = (
(76,0,l),
(524,0,l),
(524,62,l),
(143,62,l),
(143,281,l),
(405,421,l),
(405,481,l),
(143,341,l),
(143,715,l),
(76,715,l),
(76,305,l),
(-5,262,l),
(-5,202,l),
(76,245,l)
);
}
);
width = 548;
}
);
note = Lslash;
unicode = 321;
},
{
glyphname = lslash;
layers = (
{
hints = (
{
horizontal = 1;
place = (0, 21);
target = up;
type = BottomGhost;
},
{
horizontal = 1;
place = (715, -20);
target = down;
type = TopGhost;
},
{
place = (73, 62);
place = (73, 62);
type = Stem;
}
);
layerId = m01;
shapes = (
{
closed = 1;
nodes = (
(73,0,l),
(135,0,l),
(135,379,l),
(211,443,l),
(211,506,l),
(135,442,l),
(135,715,l),
(73,715,l),
(73,390,l),
(5,334,l),
(5,271,l),
(73,328,l)
);
}
);
width = 208;
}
);
note = lslash;
unicode = 322;
},
{
glyphname = Scaron;
kernLeft = Scaron;
kernRight = Scaron;
layers = (
{
hints = (
{
horizontal = 1;
place = (-13, 56);
place = (-13, 56);
type = Stem;
},
{
horizontal = 1;
place = (673, 56);
place = (673, 56);
type = Stem;
},
{
place = (51, 65);
place = (51, 65);
type = Stem;
},
{
place = (496, 68);
place = (496, 68);
type = Stem;
},
{
horizontal = 1;
place = (754, 103);
place = (754, 103);
type = Stem;
}
);
layerId = m01;
shapes = (
{
closed = 1;
nodes = (
(462,-13,o),
(564,69,o),
(564,196,cs),
(564,346,o),
(449,380,o),
(310,407,cs),
(182,431,o),
(116,457,o),
(116,542,cs),
(116,621,o),
(182,673,o),
(291,673,cs),
(393,673,o),
(465,621,o),
(477,520,c),
(542,520,l),
(529,643,o),
(449,729,o),
(290,729,cs),
(147,729,o),
(51,654,o),
(51,540,cs),
(51,415,o),
(144,375,o),
(276,349,cs),
(429,318,o),
(496,294,o),
(496,193,cs),
(496,96,o),
(418,43,o),
(313,43,cs),
(179,43,o),
(97,111,o),
(90,232,c),
(23,232,l),
(31,93,o),
(124,-13,o),
(312,-13,cs)
);
},
{
closed = 1;
nodes = (
(254,754,l),
(328,754,l),
(422,857,l),
(354,857,l),
(294,790,l),
(292,790,l),
(232,857,l),
(162,857,l)
);
}
);
width = 599;
}
);
note = Scaron;
unicode = 352;
},
{
glyphname = scaron;
kernLeft = scaron;
kernRight = scaron;
layers = (
{
hints = (
{
horizontal = 1;
place = (-14, 53);
place = (-14, 53);
type = Stem;
},
{
horizontal = 1;
place = (477, 51);
place = (477, 51);
type = Stem;
},
{
horizontal = 1;
place = (596, 106);
place = (596, 106);
type = Stem;
},
{
place = (38, 62);
place = (38, 62);
type = Stem;
},
{
place = (365, 62);
place = (365, 62);
type = Stem;
}
);
layerId = m01;
shapes = (
{
closed = 1;
nodes = (
(188,596,l),
(262,596,l),
(347,702,l),
(281,702,l),
(228,631,l),
(226,631,l),
(174,702,l),
(105,702,l)
);
},
{
closed = 1;
nodes = (
(353,-14,o),
(427,48,o),
(427,140,cs),
(427,247,o),
(352,273,o),
(248,295,cs),
(149,318,o),
(100,332,o),
(100,391,cs),
(100,439,o),
(138,477,o),
(218,477,cs),
(295,477,o),
(341,442,o),
(348,375,c),
(410,375,l),
(398,466,o),
(341,528,o),
(218,528,cs),
(112,528,o),
(38,474,o),
(38,388,cs),
(38,288,o),
(122,263,o),
(227,239,cs),
(333,215,o),
(365,196,o),
(365,139,cs),
(365,79,o),
(320,39,o),
(234,39,cs),
(151,39,o),
(91,74,o),
(82,161,c),
(19,161,l),
(25,61,o),
(95,-14,o),
(233,-14,cs)
);
}
);
width = 451;
}
);
note = scaron;
unicode = 353;
},
{
glyphname = Yacute;
kernLeft = Yacute;
kernRight = Yacute;
layers = (
{
hints = (
{
horizontal = 1;
place = (0, 21);
target = up;
type = BottomGhost;
},
{
horizontal = 1;
place = (715, -20);
target = down;
type = TopGhost;
},
{
horizontal = 1;
place = (753, 114);
place = (753, 114);
type = Stem;
},
{
place = (265, 68);
place = (265, 68);
type = Stem;
}
);
layerId = m01;
shapes = (
{
closed = 1;
nodes = (
(265,0,l),
(333,0,l),
(333,310,l),
(593,715,l),
(521,715,l),
(301,369,l),
(299,369,l),
(81,715,l),
(7,715,l),
(265,312,l)
);
},
{
closed = 1;
nodes = (
(265,753,l),
(319,753,l),
(413,867,l),
(331,867,l)
);
}
);
width = 600;
}
);
note = Yacute;
unicode = 221;
},
{
glyphname = yacute;
kernLeft = yacute;
kernRight = yacute;
layers = (
{
hints = (
{
horizontal = 1;
place = (-171, 56);
place = (-171, 56);
type = Stem;
},
{
horizontal = 1;
place = (517, -20);
target = down;
type = TopGhost;
},
{
horizontal = 1;
place = (592, 127);
place = (592, 127);
type = Stem;
},
{
place = (7, 455);
place = (7, 455);
type = Stem;
},
{
horizontal = 1;
place = (-163, 21);
target = up;
type = BottomGhost;
}
);
layerId = m01;
shapes = (
{
closed = 1;
nodes = (
(173,-171,o),
(214,-147,o),
(249,-54,cs),
(462,517,l),
(398,517,l),
(279,183,ls),
(262,135,o),
(240,65,o),
(240,65,c),
(238,65,l),
(238,65,o),
(215,135,o),
(197,183,cs),
(73,517,l),
(7,517,l),
(206,1,l),
(189,-45,ls),
(170,-98,o),
(142,-115,o),
(103,-115,cs),
(79,-115,o),
(65,-111,o),
(56,-108,c),
(53,-108,l),
(53,-163,l),
(69,-168,o),
(83,-171,o),
(106,-171,cs)
);
},
{
closed = 1;
nodes = (
(201,592,l),
(255,592,l),
(349,719,l),
(267,719,l)
);
}
);
width = 469;
}
);
note = yacute;
unicode = 253;
},
{
glyphname = Thorn;
layers = (
{
hints = (
{
horizontal = 1;
place = (0, 21);
target = up;
type = BottomGhost;
},
{
horizontal = 1;
place = (178, 57);
place = (178, 57);
type = Stem;
},
{
horizontal = 1;
place = (522, 59);
place = (522, 59);
type = Stem;
},
{
place = (64, 67);
place = (64, 67);
type = Stem;
},
{
place = (495, 68);
place = (495, 68);
type = Stem;
},
{
horizontal = 1;
place = (522, 193);
place = (522, 193);
type = Stem;
}
);
layerId = m01;
shapes = (
{
closed = 1;
nodes = (
(64,0,l),
(131,0,l),
(131,178,l),
(336,178,ls),
(486,178,o),
(563,249,o),
(563,382,cs),
(563,440,o),
(545,486,o),
(513,520,cs),
(475,559,o),
(423,581,o),
(345,581,cs),
(131,581,l),
(131,715,l),
(64,715,l)
);
},
{
closed = 1;
nodes = (
(131,235,l),
(131,522,l),
(337,522,ls),
(440,522,o),
(495,471,o),
(495,380,cs),
(495,290,o),
(447,235,o),
(331,235,cs)
);
}
);
width = 587;
}
);
note = Thorn;
unicode = 222;
},
{
glyphname = thorn;
kernRight = thorn;
layers = (
{
hints = (
{
horizontal = 1;
place = (-166, 21);
target = up;
type = BottomGhost;
},
{
horizontal = 1;
place = (-13, 52);
place = (-13, 52);
type = Stem;
},
{
horizontal = 1;
place = (476, 52);
place = (476, 52);
type = Stem;
},
{
horizontal = 1;
place = (715, -20);
target = down;
type = TopGhost;
},
{
place = (52, 62);
place = (52, 62);
type = Stem;
},
{
place = (442, 63);
place = (442, 63);
type = Stem;
}
);
layerId = m01;
shapes = (
{
closed = 1;
nodes = (
(52,-166,l),
(114,-166,l),
(114,75,l),
(116,75,l),
(155,18,o),
(208,-13,o),
(287,-13,cs),
(423,-13,o),
(505,99,o),
(505,258,cs),
(505,430,o),
(415,528,o),
(291,528,cs),
(209,528,o),
(152,489,o),
(116,428,c),
(114,428,l),
(114,715,l),
(52,715,l)
);
},
{
closed = 1;
nodes = (
(166,39,o),
(109,129,o),
(109,256,cs),
(109,379,o),
(169,476,o),
(283,476,cs),
(386,476,o),
(442,386,o),
(442,257,cs),
(442,137,o),
(390,39,o),
(284,39,cs)
);
}
);
width = 530;
}
);
note = thorn;
unicode = 254;
},
{
glyphname = Zcaron;
kernLeft = Zcaron;
kernRight = Zcaron;
layers = (
{
hints = (
{
horizontal = 1;
place = (0, 60);
place = (0, 60);
type = Stem;
},
{
horizontal = 1;
place = (658, 199);
place = (658, 199);
type = Stem;
},
{
place = (26, 78);
place = (26, 78);
type = Stem;
},
{
place = (463, 81);
place = (463, 81);
type = Stem;
},
{
horizontal = 1;
place = (658, 57);
place = (658, 57);
type = Stem;
},
{
horizontal = 1;
place = (754, 36);
place = (754, 36);
type = Stem;
}
);
layerId = m01;
shapes = (
{
closed = 1;
nodes = (
(261,754,l),
(335,754,l),
(429,857,l),
(361,857,l),
(301,790,l),
(299,790,l),
(239,857,l),
(169,857,l)
);
},
{
closed = 1;
nodes = (
(26,0,l),
(560,0,l),
(560,60,l),
(104,60,l),
(104,63,l),
(544,658,l),
(544,715,l),
(53,715,l),
(53,658,l),
(463,658,l),
(463,655,l),
(26,65,l)
);
}
);
width = 593;
}
);
note = Zcaron;
unicode = 381;
},
{
glyphname = zcaron;
kernLeft = zcaron;
kernRight = zcaron;
layers = (
{
hints = (
{
horizontal = 1;
place = (0, 55);
place = (0, 55);
type = Stem;
},
{
horizontal = 1;
place = (463, 54);
place = (463, 54);
type = Stem;
},
{
horizontal = 1;
place = (596, 106);
place = (596, 106);
type = Stem;
},
{
place = (28, 394);
place = (28, 394);
type = Stem;
},
{
place = (28, 77);
place = (28, 77);
type = Stem;
},
{
place = (330, 83);
place = (330, 83);
type = Stem;
}
);
layerId = m01;
shapes = (
{
closed = 1;
nodes = (
(196,596,l),
(270,596,l),
(355,702,l),
(289,702,l),
(236,631,l),
(234,631,l),
(182,702,l),
(113,702,l)
);
},
{
closed = 1;
nodes = (
(28,0,l),
(422,0,l),
(422,55,l),
(105,55,l),
(105,58,l),
(413,473,l),
(413,517,l),
(48,517,l),
(48,463,l),
(330,463,l),
(330,460,l),
(28,53,l)
);
}
);
width = 447;
}
);
note = zcaron;
unicode = 382;
},
{
glyphname = onehalf;
layers = (
{
hints = (
{
horizontal = 1;
place = (0, 47);
place = (0, 47);
type = Stem;
},
{
horizontal = 1;
place = (364, 47);
place = (364, 47);
type = Stem;
},
{
horizontal = 1;
place = (604, 114);
place = (604, 114);
type = Stem;
},
{
place = (125, 57);
place = (125, 57);
type = Stem;
},
{
place = (461, 54);
place = (461, 54);
type = Stem;
},
{
place = (674, 58);
place = (674, 58);
type = Stem;
},
{
horizontal = 1;
place = (604, 39);
place = (604, 39);
type = Stem;
},
{
horizontal = 1;
place = (715, -20);
target = down;
type = TopGhost;
}
);
layerId = m01;
shapes = (
{
closed = 1;
nodes = (
(730,0,l),
(730,47,l),
(518,47,l),
(528,92,o),
(577,121,o),
(617,145,cs),
(673,180,o),
(732,211,o),
(732,289,cs),
(732,357,o),
(680,411,o),
(601,411,cs),
(518,411,o),
(461,362,o),
(461,269,c),
(515,269,l),
(516,332,o),
(548,364,o),
(599,364,cs),
(644,364,o),
(674,337,o),
(674,288,cs),
(674,232,o),
(629,210,o),
(575,176,cs),
(517,138,o),
(454,94,o),
(451,0,c)
);
},
{
closed = 1;
nodes = (
(125,312,l),
(182,312,l),
(182,718,l),
(135,718,l),
(127,663,o),
(91,644,o),
(33,643,c),
(33,604,l),
(125,604,l)
);
},
{
closed = 1;
nodes = (
(67,0,l),
(128,0,l),
(616,715,l),
(556,715,l)
);
}
);
width = 767;
}
);
note = onehalf;
unicode = 189;
},
{
glyphname = onequarter;
layers = (
{
hints = (
{
horizontal = 1;
place = (0, 141);
place = (0, 141);
type = Stem;
},
{
horizontal = 1;
place = (604, 114);
place = (604, 114);
type = Stem;
},
{
place = (125, 57);
place = (125, 57);
type = Stem;
},
{
place = (589, 54);
place = (589, 54);
type = Stem;
},
{
horizontal = 1;
place = (97, 44);
place = (97, 44);
type = Stem;
},
{
horizontal = 1;
place = (330, 78);
place = (330, 78);
type = Stem;
},
{
place = (396, 48);
place = (396, 48);
type = Stem;
},
{
horizontal = 1;
place = (604, 39);
place = (604, 39);
type = Stem;
},
{
horizontal = 1;
place = (715, -20);
target = down;
type = TopGhost;
}
);
layerId = m01;
shapes = (
{
closed = 1;
nodes = (
(589,0,l),
(643,0,l),
(643,97,l),
(705,97,l),
(705,141,l),
(643,141,l),
(643,408,l),
(590,408,l),
(396,152,l),
(396,97,l),
(589,97,l)
);
},
{
closed = 1;
nodes = (
(444,141,l),
(444,143,l),
(587,330,l),
(589,330,l),
(589,141,l)
);
},
{
closed = 1;
nodes = (
(125,312,l),
(182,312,l),
(182,718,l),
(135,718,l),
(127,663,o),
(91,644,o),
(33,643,c),
(33,604,l),
(125,604,l)
);
},
{
closed = 1;
nodes = (
(77,0,l),
(138,0,l),
(626,715,l),
(566,715,l)
);
}
);
width = 734;
}
);
note = onequarter;
unicode = 188;
},
{
glyphname = onesuperior;
layers = (
{
hints = (
{
horizontal = 1;
place = (574, 114);
place = (574, 114);
type = Stem;
},
{
place = (121, 56);
place = (121, 56);
type = Stem;
},
{
horizontal = 1;
place = (574, 39);
place = (574, 39);
type = Stem;
}
);
layerId = m01;
shapes = (
{
closed = 1;
nodes = (
(121,282,l),
(177,282,l),
(177,688,l),
(131,688,l),
(123,633,o),
(87,614,o),
(28,613,c),
(28,574,l),
(121,574,l)
);
}
);
width = 241;
}
);
note = onesuperior;
unicode = 185;
},
{
glyphname = threequarters;
layers = (
{
hints = (
{
horizontal = 1;
place = (97, 44);
place = (97, 44);
type = Stem;
},
{
horizontal = 1;
place = (303, 47);
place = (303, 47);
type = Stem;
},
{
horizontal = 1;
place = (527, -20);
target = down;
type = TopGhost;
},
{
horizontal = 1;
place = (680, 43);
place = (680, 43);
type = Stem;
},
{
place = (43, 53);
place = (43, 53);
type = Stem;
},
{
place = (267, 58);
place = (267, 58);
type = Stem;
},
{
place = (462, 48);
place = (462, 48);
type = Stem;
},
{
place = (655, 54);
place = (655, 54);
type = Stem;
},
{
horizontal = 1;
place = (503, 44);
place = (503, 44);
type = Stem;
},
{
place = (254, 55);
place = (254, 55);
type = Stem;
},
{
place = (150, 96);
place = (150, 96);
type = Stem;
},
{
horizontal = 1;
place = (0, 141);
place = (0, 141);
type = Stem;
},
{
horizontal = 1;
place = (330, 78);
place = (330, 78);
type = Stem;
},
{
horizontal = 1;
place = (715, -20);
target = down;
type = TopGhost;
}
);
layerId = m01;
shapes = (
{
closed = 1;
nodes = (
(262,303,o),
(325,346,o),
(325,424,cs),
(325,478,o),
(298,513,o),
(246,527,c),
(246,529,l),
(283,542,o),
(309,570,o),
(309,615,cs),
(309,682,o),
(255,723,o),
(181,723,cs),
(95,723,o),
(44,670,o),
(43,593,c),
(96,593,l),
(98,644,o),
(126,680,o),
(180,680,cs),
(223,680,o),
(254,655,o),
(254,613,cs),
(254,572,o),
(225,547,o),
(176,547,cs),
(150,547,l),
(150,503,l),
(177,503,ls),
(234,503,o),
(267,476,o),
(267,428,cs),
(267,378,o),
(234,350,o),
(179,350,cs),
(120,350,o),
(87,383,o),
(84,441,c),
(30,441,l),
(29,356,o),
(91,303,o),
(181,303,cs)
);
},
{
closed = 1;
nodes = (
(655,0,l),
(709,0,l),
(709,97,l),
(771,97,l),
(771,141,l),
(709,141,l),
(709,408,l),
(656,408,l),
(462,152,l),
(462,97,l),
(655,97,l)
);
},
{
closed = 1;
nodes = (
(510,141,l),
(510,143,l),
(653,330,l),
(655,330,l),
(655,141,l)
);
},
{
closed = 1;
nodes = (
(151,0,l),
(212,0,l),
(700,715,l),
(640,715,l)
);
}
);
width = 800;
}
);
note = threequarters;
unicode = 190;
},
{
glyphname = threesuperior;
layers = (
{
hints = (
{
horizontal = 1;
place = (273, 47);
place = (273, 47);
type = Stem;
},
{
horizontal = 1;
place = (473, 44);
place = (473, 44);
type = Stem;
},
{
horizontal = 1;
place = (650, 43);
place = (650, 43);
type = Stem;
},
{
place = (38, 54);
place = (38, 54);
type = Stem;
},
{
place = (262, 58);
place = (262, 58);
type = Stem;
},
{
horizontal = 1;
place = (517, -20);
target = down;
type = TopGhost;
},
{
place = (249, 56);
place = (249, 56);
type = Stem;
},
{
place = (145, 97);
place = (145, 97);
type = Stem;
}
);
layerId = m01;
shapes = (
{
closed = 1;
nodes = (
(257,273,o),
(320,316,o),
(320,394,cs),
(320,448,o),
(294,483,o),
(242,497,c),
(242,499,l),
(279,512,o),
(305,540,o),
(305,585,cs),
(305,652,o),
(250,693,o),
(176,693,cs),
(90,693,o),
(39,640,o),
(38,563,c),
(92,563,l),
(93,614,o),
(122,650,o),
(175,650,cs),
(218,650,o),
(249,625,o),
(249,583,cs),
(249,542,o),
(220,517,o),
(171,517,cs),
(145,517,l),
(145,473,l),
(172,473,ls),
(229,473,o),
(262,446,o),
(262,398,cs),
(262,348,o),
(230,320,o),
(174,320,cs),
(115,320,o),
(82,353,o),
(80,411,c),
(25,411,l),
(25,326,o),
(86,273,o),
(177,273,cs)
);
}
);
width = 350;
}
);
note = threesuperior;
unicode = 179;
},
{
glyphname = twosuperior;
layers = (
{
hints = (
{
horizontal = 1;
place = (282, 47);
place = (282, 47);
type = Stem;
},
{
horizontal = 1;
place = (646, 47);
place = (646, 47);
type = Stem;
},
{
place = (38, 53);
place = (38, 53);
type = Stem;
},
{
place = (250, 58);
place = (250, 58);
type = Stem;
}
);
layerId = m01;
shapes = (
{
closed = 1;
nodes = (
(306,282,l),
(306,329,l),
(96,329,l),
(106,373,o),
(155,402,o),
(195,426,cs),
(251,461,o),
(308,493,o),
(308,571,cs),
(308,639,o),
(257,693,o),
(177,693,cs),
(94,693,o),
(38,644,o),
(38,550,c),
(91,550,l),
(93,613,o),
(124,646,o),
(175,646,cs),
(220,646,o),
(250,618,o),
(250,570,cs),
(250,513,o),
(204,492,o),
(152,457,cs),
(94,419,o),
(31,376,o),
(28,282,c)
);
}
);
width = 339;
}
);
note = twosuperior;
unicode = 178;
},
{
glyphname = brokenbar;
layers = (
{
hints = (
{
horizontal = 1;
place = (-118, 872);
place = (-118, 872);
type = Stem;
},
{
place = (77, 56);
place = (77, 56);
type = Stem;
}
);
layerId = m01;
shapes = (
{
closed = 1;
nodes = (
(77,-118,l),
(133,-118,l),
(133,293,l),
(77,293,l)
);
},
{
closed = 1;
nodes = (
(77,359,l),
(133,359,l),
(133,754,l),
(77,754,l)
);
}
);
width = 210;
}
);
note = brokenbar;
unicode = 166;
},
{
glyphname = minus;
kernLeft = minus;
kernRight = minus;
layers = (
{
hints = (
{
horizontal = 1;
place = (299, 54);
place = (299, 54);
type = Stem;
},
{
place = (55, 420);
place = (55, 420);
type = Stem;
}
);
layerId = m01;
shapes = (
{
closed = 1;
nodes = (
(55,299,l),
(475,299,l),
(475,353,l),
(55,353,l)
);
}
);
width = 530;
}
);
note = minus;
unicode = 8722;
},
{
glyphname = multiply;
layers = (
{
hints = (
{
horizontal = 1;
place = (516, -20);
target = down;
type = TopGhost;
},
{
place = (76, 376);
place = (76, 376);
type = Stem;
}
);
layerId = m01;
shapes = (
{
closed = 1;
nodes = (
(113,133,l),
(264,287,l),
(415,133,l),
(452,170,l),
(301,325,l),
(452,480,l),
(415,516,l),
(264,362,l),
(113,516,l),
(76,480,l),
(228,325,l),
(76,170,l)
);
}
);
width = 528;
}
);
note = multiply;
unicode = 215;
},
{
glyphname = exclam;
layers = (
{
hints = (
{
horizontal = 1;
place = (0, 87);
place = (0, 87);
type = Stem;
},
{
horizontal = 1;
place = (715, -20);
target = down;
type = TopGhost;
},
{
place = (72, 68);
place = (72, 68);
type = Stem;
},
{
place = (68, 76);
place = (68, 76);
type = Stem;
}
);
layerId = m01;
shapes = (
{
closed = 1;
nodes = (
(87,173,l),
(126,173,l),
(140,486,l),
(140,715,l),
(72,715,l),
(72,486,l)
);
},
{
closed = 1;
nodes = (
(68,0,l),
(144,0,l),
(144,87,l),
(68,87,l)
);
}
);
width = 212;
}
);
note = exclam;
unicode = 33;
},
{
glyphname = quotedbl;
kernLeft = quotedbl;
kernRight = quotedbl;
layers = (
{
hints = (
{
horizontal = 1;
place = (501, 214);
place = (501, 214);
type = Stem;
},
{
place = (43, 59);
place = (43, 59);
type = Stem;
},
{
place = (174, 59);
place = (174, 59);
type = Stem;
}
);
layerId = m01;
shapes = (
{
closed = 1;
nodes = (
(43,501,l),
(102,501,l),
(102,715,l),
(43,715,l)
);
},
{
closed = 1;
nodes = (
(174,501,l),
(233,501,l),
(233,715,l),
(174,715,l)
);
}
);
width = 276;
}
);
note = quotedbl;
unicode = 34;
},
{
glyphname = numbersign;
layers = (
{
hints = (
{
horizontal = 1;
place = (0, 21);
target = up;
type = BottomGhost;
},
{
horizontal = 1;
place = (207, 55);
place = (207, 55);
type = Stem;
},
{
horizontal = 1;
place = (432, 55);
place = (432, 55);
type = Stem;
},
{
horizontal = 1;
place = (686, -20);
target = down;
type = TopGhost;
},
{
place = (33, 496);
place = (33, 496);
type = Stem;
}
);
layerId = m01;
shapes = (
{
closed = 1;
nodes = (
(107,0,l),
(161,0,l),
(190,207,l),
(334,207,l),
(306,0,l),
(361,0,l),
(389,207,l),
(488,207,l),
(496,262,l),
(396,262,l),
(420,432,l),
(521,432,l),
(529,487,l),
(428,487,l),
(456,686,l),
(401,686,l),
(373,487,l),
(229,487,l),
(256,686,l),
(202,686,l),
(174,487,l),
(73,487,l),
(65,432,l),
(166,432,l),
(142,262,l),
(41,262,l),
(33,207,l),
(135,207,l)
);
},
{
closed = 1;
nodes = (
(197,262,l),
(221,432,l),
(365,432,l),
(342,262,l)
);
}
);
width = 562;
}
);
note = numbersign;
unicode = 35;
},
{
glyphname = dollar;
layers = (
{
hints = (
{
horizontal = 1;
place = (1, 53);
place = (1, 53);
type = Stem;
},
{
horizontal = 1;
place = (647, 53);
place = (647, 53);
type = Stem;
},
{
place = (49, 61);
place = (49, 61);
type = Stem;
},
{
place = (257, 46);
place = (257, 46);
type = Stem;
},
{
place = (460, 64);
place = (460, 64);
type = Stem;
},
{
place = (21, 63);
place = (21, 63);
type = Stem;
}
);
layerId = m01;
shapes = (
{
closed = 1;
nodes = (
(257,-85,l),
(303,-85,l),
(303,1,l),
(432,6,o),
(524,84,o),
(524,199,cs),
(524,330,o),
(427,364,o),
(303,389,c),
(303,646,l),
(381,638,o),
(435,593,o),
(444,515,c),
(505,515,l),
(493,619,o),
(426,690,o),
(303,700,c),
(303,757,l),
(257,757,l),
(257,700,l),
(133,695,o),
(49,625,o),
(49,519,cs),
(49,401,o),
(130,365,o),
(257,338,c),
(257,55,l),
(151,65,o),
(90,128,o),
(84,228,c),
(21,228,l),
(27,110,o),
(102,13,o),
(257,2,c)
);
},
{
closed = 1;
nodes = (
(257,398,l),
(154,421,o),
(110,450,o),
(110,521,cs),
(110,593,o),
(166,642,o),
(257,647,c)
);
},
{
closed = 1;
nodes = (
(303,328,l),
(414,304,o),
(460,277,o),
(460,195,cs),
(460,110,o),
(391,59,o),
(303,54,c)
);
}
);
width = 555;
}
);
note = dollar;
unicode = 36;
},
{
glyphname = percent;
kernLeft = percent;
layers = (
{
hints = (
{
horizontal = 1;
place = (-14, 48);
place = (-14, 48);
type = Stem;
},
{
horizontal = 1;
place = (310, 47);
place = (310, 47);
type = Stem;
},
{
horizontal = 1;
place = (652, 48);
place = (652, 48);
type = Stem;
},
{
place = (30, 59);
place = (30, 59);
type = Stem;
},
{
place = (279, 57);
place = (279, 57);
type = Stem;
},
{
place = (463, 58);
place = (463, 58);
type = Stem;
},
{
place = (711, 58);
place = (711, 58);
type = Stem;
},
{
horizontal = 1;
place = (0, 21);
target = up;
type = BottomGhost;
},
{
horizontal = 1;
place = (685, -20);
target = down;
type = TopGhost;
},
{
horizontal = 1;
place = (329, 47);
place = (329, 47);
type = Stem;
}
);
layerId = m01;
shapes = (
{
closed = 1;
nodes = (
(129,357,o),
(89,410,o),
(89,505,cs),
(89,602,o),
(129,652,o),
(184,652,cs),
(237,652,o),
(279,600,o),
(279,505,cs),
(279,408,o),
(239,357,o),
(184,357,cs)
);
},
{
closed = 1;
nodes = (
(272,310,o),
(336,382,o),
(336,505,cs),
(336,631,o),
(268,700,o),
(184,700,cs),
(99,700,o),
(30,629,o),
(30,505,cs),
(30,382,o),
(95,310,o),
(184,310,cs)
);
},
{
closed = 1;
nodes = (
(175,0,l),
(230,0,l),
(624,685,l),
(570,685,l)
);
},
{
closed = 1;
nodes = (
(562,34,o),
(521,86,o),
(521,181,cs),
(521,278,o),
(562,329,o),
(616,329,cs),
(670,329,o),
(711,276,o),
(711,181,cs),
(711,84,o),
(672,34,o),
(616,34,cs)
);
},
{
closed = 1;
nodes = (
(705,-14,o),
(769,59,o),
(769,181,cs),
(769,308,o),
(701,376,o),
(616,376,cs),
(532,376,o),
(463,306,o),
(463,181,cs),
(463,59,o),
(528,-14,o),
(616,-14,cs)
);
}
);
width = 799;
}
);
note = percent;
unicode = 37;
},
{
glyphname = ampersand;
kernLeft = ampersand;
kernRight = ampersand;
layers = (
{
hints = (
{
horizontal = 1;
place = (-13, 55);
place = (-13, 55);
type = Stem;
},
{
horizontal = 1;
place = (653, 53);
place = (653, 53);
type = Stem;
},
{
place = (32, 65);
place = (32, 65);
type = Stem;
},
{
place = (120, 62);
place = (120, 62);
type = Stem;
},
{
place = (355, 62);
place = (355, 62);
type = Stem;
},
{
place = (465, 57);
place = (465, 57);
type = Stem;
},
{
horizontal = 1;
place = (0, 21);
target = up;
type = BottomGhost;
}
);
layerId = m01;
shapes = (
{
closed = 1;
nodes = (
(330,-13,o),
(396,22,o),
(441,77,c),
(501,0,l),
(576,0,l),
(476,129,l),
(506,186,o),
(522,255,o),
(522,325,c),
(465,325,l),
(464,271,o),
(454,221,o),
(437,179,c),
(278,384,l),
(351,426,o),
(417,471,o),
(417,560,cs),
(417,655,o),
(348,706,o),
(270,706,cs),
(185,706,o),
(120,644,o),
(120,564,cs),
(120,512,o),
(136,472,o),
(178,417,cs),
(196,394,l),
(105,342,o),
(32,288,o),
(32,177,cs),
(32,58,o),
(131,-13,o),
(245,-13,cs)
);
},
{
closed = 1;
nodes = (
(225,453,ls),
(194,494,o),
(182,524,o),
(182,563,cs),
(182,618,o),
(220,653,o),
(270,653,cs),
(320,653,o),
(355,619,o),
(355,562,cs),
(355,503,o),
(320,466,o),
(247,424,c)
);
},
{
closed = 1;
nodes = (
(159,42,o),
(97,96,o),
(97,177,cs),
(97,266,o),
(157,311,o),
(227,353,c),
(406,123,l),
(369,73,o),
(316,42,o),
(248,42,cs)
);
}
);
width = 577;
}
);
note = ampersand;
unicode = 38;
},
{
glyphname = quotesingle;
kernLeft = quotedbl;
kernRight = quotedbl;
layers = (
{
hints = (
{
horizontal = 1;
place = (501, 214);
place = (501, 214);
type = Stem;
},
{
place = (43, 59);
place = (43, 59);
type = Stem;
}
);
layerId = m01;
shapes = (
{
closed = 1;
nodes = (
(43,501,l),
(102,501,l),
(102,715,l),
(43,715,l)
);
}
);
width = 145;
}
);
note = quotesingle;
unicode = 39;
},
{
glyphname = parenleft;
kernRight = parenleft;
layers = (
{
hints = (
{
horizontal = 1;
place = (-118, 872);
place = (-118, 872);
type = Stem;
},
{
place = (73, 71);
place = (73, 71);
type = Stem;
}
);
layerId = m01;
shapes = (
{
closed = 1;
nodes = (
(264,-118,l),
(186,16,o),
(144,158,o),
(144,335,cs),
(144,499,o),
(197,644,o),
(264,754,c),
(210,754,l),
(137,650,o),
(73,509,o),
(73,335,cs),
(73,147,o),
(131,4,o),
(210,-118,c)
);
}
);
width = 284;
}
);
note = parenleft;
unicode = 40;
},
{
glyphname = parenright;
kernLeft = parenright;
layers = (
{
hints = (
{
horizontal = 1;
place = (-118, 872);
place = (-118, 872);
type = Stem;
},
{
place = (140, 72);
place = (140, 72);
type = Stem;
}
);
layerId = m01;
shapes = (
{
closed = 1;
nodes = (
(74,-118,l),
(150,-7,o),
(212,135,o),
(212,315,cs),
(212,497,o),
(151,640,o),
(74,754,c),
(20,754,l),
(95,630,o),
(140,486,o),
(140,315,cs),
(140,145,o),
(91,2,o),
(20,-118,c)
);
}
);
width = 284;
}
);
note = parenright;
unicode = 41;
},
{
glyphname = asterisk;
kernLeft = asterisk;
kernRight = asterisk;
layers = (
{
hints = (
{
horizontal = 1;
place = (715, -20);
target = down;
type = TopGhost;
},
{
place = (156, 47);
place = (156, 47);
type = Stem;
}
);
layerId = m01;
shapes = (
{
closed = 1;
nodes = (
(112,443,l),
(180,541,l),
(247,443,l),
(283,469,l),
(219,560,l),
(319,595,l),
(304,634,l),
(203,599,l),
(203,715,l),
(156,715,l),
(156,599,l),
(56,634,l),
(41,595,l),
(141,560,l),
(77,469,l)
);
}
);
width = 360;
}
);
note = asterisk;
unicode = 42;
},
{
glyphname = plus;
kernLeft = minus;
kernRight = minus;
layers = (
{
hints = (
{
horizontal = 1;
place = (299, 54);
place = (299, 54);
type = Stem;
},
{
place = (237, 56);
place = (237, 56);
type = Stem;
}
);
layerId = m01;
shapes = (
{
closed = 1;
nodes = (
(237,105,l),
(293,105,l),
(293,299,l),
(475,299,l),
(475,353,l),
(293,353,l),
(293,545,l),
(237,545,l),
(237,353,l),
(55,353,l),
(55,299,l),
(237,299,l)
);
}
);
width = 530;
}
);
note = plus;
unicode = 43;
},
{
glyphname = comma;
kernLeft = comma;
kernRight = comma;
layers = (
{
hints = (
{
horizontal = 1;
place = (0, 87);
place = (0, 87);
type = Stem;
},
{
place = (42, 76);
place = (42, 76);
type = Stem;
}
);
layerId = m01;
shapes = (
{
closed = 1;
nodes = (
(42,-108,l),
(88,-99,o),
(118,-69,o),
(118,-3,cs),
(118,87,l),
(42,87,l),
(42,0,l),
(76,0,l),
(76,-4,ls),
(76,-50,o),
(61,-65,o),
(42,-72,c)
);
}
);
width = 160;
}
);
note = comma;
unicode = 44;
},
{
glyphname = hyphen;
kernLeft = hyphen;
kernRight = hyphen;
layers = (
{
hints = (
{
horizontal = 1;
place = (252, 56);
place = (252, 56);
type = Stem;
},
{
place = (35, 256);
place = (35, 256);
type = Stem;
}
);
layerId = m01;
shapes = (
{
closed = 1;
nodes = (
(35,252,l),
(291,252,l),
(291,308,l),
(35,308,l)
);
}
);
width = 326;
}
);
note = hyphen;
unicode = 45;
},
{
glyphname = period;
kernLeft = comma;
kernRight = comma;
layers = (
{
hints = (
{
horizontal = 1;
place = (0, 87);
place = (0, 87);
type = Stem;
},
{
place = (42, 76);
place = (42, 76);
type = Stem;
}
);
layerId = m01;
shapes = (
{
closed = 1;
nodes = (
(42,0,l),
(118,0,l),
(118,87,l),
(42,87,l)
);
}
);
width = 160;
}
);
note = period;
unicode = 46;
},
{
glyphname = slash;
kernLeft = slash;
kernRight = slash;
layers = (
{
hints = (
{
horizontal = 1;
place = (0, 21);
target = up;
type = BottomGhost;
},
{
horizontal = 1;
place = (715, -20);
target = down;
type = TopGhost;
},
{
place = (16, 349);
place = (16, 349);
type = Stem;
}
);
layerId = m01;
shapes = (
{
closed = 1;
nodes = (
(16,0,l),
(81,0,l),
(365,715,l),
(300,715,l)
);
}
);
width = 381;
}
);
note = slash;
unicode = 47;
},
{
glyphname = zero;
kernLeft = zero;
kernRight = zero;
layers = (
{
hints = (
{
horizontal = 1;
place = (-14, 56);
place = (-14, 56);
type = Stem;
},
{
horizontal = 1;
place = (645, 55);
place = (645, 55);
type = Stem;
},
{
place = (38, 67);
place = (38, 67);
type = Stem;
},
{
place = (478, 67);
place = (478, 67);
type = Stem;
}
);
layerId = m01;
shapes = (
{
closed = 1;
nodes = (
(170,42,o),
(105,159,o),
(105,343,cs),
(105,531,o),
(170,645,o),
(292,645,cs),
(413,645,o),
(478,527,o),
(478,343,cs),
(478,155,o),
(416,42,o),
(292,42,cs)
);
},
{
closed = 1;
nodes = (
(455,-14,o),
(545,125,o),
(545,343,cs),
(545,567,o),
(447,700,o),
(292,700,cs),
(137,700,o),
(38,565,o),
(38,343,cs),
(38,125,o),
(129,-14,o),
(291,-14,cs)
);
}
);
width = 583;
}
);
note = zero;
unicode = 48;
},
{
glyphname = one;
kernLeft = one;
kernRight = one;
layers = (
{
hints = (
{
horizontal = 1;
place = (0, 21);
target = up;
type = BottomGhost;
},
{
horizontal = 1;
place = (515, 44);
place = (515, 44);
type = Stem;
},
{
horizontal = 1;
place = (689, -20);
target = down;
type = TopGhost;
},
{
place = (177, 65);
place = (177, 65);
type = Stem;
}
);
layerId = m01;
shapes = (
{
closed = 1;
nodes = (
(177,0,l),
(242,0,l),
(242,689,l),
(193,689,l),
(181,587,o),
(134,564,o),
(33,559,c),
(33,515,l),
(177,515,l)
);
}
);
width = 327;
}
);
note = one;
unicode = 49;
},
{
glyphname = two;
kernLeft = two;
kernRight = two;
layers = (
{
hints = (
{
horizontal = 1;
place = (0, 60);
place = (0, 60);
type = Stem;
},
{
horizontal = 1;
place = (644, 55);
place = (644, 55);
type = Stem;
},
{
place = (48, 66);
place = (48, 66);
type = Stem;
},
{
place = (419, 66);
place = (419, 66);
type = Stem;
}
);
layerId = m01;
shapes = (
{
closed = 1;
nodes = (
(476,0,l),
(476,60,l),
(106,60,l),
(120,155,o),
(207,208,o),
(286,255,cs),
(387,315,o),
(485,363,o),
(485,500,cs),
(485,613,o),
(404,699,o),
(275,699,cs),
(210,699,o),
(150,678,o),
(109,637,cs),
(70,598,o),
(48,542,o),
(48,465,c),
(114,465,l),
(115,528,o),
(130,570,o),
(157,600,cs),
(184,629,o),
(223,644,o),
(271,644,cs),
(361,644,o),
(419,590,o),
(419,498,cs),
(419,398,o),
(355,364,o),
(262,308,cs),
(154,243,o),
(35,176,o),
(32,0,c)
);
}
);
width = 520;
}
);
note = two;
unicode = 50;
},
{
glyphname = three;
kernLeft = three;
kernRight = three;
layers = (
{
hints = (
{
horizontal = 1;
place = (-14, 57);
place = (-14, 57);
type = Stem;
},
{
horizontal = 1;
place = (337, 53);
place = (337, 53);
type = Stem;
},
{
horizontal = 1;
place = (647, 53);
place = (647, 53);
type = Stem;
},
{
place = (46, 64);
place = (46, 64);
type = Stem;
},
{
place = (430, 66);
place = (430, 66);
type = Stem;
},
{
place = (407, 64);
place = (407, 64);
type = Stem;
}
);
layerId = m01;
shapes = (
{
closed = 1;
nodes = (
(402,-14,o),
(496,63,o),
(496,188,cs),
(496,276,o),
(455,337,o),
(368,365,c),
(368,368,l),
(429,392,o),
(471,439,o),
(471,517,cs),
(471,631,o),
(382,700,o),
(267,700,cs),
(128,700,o),
(47,609,o),
(46,483,c),
(110,483,l),
(110,576,o),
(166,647,o),
(265,647,cs),
(346,647,o),
(407,600,o),
(407,517,cs),
(407,440,o),
(354,390,o),
(260,390,cs),
(213,390,l),
(213,337,l),
(261,337,ls),
(368,337,o),
(430,284,o),
(430,193,cs),
(430,100,o),
(369,43,o),
(266,43,cs),
(163,43,o),
(93,102,o),
(89,212,c),
(24,212,l),
(25,71,o),
(130,-14,o),
(267,-14,cs)
);
}
);
width = 529;
}
);
note = three;
unicode = 51;
},
{
glyphname = four;
kernLeft = four;
kernRight = four;
layers = (
{
hints = (
{
horizontal = 1;
place = (0, 21);
target = up;
type = BottomGhost;
},
{
horizontal = 1;
place = (175, 54);
place = (175, 54);
type = Stem;
},
{
horizontal = 1;
place = (692, -20);
target = down;
type = TopGhost;
},
{
place = (24, 65);
place = (24, 65);
type = Stem;
},
{
place = (344, 63);
place = (344, 63);
type = Stem;
}
);
layerId = m01;
shapes = (
{
closed = 1;
nodes = (
(344,0,l),
(407,0,l),
(407,175,l),
(513,175,l),
(513,229,l),
(407,229,l),
(407,692,l),
(353,692,l),
(24,235,l),
(24,175,l),
(344,175,l)
);
},
{
closed = 1;
nodes = (
(89,229,l),
(89,232,l),
(342,583,l),
(344,583,l),
(344,229,l)
);
}
);
width = 537;
}
);
note = four;
unicode = 52;
},
{
glyphname = five;
kernLeft = five;
kernRight = five;
layers = (
{
hints = (
{
horizontal = 1;
place = (-14, 59);
place = (-14, 59);
type = Stem;
},
{
horizontal = 1;
place = (391, 57);
place = (391, 57);
type = Stem;
},
{
horizontal = 1;
place = (627, 58);
place = (627, 58);
type = Stem;
},
{
place = (413, 66);
place = (413, 66);
type = Stem;
},
{
horizontal = 1;
place = (321, 72);
place = (321, 72);
type = Stem;
}
);
layerId = m01;
shapes = (
{
closed = 1;
nodes = (
(388,-14,o),
(479,81,o),
(479,219,cs),
(479,369,o),
(377,448,o),
(266,448,cs),
(197,448,o),
(153,428,o),
(115,393,c),
(113,393,l),
(151,627,l),
(445,627,l),
(445,685,l),
(104,685,l),
(43,321,l),
(105,321,l),
(132,360,o),
(178,391,o),
(255,391,cs),
(347,391,o),
(413,327,o),
(413,221,cs),
(413,117,o),
(353,45,o),
(251,45,cs),
(152,45,o),
(101,99,o),
(90,185,c),
(26,185,l),
(29,68,o),
(123,-14,o),
(252,-14,cs)
);
}
);
width = 512;
}
);
note = five;
unicode = 53;
},
{
glyphname = six;
kernLeft = six;
kernRight = six;
layers = (
{
hints = (
{
horizontal = 1;
place = (-14, 54);
place = (-14, 54);
type = Stem;
},
{
horizontal = 1;
place = (387, 54);
place = (387, 54);
type = Stem;
},
{
horizontal = 1;
place = (644, 56);
place = (644, 56);
type = Stem;
},
{
place = (38, 64);
place = (38, 64);
type = Stem;
},
{
place = (445, 63);
place = (445, 63);
type = Stem;
}
);
layerId = m01;
shapes = (
{
closed = 1;
nodes = (
(418,-14,o),
(509,88,o),
(508,218,cs),
(508,346,o),
(417,441,o),
(291,441,cs),
(209,441,o),
(145,401,o),
(104,330,c),
(102,330,l),
(101,519,o),
(160,644,o),
(294,644,cs),
(371,644,o),
(419,592,o),
(425,522,c),
(490,522,l),
(479,621,o),
(413,700,o),
(293,700,cs),
(125,700,o),
(38,551,o),
(38,347,cs),
(38,205,o),
(62,105,o),
(130,44,cs),
(170,8,o),
(219,-14,o),
(289,-14,cs)
);
},
{
closed = 1;
nodes = (
(188,40,o),
(119,110,o),
(119,214,cs),
(119,316,o),
(190,387,o),
(287,387,cs),
(380,387,o),
(445,318,o),
(445,216,cs),
(445,114,o),
(381,40,o),
(287,40,cs)
);
}
);
width = 544;
}
);
note = six;
unicode = 54;
},
{
glyphname = seven;
kernLeft = seven;
kernRight = seven;
layers = (
{
hints = (
{
horizontal = 1;
place = (0, 21);
target = up;
type = BottomGhost;
},
{
horizontal = 1;
place = (627, 58);
place = (627, 58);
type = Stem;
},
{
place = (23, 448);
place = (23, 448);
type = Stem;
}
);
layerId = m01;
shapes = (
{
closed = 1;
nodes = (
(198,0,l),
(219,269,o),
(335,496,o),
(471,629,c),
(471,685,l),
(23,685,l),
(23,627,l),
(404,627,l),
(404,625,l),
(261,487,o),
(147,239,o),
(128,0,c)
);
}
);
width = 489;
}
);
note = seven;
unicode = 55;
},
{
glyphname = eight;
kernLeft = eight;
kernRight = eight;
layers = (
{
hints = (
{
horizontal = 1;
place = (-14, 55);
place = (-14, 55);
type = Stem;
},
{
horizontal = 1;
place = (345, 53);
place = (345, 53);
type = Stem;
},
{
horizontal = 1;
place = (646, 54);
place = (646, 54);
type = Stem;
},
{
place = (32, 67);
place = (32, 67);
type = Stem;
},
{
place = (449, 65);
place = (449, 65);
type = Stem;
},
{
place = (65, 64);
place = (65, 64);
type = Stem;
},
{
place = (417, 64);
place = (417, 64);
type = Stem;
}
);
layerId = m01;
shapes = (
{
closed = 1;
nodes = (
(401,-14,o),
(514,53,o),
(514,192,cs),
(514,282,o),
(454,349,o),
(378,373,c),
(378,376,l),
(441,401,o),
(481,453,o),
(481,524,cs),
(481,625,o),
(397,700,o),
(273,700,cs),
(155,700,o),
(65,628,o),
(65,524,cs),
(65,453,o),
(104,400,o),
(167,375,c),
(167,372,l),
(90,345,o),
(32,288,o),
(32,192,cs),
(32,55,o),
(149,-14,o),
(275,-14,cs)
);
},
{
closed = 1;
nodes = (
(163,41,o),
(99,103,o),
(99,192,cs),
(99,282,o),
(162,345,o),
(272,345,cs),
(383,345,o),
(449,282,o),
(449,192,cs),
(449,104,o),
(383,41,o),
(275,41,cs)
);
},
{
closed = 1;
nodes = (
(180,398,o),
(129,452,o),
(129,521,cs),
(129,592,o),
(182,646,o),
(273,646,cs),
(364,646,o),
(417,592,o),
(417,521,cs),
(417,452,o),
(362,398,o),
(272,398,cs)
);
}
);
width = 547;
}
);
note = eight;
unicode = 56;
},
{
glyphname = nine;
kernLeft = nine;
kernRight = nine;
layers = (
{
hints = (
{
horizontal = 1;
place = (-14, 56);
place = (-14, 56);
type = Stem;
},
{
horizontal = 1;
place = (245, 54);
place = (245, 54);
type = Stem;
},
{
horizontal = 1;
place = (646, 54);
place = (646, 54);
type = Stem;
},
{
place = (36, 63);
place = (36, 63);
type = Stem;
},
{
place = (443, 63);
place = (443, 63);
type = Stem;
}
);
layerId = m01;
shapes = (
{
closed = 1;
nodes = (
(321,-14,o),
(376,7,o),
(416,46,cs),
(480,109,o),
(506,211,o),
(506,339,cs),
(506,486,o),
(484,588,o),
(413,646,cs),
(374,679,o),
(326,700,o),
(260,700,cs),
(129,700,o),
(35,598,o),
(36,468,cs),
(36,340,o),
(128,245,o),
(254,245,cs),
(336,245,o),
(402,284,o),
(441,352,c),
(443,352,l),
(442,227,o),
(422,138,o),
(372,87,cs),
(344,57,o),
(305,42,o),
(254,42,cs),
(172,42,o),
(119,92,o),
(113,168,c),
(47,168,l),
(54,58,o),
(136,-14,o),
(256,-14,cs)
);
},
{
closed = 1;
nodes = (
(164,299,o),
(99,368,o),
(99,470,cs),
(99,572,o),
(165,646,o),
(261,646,cs),
(358,646,o),
(427,576,o),
(427,471,cs),
(427,370,o),
(358,299,o),
(259,299,cs)
);
}
);
width = 543;
}
);
note = nine;
unicode = 57;
},
{
glyphname = colon;
kernLeft = colon;
kernRight = colon;
layers = (
{
hints = (
{
horizontal = 1;
place = (0, 87);
place = (0, 87);
type = Stem;
},
{
horizontal = 1;
place = (307, 87);
place = (307, 87);
type = Stem;
},
{
place = (46, 76);
place = (46, 76);
type = Stem;
}
);
layerId = m01;
shapes = (
{
closed = 1;
nodes = (
(46,0,l),
(122,0,l),
(122,87,l),
(46,87,l)
);
},
{
closed = 1;
nodes = (
(46,307,l),
(122,307,l),
(122,394,l),
(46,394,l)
);
}
);
width = 168;
}
);
note = colon;
unicode = 58;
},
{
glyphname = semicolon;
kernLeft = colon;
kernRight = colon;
layers = (
{
hints = (
{
horizontal = 1;
place = (0, 87);
place = (0, 87);
type = Stem;
},
{
horizontal = 1;
place = (307, 87);
place = (307, 87);
type = Stem;
},
{
place = (46, 76);
place = (46, 76);
type = Stem;
}
);
layerId = m01;
shapes = (
{
closed = 1;
nodes = (
(46,-108,l),
(92,-99,o),
(122,-69,o),
(122,-3,cs),
(122,87,l),
(46,87,l),
(46,0,l),
(80,0,l),
(80,-4,ls),
(80,-50,o),
(65,-65,o),
(46,-72,c)
);
},
{
closed = 1;
nodes = (
(46,307,l),
(122,307,l),
(122,394,l),
(46,394,l)
);
}
);
width = 168;
}
);
note = semicolon;
unicode = 59;
},
{
glyphname = less;
layers = (
{
hints = (
{
horizontal = 1;
place = (109, 405);
place = (109, 405);
type = Stem;
},
{
place = (50, 52);
place = (50, 52);
type = Stem;
}
);
layerId = m01;
shapes = (
{
closed = 1;
nodes = (
(445,109,l),
(445,168,l),
(102,311,l),
(102,313,l),
(445,455,l),
(445,514,l),
(50,345,l),
(50,278,l)
);
}
);
width = 499;
}
);
note = less;
unicode = 60;
},
{
glyphname = equal;
layers = (
{
hints = (
{
horizontal = 1;
place = (204, 53);
place = (204, 53);
type = Stem;
},
{
horizontal = 1;
place = (364, 53);
place = (364, 53);
type = Stem;
},
{
place = (55, 420);
place = (55, 420);
type = Stem;
}
);
layerId = m01;
shapes = (
{
closed = 1;
nodes = (
(55,204,l),
(475,204,l),
(475,257,l),
(55,257,l)
);
},
{
closed = 1;
nodes = (
(55,364,l),
(475,364,l),
(475,417,l),
(55,417,l)
);
}
);
width = 530;
}
);
note = equal;
unicode = 61;
},
{
glyphname = greater;
layers = (
{
hints = (
{
horizontal = 1;
place = (109, 405);
place = (109, 405);
type = Stem;
},
{
place = (397, 52);
place = (397, 52);
type = Stem;
}
);
layerId = m01;
shapes = (
{
closed = 1;
nodes = (
(54,109,l),
(449,278,l),
(449,345,l),
(54,514,l),
(54,455,l),
(397,312,l),
(397,310,l),
(54,168,l)
);
}
);
width = 499;
}
);
note = greater;
unicode = 62;
},
{
glyphname = question;
kernLeft = question;
layers = (
{
hints = (
{
horizontal = 1;
place = (0, 87);
place = (0, 87);
type = Stem;
},
{
horizontal = 1;
place = (672, 56);
place = (672, 56);
type = Stem;
},
{
place = (27, 64);
place = (27, 64);
type = Stem;
},
{
place = (199, 60);
place = (199, 60);
type = Stem;
},
{
place = (390, 67);
place = (390, 67);
type = Stem;
},
{
place = (191, 75);
place = (191, 75);
type = Stem;
}
);
layerId = m01;
shapes = (
{
closed = 1;
nodes = (
(259,173,l),
(259,273,o),
(280,301,o),
(353,362,cs),
(403,404,o),
(457,447,o),
(457,545,cs),
(457,648,o),
(380,728,o),
(255,728,cs),
(97,728,o),
(29,620,o),
(27,504,c),
(91,504,l),
(93,601,o),
(149,672,o),
(252,672,cs),
(336,672,o),
(390,620,o),
(390,544,cs),
(390,468,o),
(346,433,o),
(301,395,cs),
(227,332,o),
(199,287,o),
(199,173,c)
);
},
{
closed = 1;
nodes = (
(191,0,l),
(266,0,l),
(266,87,l),
(191,87,l)
);
}
);
width = 497;
}
);
note = question;
unicode = 63;
},
{
glyphname = at;
kernLeft = at;
kernRight = at;
layers = (
{
hints = (
{
horizontal = 1;
place = (-102, 50);
place = (-102, 50);
type = Stem;
},
{
horizontal = 1;
place = (81, 49);
place = (81, 49);
type = Stem;
},
{
horizontal = 1;
place = (474, 49);
place = (474, 49);
type = Stem;
},
{
horizontal = 1;
place = (661, 51);
place = (661, 51);
type = Stem;
},
{
place = (38, 56);
place = (38, 56);
type = Stem;
},
{
place = (234, 62);
place = (234, 62);
type = Stem;
},
{
place = (777, 55);
place = (777, 55);
type = Stem;
},
{
horizontal = 1;
place = (90, 49);
place = (90, 49);
type = Stem;
},
{
place = (549, 48);
place = (549, 48);
type = Stem;
}
);
layerId = m01;
shapes = (
{
closed = 1;
nodes = (
(511,-102,o),
(580,-86,o),
(642,-59,c),
(624,-14,l),
(565,-37,o),
(502,-52,o),
(433,-52,cs),
(213,-52,o),
(94,88,o),
(94,289,cs),
(94,521,o),
(261,661,o),
(452,661,cs),
(635,661,o),
(777,556,o),
(777,344,cs),
(777,213,o),
(729,139,o),
(656,139,cs),
(608,139,o),
(589,176,o),
(597,234,cs),
(631,514,l),
(575,514,l),
(565,446,l),
(562,446,l),
(541,490,o),
(498,523,o),
(434,523,cs),
(321,523,o),
(234,425,o),
(234,270,cs),
(234,158,o),
(296,81,o),
(399,81,cs),
(462,81,o),
(519,117,o),
(546,166,c),
(548,166,l),
(557,127,o),
(590,90,o),
(654,90,cs),
(768,90,o),
(832,197,o),
(832,346,cs),
(832,585,o),
(648,712,o),
(454,712,cs),
(245,712,o),
(38,558,o),
(38,289,cs),
(38,53,o),
(193,-102,o),
(434,-102,cs)
);
},
{
closed = 1;
nodes = (
(327,130,o),
(296,191,o),
(296,271,cs),
(296,384,o),
(344,474,o),
(435,474,cs),
(515,474,o),
(549,418,o),
(549,336,cs),
(549,223,o),
(504,130,o),
(402,130,cs)
);
}
);
width = 870;
}
);
note = at;
unicode = 64;
},
{
glyphname = A;
kernLeft = A;
kernRight = A;
layers = (
{
hints = (
{
horizontal = 1;
place = (0, 21);
target = up;
type = BottomGhost;
},
{
horizontal = 1;
place = (225, 55);
place = (225, 55);
type = Stem;
},
{
horizontal = 1;
place = (715, -20);
target = down;
type = TopGhost;
},
{
place = (8, 618);
place = (8, 618);
type = Stem;
},
{
horizontal = 1;
place = (651, 64);
place = (651, 64);
type = Stem;
}
);
layerId = m01;
shapes = (
{
closed = 1;
nodes = (
(8,0,l),
(76,0,l),
(160,225,l),
(471,225,l),
(554,0,l),
(626,0,l),
(354,715,l),
(278,715,l)
);
},
{
closed = 1;
nodes = (
(180,280,l),
(280,547,ls),
(296,590,o),
(315,651,o),
(315,651,c),
(317,651,l),
(317,651,o),
(338,587,o),
(353,547,cs),
(451,280,l)
);
}
);
width = 634;
}
);
note = A;
unicode = 65;
},
{
glyphname = B;
layers = (
{
hints = (
{
horizontal = 1;
place = (0, 61);
place = (0, 61);
type = Stem;
},
{
horizontal = 1;
place = (343, 58);
place = (343, 58);
type = Stem;
},
{
horizontal = 1;
place = (656, 59);
place = (656, 59);
type = Stem;
},
{
place = (64, 67);
place = (64, 67);
type = Stem;
},
{
place = (497, 68);
place = (497, 68);
type = Stem;
},
{
place = (527, 68);
place = (527, 68);
type = Stem;
}
);
layerId = m01;
shapes = (
{
closed = 1;
nodes = (
(64,0,l),
(374,0,ls),
(448,0,o),
(506,23,o),
(543,61,cs),
(577,96,o),
(595,143,o),
(595,201,cs),
(595,296,o),
(538,354,o),
(456,377,c),
(456,380,l),
(528,405,o),
(565,454,o),
(565,535,cs),
(565,589,o),
(546,633,o),
(513,663,cs),
(477,697,o),
(425,715,o),
(361,715,cs),
(64,715,l)
);
},
{
closed = 1;
nodes = (
(131,61,l),
(131,343,l),
(370,343,ls),
(464,343,o),
(527,291,o),
(527,200,cs),
(527,158,o),
(514,125,o),
(491,102,cs),
(465,77,o),
(425,61,o),
(370,61,cs)
);
},
{
closed = 1;
nodes = (
(131,401,l),
(131,656,l),
(362,656,ls),
(445,656,o),
(497,611,o),
(497,530,cs),
(497,452,o),
(447,401,o),
(360,401,cs)
);
}
);
width = 623;
}
);
note = B;
unicode = 66;
},
{
glyphname = C;
kernLeft = C;
kernRight = C;
layers = (
{
hints = (
{
horizontal = 1;
place = (-13, 59);
place = (-13, 59);
type = Stem;
},
{
horizontal = 1;
place = (672, 58);
place = (672, 58);
type = Stem;
},
{
place = (36, 70);
place = (36, 70);
type = Stem;
}
);
layerId = m01;
shapes = (
{
closed = 1;
nodes = (
(449,-13,o),
(524,17,o),
(574,73,cs),
(617,120,o),
(644,190,o),
(648,260,c),
(583,260,l),
(572,142,o),
(497,46,o),
(359,46,cs),
(195,46,o),
(106,178,o),
(106,357,cs),
(106,533,o),
(192,672,o),
(360,672,cs),
(477,672,o),
(551,606,o),
(570,513,c),
(636,513,l),
(612,646,o),
(512,730,o),
(361,730,cs),
(159,730,o),
(36,573,o),
(36,357,cs),
(36,138,o),
(159,-13,o),
(358,-13,cs)
);
}
);
width = 677;
}
);
note = C;
unicode = 67;
},
{
glyphname = D;
kernRight = Eth;
layers = (
{
hints = (
{
horizontal = 1;
place = (0, 59);
place = (0, 59);
type = Stem;
},
{
horizontal = 1;
place = (656, 59);
place = (656, 59);
type = Stem;
},
{
place = (64, 67);
place = (64, 67);
type = Stem;
},
{
place = (554, 70);
place = (554, 70);
type = Stem;
}
);
layerId = m01;
shapes = (
{
closed = 1;
nodes = (
(131,59,l),
(131,656,l),
(316,656,ls),
(487,656,o),
(554,536,o),
(554,355,cs),
(554,174,o),
(480,59,o),
(309,59,cs)
);
},
{
closed = 1;
nodes = (
(64,0,l),
(311,0,ls),
(522,0,o),
(624,143,o),
(624,355,cs),
(624,567,o),
(529,715,o),
(318,715,cs),
(64,715,l)
);
}
);
width = 660;
}
);
note = D;
unicode = 68;
},
{
glyphname = E;
kernRight = E;
layers = (
{
hints = (
{
horizontal = 1;
place = (0, 62);
place = (0, 62);
type = Stem;
},
{
horizontal = 1;
place = (341, 58);
place = (341, 58);
type = Stem;
},
{
horizontal = 1;
place = (656, 59);
place = (656, 59);
type = Stem;
},
{
place = (64, 67);
place = (64, 67);
type = Stem;
}
);
layerId = m01;
shapes = (
{
closed = 1;
nodes = (
(64,0,l),
(561,0,l),
(561,62,l),
(131,62,l),
(131,341,l),
(515,341,l),
(515,399,l),
(131,399,l),
(131,656,l),
(550,656,l),
(550,715,l),
(64,715,l)
);
}
);
width = 598;
}
);
note = E;
unicode = 69;
},
{
glyphname = F;
kernRight = F;
layers = (
{
hints = (
{
horizontal = 1;
place = (0, 21);
target = up;
type = BottomGhost;
},
{
horizontal = 1;
place = (344, 58);
place = (344, 58);
type = Stem;
},
{
horizontal = 1;
place = (656, 59);
place = (656, 59);
type = Stem;
},
{
place = (64, 67);
place = (64, 67);
type = Stem;
}
);
layerId = m01;
shapes = (
{
closed = 1;
nodes = (
(64,0,l),
(131,0,l),
(131,344,l),
(471,344,l),
(471,402,l),
(131,402,l),
(131,656,l),
(530,656,l),
(530,715,l),
(64,715,l)
);
}
);
width = 556;
}
);
note = F;
unicode = 70;
},
{
glyphname = G;
kernLeft = C;
kernRight = G;
layers = (
{
hints = (
{
horizontal = 1;
place = (-14, 59);
place = (-14, 59);
type = Stem;
},
{
horizontal = 1;
place = (308, 59);
place = (308, 59);
type = Stem;
},
{
horizontal = 1;
place = (671, 58);
place = (671, 58);
type = Stem;
},
{
place = (36, 70);
place = (36, 70);
type = Stem;
},
{
place = (601, 66);
place = (601, 66);
type = Stem;
},
{
horizontal = 1;
place = (0, 21);
target = up;
type = BottomGhost;
}
);
layerId = m01;
shapes = (
{
closed = 1;
nodes = (
(496,-14,o),
(566,56,o),
(603,114,c),
(606,114,l),
(620,0,l),
(667,0,l),
(667,367,l),
(371,367,l),
(371,308,l),
(601,308,l),
(601,283,ls),
(601,159,o),
(530,45,o),
(365,45,cs),
(195,45,o),
(106,181,o),
(106,357,cs),
(106,530,o),
(190,671,o),
(374,671,cs),
(483,671,o),
(565,615,o),
(587,508,c),
(656,508,l),
(630,653,o),
(521,729,o),
(374,729,cs),
(157,729,o),
(36,568,o),
(36,357,cs),
(36,143,o),
(155,-14,o),
(364,-14,cs)
);
}
);
width = 722;
}
);
note = G;
unicode = 71;
},
{
glyphname = H;
layers = (
{
hints = (
{
horizontal = 1;
place = (0, 21);
target = up;
type = BottomGhost;
},
{
horizontal = 1;
place = (350, 56);
place = (350, 56);
type = Stem;
},
{
horizontal = 1;
place = (715, -20);
target = down;
type = TopGhost;
},
{
place = (64, 67);
place = (64, 67);
type = Stem;
},
{
place = (536, 67);
place = (536, 67);
type = Stem;
}
);
layerId = m01;
shapes = (
{
closed = 1;
nodes = (
(64,0,l),
(131,0,l),
(131,350,l),
(536,350,l),
(536,0,l),
(603,0,l),
(603,715,l),
(536,715,l),
(536,406,l),
(131,406,l),
(131,715,l),
(64,715,l)
);
}
);
width = 667;
}
);
note = H;
unicode = 72;
},
{
glyphname = I;
layers = (
{
hints = (
{
horizontal = 1;
place = (0, 21);
target = up;
type = BottomGhost;
},
{
horizontal = 1;
place = (715, -20);
target = down;
type = TopGhost;
},
{
place = (67, 67);
place = (67, 67);
type = Stem;
}
);
layerId = m01;
shapes = (
{
closed = 1;
nodes = (
(67,0,l),
(134,0,l),
(134,715,l),
(67,715,l)
);
}
);
width = 202;
}
);
note = I;
unicode = 73;
},
{
glyphname = J;
kernLeft = J;
kernRight = J;
layers = (
{
hints = (
{
horizontal = 1;
place = (-13, 57);
place = (-13, 57);
type = Stem;
},
{
horizontal = 1;
place = (715, -20);
target = down;
type = TopGhost;
},
{
place = (22, 66);
place = (22, 66);
type = Stem;
},
{
place = (349, 67);
place = (349, 67);
type = Stem;
}
);
layerId = m01;
shapes = (
{
closed = 1;
nodes = (
(354,-13,o),
(416,66,o),
(416,171,cs),
(416,715,l),
(349,715,l),
(349,176,ls),
(349,84,o),
(303,44,o),
(226,44,cs),
(135,44,o),
(88,85,o),
(88,202,cs),
(88,226,l),
(22,226,l),
(22,199,ls),
(22,52,o),
(98,-13,o),
(224,-13,cs)
);
}
);
width = 475;
}
);
note = J;
unicode = 74;
},
{
glyphname = K;
kernRight = K;
layers = (
{
hints = (
{
horizontal = 1;
place = (0, 21);
target = up;
type = BottomGhost;
},
{
horizontal = 1;
place = (715, -20);
target = down;
type = TopGhost;
},
{
place = (64, 67);
place = (64, 67);
type = Stem;
}
);
layerId = m01;
shapes = (
{
closed = 1;
nodes = (
(64,0,l),
(131,0,l),
(131,252,l),
(259,378,l),
(542,0,l),
(622,0,l),
(305,424,l),
(604,715,l),
(517,715,l),
(131,334,l),
(131,715,l),
(64,715,l)
);
}
);
width = 625;
}
);
note = K;
unicode = 75;
},
{
glyphname = L;
kernRight = L;
layers = (
{
hints = (
{
horizontal = 1;
place = (0, 62);
place = (0, 62);
type = Stem;
},
{
horizontal = 1;
place = (715, -20);
target = down;
type = TopGhost;
},
{
place = (64, 67);
place = (64, 67);
type = Stem;
}
);
layerId = m01;
shapes = (
{
closed = 1;
nodes = (
(64,0,l),
(512,0,l),
(512,62,l),
(131,62,l),
(131,715,l),
(64,715,l)
);
}
);
width = 536;
}
);
note = L;
unicode = 76;
},
{
glyphname = M;
layers = (
{
hints = (
{
horizontal = 1;
place = (0, 21);
target = up;
type = BottomGhost;
},
{
horizontal = 1;
place = (623, 92);
place = (623, 92);
type = Stem;
},
{
place = (64, 62);
place = (64, 62);
type = Stem;
},
{
place = (674, 65);
place = (674, 65);
type = Stem;
},
{
horizontal = 1;
place = (0, 91);
place = (0, 91);
type = Stem;
}
);
layerId = m01;
shapes = (
{
closed = 1;
nodes = (
(64,0,l),
(126,0,l),
(126,623,l),
(128,623,l),
(128,623,o),
(148,563,o),
(163,526,cs),
(372,0,l),
(431,0,l),
(638,526,ls),
(653,566,o),
(672,623,o),
(672,623,c),
(674,623,l),
(674,0,l),
(739,0,l),
(739,715,l),
(645,715,l),
(404,91,l),
(402,91,l),
(155,715,l),
(64,715,l)
);
}
);
width = 803;
}
);
note = M;
unicode = 77;
},
{
glyphname = N;
layers = (
{
hints = (
{
horizontal = 1;
place = (0, 21);
target = up;
type = BottomGhost;
},
{
horizontal = 1;
place = (715, -20);
target = down;
type = TopGhost;
},
{
place = (64, 64);
place = (64, 64);
type = Stem;
},
{
place = (539, 64);
place = (539, 64);
type = Stem;
},
{
horizontal = 1;
place = (617, 98);
place = (617, 98);
type = Stem;
},
{
horizontal = 1;
place = (0, 95);
place = (0, 95);
type = Stem;
}
);
layerId = m01;
shapes = (
{
closed = 1;
nodes = (
(64,0,l),
(128,0,l),
(128,617,l),
(130,617,l),
(130,617,o),
(172,546,o),
(205,496,cs),
(533,0,l),
(603,0,l),
(603,715,l),
(539,715,l),
(539,95,l),
(537,95,l),
(537,95,o),
(502,159,o),
(466,213,cs),
(137,715,l),
(64,715,l)
);
}
);
width = 667;
}
);
note = N;
unicode = 78;
},
{
glyphname = O;
kernLeft = C;
kernRight = O;
layers = (
{
hints = (
{
horizontal = 1;
place = (-14, 60);
place = (-14, 60);
type = Stem;
},
{
horizontal = 1;
place = (670, 60);
place = (670, 60);
type = Stem;
},
{
place = (36, 70);
place = (36, 70);
type = Stem;
},
{
place = (632, 70);
place = (632, 70);
type = Stem;
}
);
layerId = m01;
shapes = (
{
closed = 1;
nodes = (
(197,46,o),
(106,185,o),
(106,358,cs),
(106,531,o),
(197,670,o),
(368,670,cs),
(540,670,o),
(632,531,o),
(632,358,cs),
(632,185,o),
(540,46,o),
(368,46,cs)
);
},
{
closed = 1;
nodes = (
(571,-14,o),
(702,145,o),
(702,358,cs),
(702,571,o),
(571,730,o),
(368,730,cs),
(166,730,o),
(36,571,o),
(36,358,cs),
(36,145,o),
(166,-14,o),
(368,-14,cs)
);
}
);
width = 738;
}
);
note = O;
unicode = 79;
},
{
glyphname = P;
kernRight = P;
layers = (
{
hints = (
{
horizontal = 1;
place = (0, 21);
target = up;
type = BottomGhost;
},
{
horizontal = 1;
place = (311, 57);
place = (311, 57);
type = Stem;
},
{
horizontal = 1;
place = (656, 59);
place = (656, 59);
type = Stem;
},
{
place = (64, 67);
place = (64, 67);
type = Stem;
},
{
place = (495, 68);
place = (495, 68);
type = Stem;
}
);
layerId = m01;
shapes = (
{
closed = 1;
nodes = (
(64,0,l),
(131,0,l),
(131,311,l),
(336,311,ls),
(486,311,o),
(563,383,o),
(563,515,cs),
(563,574,o),
(545,619,o),
(513,653,cs),
(475,693,o),
(423,715,o),
(345,715,cs),
(64,715,l)
);
},
{
closed = 1;
nodes = (
(131,368,l),
(131,656,l),
(337,656,ls),
(440,656,o),
(495,605,o),
(495,513,cs),
(495,423,o),
(447,368,o),
(331,368,cs)
);
}
);
width = 586;
}
);
note = P;
unicode = 80;
},
{
glyphname = Q;
kernLeft = C;
kernRight = Q;
layers = (
{
hints = (
{
horizontal = 1;
place = (-14, 60);
place = (-14, 60);
type = Stem;
},
{
horizontal = 1;
place = (670, 60);
place = (670, 60);
type = Stem;
},
{
place = (36, 70);
place = (36, 70);
type = Stem;
},
{
place = (632, 70);
place = (632, 70);
type = Stem;
},
{
horizontal = 1;
place = (-3, 21);
target = up;
type = BottomGhost;
}
);
layerId = m01;
shapes = (
{
closed = 1;
nodes = (
(197,46,o),
(106,185,o),
(106,358,cs),
(106,531,o),
(197,670,o),
(368,670,cs),
(540,670,o),
(632,531,o),
(632,358,cs),
(632,257,o),
(602,169,o),
(543,113,c),
(453,186,l),
(417,141,l),
(494,77,l),
(459,57,o),
(417,46,o),
(368,46,cs)
);
},
{
closed = 1;
nodes = (
(649,-49,l),
(686,-3,l),
(592,73,l),
(662,140,o),
(702,240,o),
(702,358,cs),
(702,571,o),
(571,730,o),
(368,730,cs),
(166,730,o),
(36,571,o),
(36,358,cs),
(36,145,o),
(166,-14,o),
(368,-14,cs),
(436,-14,o),
(496,4,o),
(545,36,c)
);
}
);
width = 738;
}
);
note = Q;
unicode = 81;
},
{
glyphname = R;
kernRight = R;
layers = (
{
hints = (
{
horizontal = 1;
place = (0, 21);
target = up;
type = BottomGhost;
},
{
horizontal = 1;
place = (319, 57);
place = (319, 57);
type = Stem;
},
{
horizontal = 1;
place = (656, 59);
place = (656, 59);
type = Stem;
},
{
place = (64, 67);
place = (64, 67);
type = Stem;
},
{
place = (517, 69);
place = (517, 69);
type = Stem;
}
);
layerId = m01;
shapes = (
{
closed = 1;
nodes = (
(64,0,l),
(131,0,l),
(131,319,l),
(349,319,ls),
(453,319,o),
(496,284,o),
(502,160,cs),
(508,38,o),
(512,11,o),
(528,0,c),
(600,0,l),
(600,4,l),
(587,13,o),
(574,42,o),
(569,157,cs),
(564,268,o),
(540,322,o),
(466,347,c),
(466,350,l),
(548,376,o),
(586,434,o),
(586,522,cs),
(586,641,o),
(512,715,o),
(383,715,cs),
(64,715,l)
);
},
{
closed = 1;
nodes = (
(131,376,l),
(131,656,l),
(369,656,ls),
(477,656,o),
(517,605,o),
(517,516,cs),
(517,427,o),
(464,376,o),
(360,376,cs)
);
}
);
width = 631;
}
);
note = R;
unicode = 82;
},
{
glyphname = S;
kernLeft = Scaron;
kernRight = Scaron;
layers = (
{
hints = (
{
horizontal = 1;
place = (-13, 56);
place = (-13, 56);
type = Stem;
},
{
horizontal = 1;
place = (673, 56);
place = (673, 56);
type = Stem;
},
{
place = (51, 65);
place = (51, 65);
type = Stem;
},
{
place = (496, 68);
place = (496, 68);
type = Stem;
}
);
layerId = m01;
shapes = (
{
closed = 1;
nodes = (
(462,-13,o),
(564,69,o),
(564,196,cs),
(564,346,o),
(449,380,o),
(310,407,cs),
(182,431,o),
(116,457,o),
(116,542,cs),
(116,621,o),
(182,673,o),
(291,673,cs),
(393,673,o),
(465,621,o),
(477,520,c),
(542,520,l),
(529,643,o),
(449,729,o),
(290,729,cs),
(147,729,o),
(51,654,o),
(51,540,cs),
(51,415,o),
(144,375,o),
(276,349,cs),
(429,318,o),
(496,294,o),
(496,193,cs),
(496,96,o),
(418,43,o),
(313,43,cs),
(179,43,o),
(97,111,o),
(90,232,c),
(23,232,l),
(31,93,o),
(124,-13,o),
(312,-13,cs)
);
}
);
width = 599;
}
);
note = S;
unicode = 83;
},
{
glyphname = T;
kernLeft = T;
kernRight = T;
layers = (
{
hints = (
{
horizontal = 1;
place = (0, 21);
target = up;
type = BottomGhost;
},
{
horizontal = 1;
place = (655, 60);
place = (655, 60);
type = Stem;
},
{
place = (261, 67);
place = (261, 67);
type = Stem;
}
);
layerId = m01;
shapes = (
{
closed = 1;
nodes = (
(261,0,l),
(328,0,l),
(328,655,l),
(569,655,l),
(569,715,l),
(19,715,l),
(19,655,l),
(261,655,l)
);
}
);
width = 588;
}
);
note = T;
unicode = 84;
},
{
glyphname = U;
kernLeft = U;
kernRight = U;
layers = (
{
hints = (
{
horizontal = 1;
place = (-11, 58);
place = (-11, 58);
type = Stem;
},
{
horizontal = 1;
place = (715, -20);
target = down;
type = TopGhost;
},
{
place = (56, 67);
place = (56, 67);
type = Stem;
},
{
place = (514, 67);
place = (514, 67);
type = Stem;
}
);
layerId = m01;
shapes = (
{
closed = 1;
nodes = (
(471,-11,o),
(581,61,o),
(581,227,cs),
(581,715,l),
(514,715,l),
(514,233,ls),
(514,101,o),
(438,47,o),
(319,47,cs),
(194,47,o),
(123,101,o),
(123,233,cs),
(123,715,l),
(56,715,l),
(56,227,ls),
(56,63,o),
(160,-11,o),
(316,-11,cs)
);
}
);
width = 636;
}
);
note = U;
unicode = 85;
},
{
glyphname = V;
kernLeft = V;
kernRight = V;
layers = (
{
hints = (
{
horizontal = 1;
place = (0, 21);
target = up;
type = BottomGhost;
},
{
horizontal = 1;
place = (715, -20);
target = down;
type = TopGhost;
},
{
place = (8, 588);
place = (8, 588);
type = Stem;
},
{
horizontal = 1;
place = (0, 69);
place = (0, 69);
type = Stem;
}
);
layerId = m01;
shapes = (
{
closed = 1;
nodes = (
(264,0,l),
(337,0,l),
(596,715,l),
(528,715,l),
(342,190,ls),
(326,146,o),
(303,69,o),
(303,69,c),
(301,69,l),
(301,69,o),
(279,143,o),
(263,187,cs),
(78,715,l),
(8,715,l)
);
}
);
width = 604;
}
);
note = V;
unicode = 86;
},
{
glyphname = W;
kernLeft = W;
kernRight = W;
layers = (
{
hints = (
{
horizontal = 1;
place = (0, 21);
target = up;
type = BottomGhost;
},
{
horizontal = 1;
place = (715, -20);
target = down;
type = TopGhost;
},
{
place = (12, 856);
place = (12, 856);
type = Stem;
},
{
horizontal = 1;
place = (637, 78);
place = (637, 78);
type = Stem;
},
{
horizontal = 1;
place = (0, 92);
place = (0, 92);
type = Stem;
}
);
layerId = m01;
shapes = (
{
closed = 1;
nodes = (
(202,0,l),
(273,0,l),
(413,521,ls),
(425,567,o),
(440,637,o),
(440,637,c),
(442,637,l),
(442,637,o),
(457,566,o),
(470,521,cs),
(606,0,l),
(674,0,l),
(868,715,l),
(801,715,l),
(676,233,ls),
(663,180,o),
(643,92,o),
(643,92,c),
(641,92,l),
(641,92,o),
(621,179,o),
(608,230,cs),
(477,715,l),
(405,715,l),
(274,229,ls),
(260,178,o),
(240,92,o),
(240,92,c),
(238,92,l),
(238,92,o),
(219,180,o),
(205,233,cs),
(81,715,l),
(12,715,l)
);
}
);
width = 880;
}
);
note = W;
unicode = 87;
},
{
glyphname = X;
kernLeft = X;
kernRight = X;
layers = (
{
hints = (
{
horizontal = 1;
place = (0, 21);
target = up;
type = BottomGhost;
},
{
horizontal = 1;
place = (715, -20);
target = down;
type = TopGhost;
},
{
place = (12, 566);
place = (12, 566);
type = Stem;
}
);
layerId = m01;
shapes = (
{
closed = 1;
nodes = (
(12,0,l),
(88,0,l),
(294,316,l),
(296,316,l),
(499,0,l),
(578,0,l),
(336,364,l),
(567,715,l),
(493,715,l),
(300,413,l),
(298,413,l),
(103,715,l),
(26,715,l),
(258,365,l)
);
}
);
width = 590;
}
);
note = X;
unicode = 88;
},
{
glyphname = Y;
kernLeft = Yacute;
kernRight = Yacute;
layers = (
{
hints = (
{
horizontal = 1;
place = (0, 21);
target = up;
type = BottomGhost;
},
{
horizontal = 1;
place = (715, -20);
target = down;
type = TopGhost;
},
{
place = (265, 68);
place = (265, 68);
type = Stem;
}
);
layerId = m01;
shapes = (
{
closed = 1;
nodes = (
(265,0,l),
(333,0,l),
(333,310,l),
(593,715,l),
(521,715,l),
(301,369,l),
(299,369,l),
(81,715,l),
(7,715,l),
(265,312,l)
);
}
);
width = 600;
}
);
note = Y;
unicode = 89;
},
{
glyphname = Z;
kernLeft = Zcaron;
kernRight = Zcaron;
layers = (
{
hints = (
{
horizontal = 1;
place = (0, 60);
place = (0, 60);
type = Stem;
},
{
horizontal = 1;
place = (658, 57);
place = (658, 57);
type = Stem;
},
{
place = (26, 78);
place = (26, 78);
type = Stem;
},
{
place = (463, 81);
place = (463, 81);
type = Stem;
}
);
layerId = m01;
shapes = (
{
closed = 1;
nodes = (
(26,0,l),
(560,0,l),
(560,60,l),
(104,60,l),
(104,63,l),
(544,658,l),
(544,715,l),
(53,715,l),
(53,658,l),
(463,658,l),
(463,655,l),
(26,65,l)
);
}
);
width = 593;
}
);
note = Z;
unicode = 90;
},
{
glyphname = bracketleft;
kernRight = bracketleft;
layers = (
{
hints = (
{
horizontal = 1;
place = (-118, 55);
place = (-118, 55);
type = Stem;
},
{
horizontal = 1;
place = (701, 53);
place = (701, 53);
type = Stem;
},
{
place = (80, 64);
place = (80, 64);
type = Stem;
}
);
layerId = m01;
shapes = (
{
closed = 1;
nodes = (
(80,-118,l),
(255,-118,l),
(255,-63,l),
(144,-63,l),
(144,701,l),
(255,701,l),
(255,754,l),
(80,754,l)
);
}
);
width = 288;
}
);
note = bracketleft;
unicode = 91;
},
{
glyphname = backslash;
kernLeft = backslash;
kernRight = backslash;
layers = (
{
hints = (
{
horizontal = 1;
place = (0, 21);
target = up;
type = BottomGhost;
},
{
horizontal = 1;
place = (715, -20);
target = down;
type = TopGhost;
},
{
place = (16, 349);
place = (16, 349);
type = Stem;
}
);
layerId = m01;
shapes = (
{
closed = 1;
nodes = (
(300,0,l),
(365,0,l),
(81,715,l),
(16,715,l)
);
}
);
width = 381;
}
);
note = backslash;
unicode = 92;
},
{
glyphname = bracketright;
kernLeft = bracketright;
layers = (
{
hints = (
{
horizontal = 1;
place = (-118, 55);
place = (-118, 55);
type = Stem;
},
{
horizontal = 1;
place = (701, 53);
place = (701, 53);
type = Stem;
},
{
place = (144, 64);
place = (144, 64);
type = Stem;
}
);
layerId = m01;
shapes = (
{
closed = 1;
nodes = (
(33,-118,l),
(208,-118,l),
(208,754,l),
(33,754,l),
(33,701,l),
(144,701,l),
(144,-63,l),
(33,-63,l)
);
}
);
width = 288;
}
);
note = bracketright;
unicode = 93;
},
{
glyphname = asciicircum;
layers = (
{
hints = (
{
horizontal = 1;
place = (666, 49);
place = (666, 49);
type = Stem;
},
{
place = (12, 386);
place = (12, 386);
type = Stem;
}
);
layerId = m01;
shapes = (
{
closed = 1;
nodes = (
(12,446,l),
(77,446,l),
(204,666,l),
(206,666,l),
(332,446,l),
(398,446,l),
(241,715,l),
(169,715,l)
);
}
);
width = 410;
}
);
note = asciicircum;
unicode = 94;
},
{
glyphname = underscore;
layers = (
{
hints = (
{
horizontal = 1;
place = (-166, 49);
place = (-166, 49);
type = Stem;
},
{
place = (-2, 388);
place = (-2, 388);
type = Stem;
}
);
layerId = m01;
shapes = (
{
closed = 1;
nodes = (
(-2,-166,l),
(386,-166,l),
(386,-117,l),
(-2,-117,l)
);
}
);
width = 384;
}
);
note = underscore;
unicode = 95;
},
{
glyphname = grave;
layers = (
{
hints = (
{
horizontal = 1;
place = (592, 127);
place = (592, 127);
type = Stem;
},
{
place = (143, 148);
place = (143, 148);
type = Stem;
}
);
layerId = m01;
shapes = (
{
closed = 1;
nodes = (
(237,592,l),
(291,592,l),
(225,719,l),
(143,719,l)
);
}
);
width = 500;
}
);
note = grave;
unicode = 96;
},
{
glyphname = a;
kernLeft = a;
kernRight = a;
layers = (
{
hints = (
{
horizontal = 1;
place = (-12, 50);
place = (-12, 50);
type = Stem;
},
{
horizontal = 1;
place = (478, 50);
place = (478, 50);
type = Stem;
},
{
place = (23, 65);
place = (23, 65);
type = Stem;
},
{
place = (376, 58);
place = (376, 58);
type = Stem;
},
{
horizontal = 1;
place = (-7, 49);
place = (-7, 49);
type = Stem;
}
);
layerId = m01;
shapes = (
{
closed = 1;
nodes = (
(291,-12,o),
(344,36,o),
(373,77,c),
(376,77,l),
(376,66,ls),
(379,16,o),
(407,-7,o),
(452,-7,cs),
(472,-7,o),
(485,-3,o),
(494,1,c),
(494,46,l),
(491,46,l),
(482,44,o),
(475,42,o),
(468,42,cs),
(446,43,o),
(434,56,o),
(434,87,cs),
(434,368,ls),
(434,481,o),
(364,528,o),
(251,528,cs),
(118,528,o),
(52,463,o),
(45,363,c),
(106,363,l),
(111,440,o),
(159,478,o),
(251,478,cs),
(331,478,o),
(375,444,o),
(375,374,cs),
(375,364,ls),
(375,312,o),
(338,306,o),
(236,294,cs),
(119,280,o),
(23,255,o),
(23,132,cs),
(23,36,o),
(96,-12,o),
(192,-12,cs)
);
},
{
closed = 1;
nodes = (
(142,38,o),
(88,60,o),
(88,132,cs),
(88,221,o),
(155,234,o),
(242,246,cs),
(292,253,o),
(343,262,o),
(376,280,c),
(376,187,ls),
(376,116,o),
(316,38,o),
(203,38,cs)
);
}
);
width = 499;
}
);
note = a;
unicode = 97;
},
{
glyphname = b;
kernLeft = b;
kernRight = thorn;
layers = (
{
hints = (
{
horizontal = 1;
place = (-14, 52);
place = (-14, 52);
type = Stem;
},
{
horizontal = 1;
place = (476, 52);
place = (476, 52);
type = Stem;
},
{
horizontal = 1;
place = (715, -20);
target = down;
type = TopGhost;
},
{
place = (52, 62);
place = (52, 62);
type = Stem;
},
{
place = (441, 63);
place = (441, 63);
type = Stem;
},
{
horizontal = 1;
place = (0, 21);
target = up;
type = BottomGhost;
}
);
layerId = m01;
shapes = (
{
closed = 1;
nodes = (
(423,-14,o),
(504,98,o),
(504,257,cs),
(504,429,o),
(415,528,o),
(291,528,cs),
(209,528,o),
(152,488,o),
(116,428,c),
(114,428,l),
(114,715,l),
(52,715,l),
(52,0,l),
(114,0,l),
(114,78,l),
(116,78,l),
(156,17,o),
(208,-14,o),
(287,-14,cs)
);
},
{
closed = 1;
nodes = (
(169,38,o),
(109,127,o),
(109,256,cs),
(109,379,o),
(169,476,o),
(283,476,cs),
(386,476,o),
(441,385,o),
(441,256,cs),
(441,135,o),
(390,38,o),
(284,38,cs)
);
}
);
width = 530;
}
);
note = b;
unicode = 98;
},
{
glyphname = c;
kernLeft = c;
kernRight = c;
layers = (
{
hints = (
{
horizontal = 1;
place = (-13, 53);
place = (-13, 53);
type = Stem;
},
{
horizontal = 1;
place = (477, 52);
place = (477, 52);
type = Stem;
},
{
place = (25, 64);
place = (25, 64);
type = Stem;
}
);
layerId = m01;
shapes = (
{
closed = 1;
nodes = (
(383,-13,o),
(460,61,o),
(472,178,c),
(413,178,l),
(403,95,o),
(348,40,o),
(260,40,cs),
(143,40,o),
(89,138,o),
(89,258,cs),
(89,378,o),
(142,477,o),
(261,477,cs),
(341,477,o),
(392,438,o),
(407,361,c),
(469,361,l),
(452,467,o),
(375,529,o),
(261,529,cs),
(111,529,o),
(25,412,o),
(25,258,cs),
(25,104,o),
(109,-13,o),
(260,-13,cs)
);
}
);
width = 491;
}
);
note = c;
unicode = 99;
},
{
glyphname = d;
kernLeft = d;
kernRight = d;
layers = (
{
hints = (
{
horizontal = 1;
place = (-14, 52);
place = (-14, 52);
type = Stem;
},
{
horizontal = 1;
place = (476, 52);
place = (476, 52);
type = Stem;
},
{
horizontal = 1;
place = (715, -20);
target = down;
type = TopGhost;
},
{
place = (25, 64);
place = (25, 64);
type = Stem;
},
{
place = (418, 62);
place = (418, 62);
type = Stem;
},
{
horizontal = 1;
place = (0, 21);
target = up;
type = BottomGhost;
}
);
layerId = m01;
shapes = (
{
closed = 1;
nodes = (
(326,-14,o),
(378,18,o),
(416,77,c),
(418,77,l),
(418,0,l),
(480,0,l),
(480,715,l),
(418,715,l),
(418,431,l),
(416,431,l),
(383,491,o),
(325,528,o),
(246,528,cs),
(123,528,o),
(25,429,o),
(25,257,cs),
(25,98,o),
(109,-14,o),
(248,-14,cs)
);
},
{
closed = 1;
nodes = (
(141,38,o),
(89,135,o),
(89,256,cs),
(89,385,o),
(148,476,o),
(250,476,cs),
(362,476,o),
(423,383,o),
(423,256,cs),
(423,127,o),
(363,38,o),
(250,38,cs)
);
}
);
width = 532;
}
);
note = d;
unicode = 100;
},
{
glyphname = e;
kernLeft = c;
kernRight = e;
layers = (
{
hints = (
{
horizontal = 1;
place = (-13, 53);
place = (-13, 53);
type = Stem;
},
{
horizontal = 1;
place = (247, 49);
place = (247, 49);
type = Stem;
},
{
horizontal = 1;
place = (478, 51);
place = (478, 51);
type = Stem;
},
{
place = (25, 64);
place = (25, 64);
type = Stem;
},
{
place = (418, 65);
place = (418, 65);
type = Stem;
}
);
layerId = m01;
shapes = (
{
closed = 1;
nodes = (
(382,-13,o),
(455,54,o),
(477,156,c),
(417,156,l),
(397,86,o),
(352,40,o),
(266,40,cs),
(148,40,o),
(92,131,o),
(89,247,c),
(483,247,l),
(484,392,o),
(427,529,o),
(261,529,cs),
(118,529,o),
(25,413,o),
(25,258,cs),
(25,103,o),
(111,-13,o),
(266,-13,cs)
);
},
{
closed = 1;
nodes = (
(90,296,l),
(101,399,o),
(156,478,o),
(261,478,cs),
(367,478,o),
(415,398,o),
(418,296,c)
);
}
);
width = 508;
}
);
note = e;
unicode = 101;
},
{
glyphname = f;
kernLeft = f;
kernRight = f;
layers = (
{
hints = (
{
horizontal = 1;
place = (0, 21);
target = up;
type = BottomGhost;
},
{
horizontal = 1;
place = (466, 51);
place = (466, 51);
type = Stem;
},
{
horizontal = 1;
place = (666, 54);
place = (666, 54);
type = Stem;
},
{
place = (91, 61);
place = (91, 61);
type = Stem;
}
);
layerId = m01;
shapes = (
{
closed = 1;
nodes = (
(91,0,l),
(152,0,l),
(152,466,l),
(248,466,l),
(248,517,l),
(152,517,l),
(152,607,ls),
(152,646,o),
(168,666,o),
(220,666,cs),
(247,666,l),
(247,719,l),
(243,719,o),
(219,720,o),
(212,720,cs),
(133,720,o),
(91,686,o),
(91,609,cs),
(91,517,l),
(16,517,l),
(16,466,l),
(91,466,l)
);
}
);
width = 269;
}
);
note = f;
unicode = 102;
},
{
glyphname = g;
kernLeft = g;
kernRight = g;
layers = (
{
hints = (
{
horizontal = 1;
place = (-181, 51);
place = (-181, 51);
type = Stem;
},
{
horizontal = 1;
place = (10, 52);
place = (10, 52);
type = Stem;
},
{
horizontal = 1;
place = (476, 52);
place = (476, 52);
type = Stem;
},
{
place = (25, 64);
place = (25, 64);
type = Stem;
},
{
place = (414, 61);
place = (414, 61);
type = Stem;
},
{
horizontal = 1;
place = (517, -20);
target = down;
type = TopGhost;
}
);
layerId = m01;
shapes = (
{
closed = 1;
nodes = (
(331,-181,o),
(388,-160,o),
(427,-119,cs),
(458,-85,o),
(475,-38,o),
(475,20,cs),
(475,517,l),
(414,517,l),
(414,437,l),
(411,437,l),
(377,493,o),
(327,528,o),
(247,528,cs),
(127,528,o),
(25,436,o),
(25,268,cs),
(25,116,o),
(111,10,o),
(247,10,cs),
(325,10,o),
(373,42,o),
(411,100,c),
(414,100,l),
(414,18,ls),
(414,-73,o),
(362,-130,o),
(252,-130,cs),
(177,-130,o),
(118,-106,o),
(107,-46,c),
(47,-46,l),
(56,-123,o),
(127,-181,o),
(254,-181,cs)
);
},
{
closed = 1;
nodes = (
(141,62,o),
(89,149,o),
(89,267,cs),
(89,393,o),
(149,476,o),
(251,476,cs),
(364,476,o),
(418,391,o),
(418,269,cs),
(418,145,o),
(365,62,o),
(250,62,cs)
);
}
);
width = 527;
}
);
note = g;
unicode = 103;
},
{
glyphname = h;
kernLeft = b;
kernRight = h;
layers = (
{
hints = (
{
horizontal = 1;
place = (0, 21);
target = up;
type = BottomGhost;
},
{
horizontal = 1;
place = (475, 53);
place = (475, 53);
type = Stem;
},
{
horizontal = 1;
place = (715, -20);
target = down;
type = TopGhost;
},
{
place = (55, 62);
place = (55, 62);
type = Stem;
},
{
place = (395, 62);
place = (395, 62);
type = Stem;
}
);
layerId = m01;
shapes = (
{
closed = 1;
nodes = (
(55,0,l),
(117,0,l),
(117,328,ls),
(117,413,o),
(189,475,o),
(277,475,cs),
(350,475,o),
(395,439,o),
(395,361,cs),
(395,0,l),
(457,0,l),
(457,367,ls),
(457,471,o),
(388,528,o),
(292,528,cs),
(210,528,o),
(154,490,o),
(119,438,c),
(117,438,l),
(117,715,l),
(55,715,l)
);
}
);
width = 505;
}
);
note = h;
unicode = 104;
},
{
glyphname = i;
kernLeft = b;
kernRight = d;
layers = (
{
hints = (
{
horizontal = 1;
place = (0, 21);
target = up;
type = BottomGhost;
},
{
horizontal = 1;
place = (517, -20);
target = down;
type = TopGhost;
},
{
horizontal = 1;
place = (627, 88);
place = (627, 88);
type = Stem;
},
{
place = (54, 62);
place = (54, 62);
type = Stem;
}
);
layerId = m01;
shapes = (
{
closed = 1;
nodes = (
(54,0,l),
(116,0,l),
(116,517,l),
(54,517,l)
);
},
{
closed = 1;
nodes = (
(54,627,l),
(116,627,l),
(116,715,l),
(54,715,l)
);
}
);
width = 169;
}
);
note = i;
unicode = 105;
},
{
glyphname = j;
kernLeft = j;
kernRight = j;
layers = (
{
hints = (
{
horizontal = 1;
place = (-158, 52);
place = (-158, 52);
type = Stem;
},
{
horizontal = 1;
place = (517, -20);
target = down;
type = TopGhost;
},
{
horizontal = 1;
place = (627, 88);
place = (627, 88);
type = Stem;
},
{
place = (54, 62);
place = (54, 62);
type = Stem;
}
);
layerId = m01;
shapes = (
{
closed = 1;
nodes = (
(-20,-157,l),
(-15,-158,o),
(-2,-158,o),
(6,-158,cs),
(73,-158,o),
(116,-134,o),
(116,-50,cs),
(116,517,l),
(54,517,l),
(54,-47,ls),
(54,-89,o),
(36,-106,o),
(-2,-106,cs),
(-6,-106,o),
(-15,-106,o),
(-19,-105,cs),
(-20,-105,l)
);
},
{
closed = 1;
nodes = (
(54,627,l),
(116,627,l),
(116,715,l),
(54,715,l)
);
}
);
width = 169;
}
);
note = j;
unicode = 106;
},
{
glyphname = k;
kernLeft = b;
kernRight = k;
layers = (
{
hints = (
{
horizontal = 1;
place = (0, 21);
target = up;
type = BottomGhost;
},
{
horizontal = 1;
place = (517, -20);
target = down;
type = TopGhost;
},
{
horizontal = 1;
place = (715, -20);
target = down;
type = TopGhost;
},
{
place = (52, 62);
place = (52, 62);
type = Stem;
}
);
layerId = m01;
shapes = (
{
closed = 1;
nodes = (
(52,0,l),
(114,0,l),
(114,199,l),
(209,290,l),
(402,0,l),
(474,0,l),
(252,330,l),
(450,517,l),
(371,517,l),
(114,268,l),
(114,715,l),
(52,715,l)
);
}
);
width = 476;
}
);
note = k;
unicode = 107;
},
{
glyphname = l;
kernLeft = b;
kernRight = d;
layers = (
{
hints = (
{
horizontal = 1;
place = (0, 21);
target = up;
type = BottomGhost;
},
{
horizontal = 1;
place = (715, -20);
target = down;
type = TopGhost;
},
{
place = (55, 62);
place = (55, 62);
type = Stem;
}
);
layerId = m01;
shapes = (
{
closed = 1;
nodes = (
(55,0,l),
(117,0,l),
(117,715,l),
(55,715,l)
);
}
);
width = 172;
}
);
note = l;
unicode = 108;
},
{
glyphname = m;
kernLeft = m;
kernRight = h;
layers = (
{
hints = (
{
horizontal = 1;
place = (0, 21);
target = up;
type = BottomGhost;
},
{
horizontal = 1;
place = (475, 53);
place = (475, 53);
type = Stem;
},
{
place = (52, 62);
place = (52, 62);
type = Stem;
},
{
place = (363, 62);
place = (363, 62);
type = Stem;
},
{
place = (674, 61);
place = (674, 61);
type = Stem;
},
{
horizontal = 1;
place = (517, -20);
target = down;
type = TopGhost;
}
);
layerId = m01;
shapes = (
{
closed = 1;
nodes = (
(52,0,l),
(114,0,l),
(114,329,ls),
(114,413,o),
(185,475,o),
(259,475,cs),
(319,475,o),
(363,439,o),
(363,362,cs),
(363,0,l),
(425,0,l),
(425,329,ls),
(425,421,o),
(489,475,o),
(565,475,cs),
(628,475,o),
(674,439,o),
(674,362,cs),
(674,0,l),
(735,0,l),
(735,367,ls),
(735,471,o),
(667,528,o),
(579,528,cs),
(506,528,o),
(447,493,o),
(413,434,c),
(411,434,l),
(390,496,o),
(336,528,o),
(273,528,cs),
(199,528,o),
(149,491,o),
(116,439,c),
(114,439,l),
(114,517,l),
(52,517,l)
);
}
);
width = 784;
}
);
note = m;
unicode = 109;
},
{
glyphname = n;
kernLeft = m;
kernRight = h;
layers = (
{
hints = (
{
horizontal = 1;
place = (0, 21);
target = up;
type = BottomGhost;
},
{
horizontal = 1;
place = (475, 53);
place = (475, 53);
type = Stem;
},
{
place = (52, 62);
place = (52, 62);
type = Stem;
},
{
place = (392, 62);
place = (392, 62);
type = Stem;
},
{
horizontal = 1;
place = (517, -20);
target = down;
type = TopGhost;
}
);
layerId = m01;
shapes = (
{
closed = 1;
nodes = (
(52,0,l),
(114,0,l),
(114,328,ls),
(114,413,o),
(186,475,o),
(274,475,cs),
(347,475,o),
(392,439,o),
(392,361,cs),
(392,0,l),
(454,0,l),
(454,367,ls),
(454,471,o),
(385,528,o),
(289,528,cs),
(207,528,o),
(151,490,o),
(116,438,c),
(114,438,l),
(114,517,l),
(52,517,l)
);
}
);
width = 502;
}
);
note = n;
unicode = 110;
},
{
glyphname = o;
kernLeft = c;
kernRight = o;
layers = (
{
hints = (
{
horizontal = 1;
place = (-13, 52);
place = (-13, 52);
type = Stem;
},
{
horizontal = 1;
place = (477, 52);
place = (477, 52);
type = Stem;
},
{
place = (25, 64);
place = (25, 64);
type = Stem;
},
{
place = (440, 63);
place = (440, 63);
type = Stem;
}
);
layerId = m01;
shapes = (
{
closed = 1;
nodes = (
(149,39,o),
(89,137,o),
(89,258,cs),
(89,379,o),
(149,477,o),
(265,477,cs),
(380,477,o),
(440,379,o),
(440,258,cs),
(440,137,o),
(380,39,o),
(265,39,cs)
);
},
{
closed = 1;
nodes = (
(414,-13,o),
(503,104,o),
(503,258,cs),
(503,412,o),
(414,529,o),
(265,529,cs),
(116,529,o),
(25,412,o),
(25,258,cs),
(25,104,o),
(116,-13,o),
(265,-13,cs)
);
}
);
width = 529;
}
);
note = o;
unicode = 111;
},
{
glyphname = p;
kernLeft = p;
kernRight = thorn;
layers = (
{
hints = (
{
horizontal = 1;
place = (-166, 21);
target = up;
type = BottomGhost;
},
{
horizontal = 1;
place = (-13, 52);
place = (-13, 52);
type = Stem;
},
{
horizontal = 1;
place = (476, 52);
place = (476, 52);
type = Stem;
},
{
place = (52, 62);
place = (52, 62);
type = Stem;
},
{
place = (442, 63);
place = (442, 63);
type = Stem;
},
{
horizontal = 1;
place = (517, -20);
target = down;
type = TopGhost;
}
);
layerId = m01;
shapes = (
{
closed = 1;
nodes = (
(52,-166,l),
(114,-166,l),
(114,75,l),
(116,75,l),
(155,18,o),
(208,-13,o),
(287,-13,cs),
(423,-13,o),
(505,99,o),
(505,258,cs),
(505,430,o),
(415,528,o),
(291,528,cs),
(209,528,o),
(152,489,o),
(116,428,c),
(114,428,l),
(114,517,l),
(52,517,l)
);
},
{
closed = 1;
nodes = (
(166,39,o),
(109,129,o),
(109,256,cs),
(109,379,o),
(169,476,o),
(283,476,cs),
(386,476,o),
(442,386,o),
(442,257,cs),
(442,137,o),
(390,39,o),
(284,39,cs)
);
}
);
width = 530;
}
);
note = p;
unicode = 112;
},
{
glyphname = q;
kernLeft = d;
kernRight = q;
layers = (
{
hints = (
{
horizontal = 1;
place = (-166, 21);
target = up;
type = BottomGhost;
},
{
horizontal = 1;
place = (-13, 52);
place = (-13, 52);
type = Stem;
},
{
horizontal = 1;
place = (476, 52);
place = (476, 52);
type = Stem;
},
{
place = (27, 63);
place = (27, 63);
type = Stem;
},
{
place = (418, 62);
place = (418, 62);
type = Stem;
},
{
horizontal = 1;
place = (517, -20);
target = down;
type = TopGhost;
}
);
layerId = m01;
shapes = (
{
closed = 1;
nodes = (
(418,-166,l),
(480,-166,l),
(480,517,l),
(418,517,l),
(418,435,l),
(416,435,l),
(381,492,o),
(327,528,o),
(247,528,cs),
(125,528,o),
(27,429,o),
(27,257,cs),
(27,98,o),
(108,-13,o),
(247,-13,cs),
(325,-13,o),
(377,19,o),
(416,77,c),
(418,77,l)
);
},
{
closed = 1;
nodes = (
(140,39,o),
(90,135,o),
(90,256,cs),
(90,385,o),
(148,476,o),
(251,476,cs),
(365,476,o),
(423,383,o),
(423,256,cs),
(423,127,o),
(364,39,o),
(250,39,cs)
);
}
);
width = 532;
}
);
note = q;
unicode = 113;
},
{
glyphname = r;
kernLeft = m;
kernRight = r;
layers = (
{
hints = (
{
horizontal = 1;
place = (0, 21);
target = up;
type = BottomGhost;
},
{
horizontal = 1;
place = (458, 63);
place = (458, 63);
type = Stem;
},
{
place = (52, 62);
place = (52, 62);
type = Stem;
},
{
horizontal = 1;
place = (517, -20);
target = down;
type = TopGhost;
}
);
layerId = m01;
shapes = (
{
closed = 1;
nodes = (
(52,0,l),
(114,0,l),
(114,294,ls),
(114,355,o),
(141,403,o),
(181,433,cs),
(213,456,o),
(254,464,o),
(291,458,c),
(291,519,l),
(287,520,o),
(282,521,o),
(274,521,cs),
(202,521,o),
(148,481,o),
(116,421,c),
(114,421,l),
(114,517,l),
(52,517,l)
);
}
);
width = 308;
}
);
note = r;
unicode = 114;
},
{
glyphname = s;
kernLeft = scaron;
kernRight = scaron;
layers = (
{
hints = (
{
horizontal = 1;
place = (-14, 53);
place = (-14, 53);
type = Stem;
},
{
horizontal = 1;
place = (477, 51);
place = (477, 51);
type = Stem;
},
{
place = (38, 62);
place = (38, 62);
type = Stem;
},
{
place = (365, 62);
place = (365, 62);
type = Stem;
}
);
layerId = m01;
shapes = (
{
closed = 1;
nodes = (
(353,-14,o),
(427,48,o),
(427,140,cs),
(427,247,o),
(352,273,o),
(248,295,cs),
(149,318,o),
(100,332,o),
(100,391,cs),
(100,439,o),
(138,477,o),
(218,477,cs),
(295,477,o),
(341,442,o),
(348,375,c),
(410,375,l),
(398,466,o),
(341,528,o),
(218,528,cs),
(112,528,o),
(38,474,o),
(38,388,cs),
(38,288,o),
(122,263,o),
(227,239,cs),
(333,215,o),
(365,196,o),
(365,139,cs),
(365,79,o),
(320,39,o),
(234,39,cs),
(151,39,o),
(91,74,o),
(82,161,c),
(19,161,l),
(25,61,o),
(95,-14,o),
(233,-14,cs)
);
}
);
width = 451;
}
);
note = s;
unicode = 115;
},
{
glyphname = t;
kernLeft = t;
kernRight = t;
layers = (
{
hints = (
{
horizontal = 1;
place = (-4, 54);
place = (-4, 54);
type = Stem;
},
{
horizontal = 1;
place = (466, 51);
place = (466, 51);
type = Stem;
},
{
place = (95, 62);
place = (95, 62);
type = Stem;
}
);
layerId = m01;
shapes = (
{
closed = 1;
nodes = (
(216,-4,o),
(234,-1,o),
(251,5,c),
(251,58,l),
(248,58,l),
(239,54,o),
(221,50,o),
(207,50,cs),
(174,50,o),
(157,62,o),
(157,99,cs),
(157,466,l),
(253,466,l),
(253,517,l),
(157,517,l),
(157,676,l),
(95,676,l),
(95,517,l),
(17,517,l),
(17,466,l),
(95,466,l),
(95,89,ls),
(95,23,o),
(135,-4,o),
(194,-4,cs)
);
}
);
width = 282;
}
);
note = t;
unicode = 116;
},
{
glyphname = u;
kernLeft = u;
kernRight = u;
layers = (
{
hints = (
{
horizontal = 1;
place = (-12, 52);
place = (-12, 52);
type = Stem;
},
{
horizontal = 1;
place = (517, -20);
target = down;
type = TopGhost;
},
{
place = (48, 62);
place = (48, 62);
type = Stem;
},
{
place = (382, 61);
place = (382, 61);
type = Stem;
},
{
horizontal = 1;
place = (0, 21);
target = up;
type = BottomGhost;
}
);
layerId = m01;
shapes = (
{
closed = 1;
nodes = (
(300,-12,o),
(344,26,o),
(380,76,c),
(382,76,l),
(382,0,l),
(443,0,l),
(443,517,l),
(382,517,l),
(382,194,ls),
(382,106,o),
(320,40,o),
(232,40,cs),
(157,40,o),
(110,78,o),
(110,156,cs),
(110,517,l),
(48,517,l),
(48,152,ls),
(48,48,o),
(118,-12,o),
(218,-12,cs)
);
}
);
width = 495;
}
);
note = u;
unicode = 117;
},
{
glyphname = v;
kernLeft = v;
kernRight = v;
layers = (
{
hints = (
{
horizontal = 1;
place = (0, 21);
target = up;
type = BottomGhost;
},
{
horizontal = 1;
place = (517, -20);
target = down;
type = TopGhost;
},
{
place = (6, 443);
place = (6, 443);
type = Stem;
},
{
horizontal = 1;
place = (0, 58);
place = (0, 58);
type = Stem;
}
);
layerId = m01;
shapes = (
{
closed = 1;
nodes = (
(189,0,l),
(262,0,l),
(449,517,l),
(386,517,l),
(270,189,ls),
(253,139,o),
(227,58,o),
(227,58,c),
(225,58,l),
(225,58,o),
(200,139,o),
(183,189,cs),
(72,517,l),
(6,517,l)
);
}
);
width = 456;
}
);
note = v;
unicode = 118;
},
{
glyphname = w;
kernLeft = w;
kernRight = w;
layers = (
{
hints = (
{
horizontal = 1;
place = (0, 62);
place = (0, 62);
type = Stem;
},
{
horizontal = 1;
place = (517, -20);
target = down;
type = TopGhost;
},
{
place = (10, 691);
place = (10, 691);
type = Stem;
},
{
horizontal = 1;
place = (447, 70);
place = (447, 70);
type = Stem;
}
);
layerId = m01;
shapes = (
{
closed = 1;
nodes = (
(164,0,l),
(234,0,l),
(325,330,ls),
(338,379,o),
(352,447,o),
(352,447,c),
(354,447,l),
(354,447,o),
(368,379,o),
(381,330,cs),
(470,0,l),
(538,0,l),
(701,517,l),
(638,517,l),
(542,197,ls),
(527,147,o),
(506,62,o),
(506,62,c),
(504,62,l),
(504,62,o),
(485,145,o),
(473,192,cs),
(388,517,l),
(321,517,l),
(233,192,ls),
(220,145,o),
(200,62,o),
(200,62,c),
(198,62,l),
(198,62,o),
(179,146,o),
(165,197,cs),
(75,517,l),
(10,517,l)
);
}
);
width = 711;
}
);
note = w;
unicode = 119;
},
{
glyphname = x;
kernLeft = x;
kernRight = x;
layers = (
{
hints = (
{
horizontal = 1;
place = (0, 21);
target = up;
type = BottomGhost;
},
{
horizontal = 1;
place = (517, -20);
target = down;
type = TopGhost;
},
{
place = (8, 465);
place = (8, 465);
type = Stem;
}
);
layerId = m01;
shapes = (
{
closed = 1;
nodes = (
(8,0,l),
(78,0,l),
(237,233,l),
(239,233,l),
(400,0,l),
(473,0,l),
(275,278,l),
(443,517,l),
(373,517,l),
(238,318,l),
(236,318,l),
(101,517,l),
(29,517,l),
(202,273,l)
);
}
);
width = 481;
}
);
note = x;
unicode = 120;
},
{
glyphname = y;
kernLeft = yacute;
kernRight = yacute;
layers = (
{
hints = (
{
horizontal = 1;
place = (-171, 56);
place = (-171, 56);
type = Stem;
},
{
horizontal = 1;
place = (517, -20);
target = down;
type = TopGhost;
},
{
place = (7, 455);
place = (7, 455);
type = Stem;
},
{
horizontal = 1;
place = (-163, 21);
target = up;
type = BottomGhost;
}
);
layerId = m01;
shapes = (
{
closed = 1;
nodes = (
(173,-171,o),
(214,-147,o),
(249,-54,cs),
(462,517,l),
(398,517,l),
(279,183,ls),
(262,135,o),
(240,65,o),
(240,65,c),
(238,65,l),
(238,65,o),
(215,135,o),
(197,183,cs),
(73,517,l),
(7,517,l),
(206,1,l),
(189,-45,ls),
(170,-98,o),
(142,-115,o),
(103,-115,cs),
(79,-115,o),
(65,-111,o),
(56,-108,c),
(53,-108,l),
(53,-163,l),
(69,-168,o),
(83,-171,o),
(106,-171,cs)
);
}
);
width = 469;
}
);
note = y;
unicode = 121;
},
{
glyphname = z;
kernLeft = zcaron;
kernRight = zcaron;
layers = (
{
hints = (
{
horizontal = 1;
place = (0, 55);
place = (0, 55);
type = Stem;
},
{
horizontal = 1;
place = (463, 54);
place = (463, 54);
type = Stem;
},
{
place = (28, 77);
place = (28, 77);
type = Stem;
},
{
place = (330, 83);
place = (330, 83);
type = Stem;
}
);
layerId = m01;
shapes = (
{
closed = 1;
nodes = (
(28,0,l),
(422,0,l),
(422,55,l),
(105,55,l),
(105,58,l),
(413,473,l),
(413,517,l),
(48,517,l),
(48,463,l),
(330,463,l),
(330,460,l),
(28,53,l)
);
}
);
width = 447;
}
);
note = z;
unicode = 122;
},
{
glyphname = braceleft;
kernRight = bracketleft;
layers = (
{
hints = (
{
horizontal = 1;
place = (-118, 55);
place = (-118, 55);
type = Stem;
},
{
horizontal = 1;
place = (701, 53);
place = (701, 53);
type = Stem;
},
{
place = (93, 64);
place = (93, 64);
type = Stem;
},
{
place = (24, 77);
place = (24, 77);
type = Stem;
}
);
layerId = m01;
shapes = (
{
closed = 1;
nodes = (
(246,-118,l),
(246,-63,l),
(230,-63,ls),
(178,-63,o),
(157,-43,o),
(157,22,cs),
(157,230,ls),
(157,282,o),
(140,309,o),
(101,321,c),
(101,323,l),
(140,334,o),
(157,362,o),
(157,414,cs),
(157,615,ls),
(157,680,o),
(178,701,o),
(230,701,cs),
(246,701,l),
(246,754,l),
(228,754,ls),
(141,754,o),
(93,716,o),
(93,616,cs),
(93,418,ls),
(93,373,o),
(76,350,o),
(24,349,c),
(24,295,l),
(77,293,o),
(93,270,o),
(93,225,cs),
(93,21,ls),
(93,-78,o),
(141,-118,o),
(228,-118,cs)
);
}
);
width = 288;
}
);
note = braceleft;
unicode = 123;
},
{
glyphname = bar;
layers = (
{
hints = (
{
horizontal = 1;
place = (-118, 872);
place = (-118, 872);
type = Stem;
},
{
place = (77, 56);
place = (77, 56);
type = Stem;
}
);
layerId = m01;
shapes = (
{
closed = 1;
nodes = (
(77,-118,l),
(133,-118,l),
(133,754,l),
(77,754,l)
);
}
);
width = 210;
}
);
note = bar;
unicode = 124;
},
{
glyphname = braceright;
kernLeft = bracketright;
layers = (
{
hints = (
{
horizontal = 1;
place = (-118, 55);
place = (-118, 55);
type = Stem;
},
{
horizontal = 1;
place = (293, 55);
place = (293, 55);
type = Stem;
},
{
horizontal = 1;
place = (701, 53);
place = (701, 53);
type = Stem;
},
{
place = (131, 64);
place = (131, 64);
type = Stem;
},
{
place = (187, 77);
place = (187, 77);
type = Stem;
}
);
layerId = m01;
shapes = (
{
closed = 1;
nodes = (
(42,-118,l),
(60,-118,ls),
(147,-118,o),
(195,-80,o),
(195,20,cs),
(195,224,ls),
(195,269,o),
(211,292,o),
(264,293,c),
(264,348,l),
(210,349,o),
(195,372,o),
(195,417,cs),
(195,615,ls),
(195,714,o),
(147,754,o),
(60,754,cs),
(42,754,l),
(42,701,l),
(58,701,ls),
(109,701,o),
(131,679,o),
(131,614,cs),
(131,412,ls),
(131,361,o),
(148,333,o),
(187,322,c),
(187,319,l),
(148,308,o),
(131,280,o),
(131,229,cs),
(131,21,ls),
(131,-44,o),
(109,-63,o),
(58,-63,cs),
(42,-63,l)
);
}
);
width = 288;
}
);
note = braceright;
unicode = 125;
},
{
glyphname = asciitilde;
layers = (
{
hints = (
{
horizontal = 1;
place = (281, 58);
place = (281, 58);
type = Stem;
},
{
place = (37, 53);
place = (37, 53);
type = Stem;
},
{
place = (294, 53);
place = (294, 53);
type = Stem;
},
{
horizontal = 1;
place = (330, 58);
place = (330, 58);
type = Stem;
}
);
layerId = m01;
shapes = (
{
closed = 1;
nodes = (
(312,281,o),
(344,321,o),
(347,386,c),
(294,386,l),
(293,355,o),
(277,339,o),
(256,339,cs),
(239,339,o),
(227,346,o),
(202,360,cs),
(179,374,o),
(153,388,o),
(125,388,cs),
(76,388,o),
(41,350,o),
(37,282,c),
(90,282,l),
(92,313,o),
(106,330,o),
(126,330,cs),
(143,330,o),
(161,318,o),
(189,304,cs),
(211,292,o),
(235,281,o),
(260,281,cs)
);
}
);
width = 385;
}
);
note = asciitilde;
unicode = 126;
},
{
glyphname = Adieresis;
kernLeft = A;
kernRight = A;
layers = (
{
hints = (
{
horizontal = 1;
place = (0, 21);
target = up;
type = BottomGhost;
},
{
horizontal = 1;
place = (225, 55);
place = (225, 55);
type = Stem;
},
{
horizontal = 1;
place = (715, -20);
target = down;
type = TopGhost;
},
{
horizontal = 1;
place = (757, 86);
place = (757, 86);
type = Stem;
},
{
place = (209, 60);
place = (209, 60);
type = Stem;
},
{
place = (365, 60);
place = (365, 60);
type = Stem;
},
{
horizontal = 1;
place = (651, 64);
place = (651, 64);
type = Stem;
}
);
layerId = m01;
shapes = (
{
closed = 1;
nodes = (
(8,0,l),
(76,0,l),
(160,225,l),
(471,225,l),
(554,0,l),
(626,0,l),
(354,715,l),
(278,715,l)
);
},
{
closed = 1;
nodes = (
(180,280,l),
(280,547,ls),
(296,590,o),
(315,651,o),
(315,651,c),
(317,651,l),
(317,651,o),
(338,587,o),
(353,547,cs),
(451,280,l)
);
},
{
closed = 1;
nodes = (
(209,757,l),
(269,757,l),
(269,843,l),
(209,843,l)
);
},
{
closed = 1;
nodes = (
(365,757,l),
(425,757,l),
(425,843,l),
(365,843,l)
);
}
);
width = 634;
}
);
note = Adieresis;
unicode = 196;
},
{
glyphname = Aring;
kernLeft = A;
kernRight = A;
layers = (
{
hints = (
{
horizontal = 1;
place = (0, 21);
target = up;
type = BottomGhost;
},
{
horizontal = 1;
place = (225, 55);
place = (225, 55);
type = Stem;
},
{
horizontal = 1;
place = (715, -20);
target = down;
type = TopGhost;
},
{
horizontal = 1;
place = (880, 34);
place = (880, 34);
type = Stem;
},
{
place = (230, 39);
place = (230, 39);
type = Stem;
},
{
place = (365, 39);
place = (365, 39);
type = Stem;
},
{
horizontal = 1;
place = (651, 64);
place = (651, 64);
type = Stem;
},
{
horizontal = 1;
place = (744, 33);
place = (744, 33);
type = Stem;
}
);
layerId = m01;
shapes = (
{
closed = 1;
nodes = (
(8,0,l),
(76,0,l),
(160,225,l),
(471,225,l),
(554,0,l),
(626,0,l),
(354,715,l),
(278,715,l)
);
},
{
closed = 1;
nodes = (
(180,280,l),
(280,547,ls),
(296,590,o),
(315,651,o),
(315,651,c),
(317,651,l),
(317,651,o),
(338,587,o),
(353,547,cs),
(451,280,l)
);
},
{
closed = 1;
nodes = (
(288,777,o),
(269,800,o),
(269,829,cs),
(269,857,o),
(288,880,o),
(317,880,cs),
(346,880,o),
(365,857,o),
(365,829,cs),
(365,800,o),
(346,777,o),
(317,777,cs)
);
},
{
closed = 1;
nodes = (
(365,744,o),
(404,782,o),
(404,829,cs),
(404,876,o),
(365,914,o),
(317,914,cs),
(269,914,o),
(230,876,o),
(230,829,cs),
(230,782,o),
(269,744,o),
(317,744,cs)
);
}
);
width = 634;
}
);
note = Aring;
unicode = 197;
},
{
glyphname = Ccedilla;
kernLeft = C;
kernRight = C;
layers = (
{
hints = (
{
horizontal = 1;
place = (-187, 38);
place = (-187, 38);
type = Stem;
},
{
horizontal = 1;
place = (-86, 34);
place = (-86, 34);
type = Stem;
},
{
horizontal = 1;
place = (-12, 58);
place = (-12, 58);
type = Stem;
},
{
horizontal = 1;
place = (672, 58);
place = (672, 58);
type = Stem;
},
{
place = (36, 70);
place = (36, 70);
type = Stem;
},
{
place = (372, 55);
place = (372, 55);
type = Stem;
},
{
horizontal = 1;
place = (-162, 21);
target = up;
type = BottomGhost;
}
);
layerId = m01;
shapes = (
{
closed = 1;
nodes = (
(386,-187,o),
(427,-161,o),
(427,-114,cs),
(427,-68,o),
(384,-48,o),
(342,-52,c),
(342,-50,l),
(385,-12,l),
(464,-6,o),
(529,22,o),
(574,73,cs),
(617,120,o),
(644,190,o),
(648,260,c),
(583,260,l),
(572,142,o),
(497,46,o),
(359,46,cs),
(195,46,o),
(106,178,o),
(106,357,cs),
(106,533,o),
(192,672,o),
(360,672,cs),
(477,672,o),
(551,606,o),
(570,513,c),
(636,513,l),
(612,646,o),
(512,730,o),
(361,730,cs),
(159,730,o),
(36,573,o),
(36,357,cs),
(36,146,o),
(149,-1,o),
(335,-12,c),
(277,-70,l),
(291,-93,l),
(302,-89,o),
(314,-86,o),
(331,-86,cs),
(356,-86,o),
(372,-93,o),
(372,-114,cs),
(372,-136,o),
(350,-149,o),
(315,-149,cs),
(290,-149,o),
(267,-144,o),
(246,-135,c),
(231,-162,l),
(254,-176,o),
(285,-187,o),
(328,-187,cs)
);
}
);
width = 677;
}
);
note = Ccedilla;
unicode = 199;
},
{
glyphname = Eacute;
kernRight = E;
layers = (
{
hints = (
{
horizontal = 1;
place = (0, 62);
place = (0, 62);
type = Stem;
},
{
horizontal = 1;
place = (341, 58);
place = (341, 58);
type = Stem;
},
{
horizontal = 1;
place = (656, 211);
place = (656, 211);
type = Stem;
},
{
place = (64, 67);
place = (64, 67);
type = Stem;
},
{
horizontal = 1;
place = (656, 59);
place = (656, 59);
type = Stem;
}
);
layerId = m01;
shapes = (
{
closed = 1;
nodes = (
(284,753,l),
(338,753,l),
(432,867,l),
(350,867,l)
);
},
{
closed = 1;
nodes = (
(64,0,l),
(561,0,l),
(561,62,l),
(131,62,l),
(131,341,l),
(515,341,l),
(515,399,l),
(131,399,l),
(131,656,l),
(550,656,l),
(550,715,l),
(64,715,l)
);
}
);
width = 598;
}
);
note = Eacute;
unicode = 201;
},
{
glyphname = Ntilde;
layers = (
{
hints = (
{
horizontal = 1;
place = (0, 21);
target = up;
type = BottomGhost;
},
{
horizontal = 1;
place = (715, -20);
target = down;
type = TopGhost;
},
{
horizontal = 1;
place = (760, 51);
place = (760, 51);
type = Stem;
},
{
place = (64, 64);
place = (64, 64);
type = Stem;
},
{
place = (437, 48);
place = (437, 48);
type = Stem;
},
{
place = (539, 64);
place = (539, 64);
type = Stem;
},
{
horizontal = 1;
place = (799, 50);
place = (799, 50);
type = Stem;
},
{
place = (216, 49);
place = (216, 49);
type = Stem;
},
{
horizontal = 1;
place = (617, 98);
place = (617, 98);
type = Stem;
},
{
horizontal = 1;
place = (0, 95);
place = (0, 95);
type = Stem;
}
);
layerId = m01;
shapes = (
{
closed = 1;
nodes = (
(455,760,o),
(482,794,o),
(485,847,c),
(437,847,l),
(435,825,o),
(424,811,o),
(406,811,cs),
(374,811,o),
(337,849,o),
(290,849,cs),
(248,849,o),
(221,819,o),
(216,762,c),
(265,762,l),
(267,785,o),
(279,799,o),
(293,799,cs),
(321,799,o),
(367,760,o),
(411,760,cs)
);
},
{
closed = 1;
nodes = (
(64,0,l),
(128,0,l),
(128,617,l),
(130,617,l),
(130,617,o),
(172,546,o),
(205,496,cs),
(533,0,l),
(603,0,l),
(603,715,l),
(539,715,l),
(539,95,l),
(537,95,l),
(537,95,o),
(502,159,o),
(466,213,cs),
(137,715,l),
(64,715,l)
);
}
);
width = 667;
}
);
note = Ntilde;
unicode = 209;
},
{
glyphname = Odieresis;
kernLeft = C;
kernRight = O;
layers = (
{
hints = (
{
horizontal = 1;
place = (-14, 60);
place = (-14, 60);
type = Stem;
},
{
horizontal = 1;
place = (670, 60);
place = (670, 60);
type = Stem;
},
{
place = (36, 70);
place = (36, 70);
type = Stem;
},
{
place = (261, 60);
place = (261, 60);
type = Stem;
},
{
place = (417, 60);
place = (417, 60);
type = Stem;
},
{
place = (632, 70);
place = (632, 70);
type = Stem;
},
{
horizontal = 1;
place = (757, 86);
place = (757, 86);
type = Stem;
}
);
layerId = m01;
shapes = (
{
closed = 1;
nodes = (
(261,757,l),
(321,757,l),
(321,843,l),
(261,843,l)
);
},
{
closed = 1;
nodes = (
(417,757,l),
(477,757,l),
(477,843,l),
(417,843,l)
);
},
{
closed = 1;
nodes = (
(197,46,o),
(106,185,o),
(106,358,cs),
(106,531,o),
(197,670,o),
(368,670,cs),
(540,670,o),
(632,531,o),
(632,358,cs),
(632,185,o),
(540,46,o),
(368,46,cs)
);
},
{
closed = 1;
nodes = (
(571,-14,o),
(702,145,o),
(702,358,cs),
(702,571,o),
(571,730,o),
(368,730,cs),
(166,730,o),
(36,571,o),
(36,358,cs),
(36,145,o),
(166,-14,o),
(368,-14,cs)
);
}
);
width = 738;
}
);
note = Odieresis;
unicode = 214;
},
{
glyphname = Udieresis;
kernLeft = U;
kernRight = U;
layers = (
{
hints = (
{
horizontal = 1;
place = (-11, 58);
place = (-11, 58);
type = Stem;
},
{
horizontal = 1;
place = (715, -20);
target = down;
type = TopGhost;
},
{
horizontal = 1;
place = (757, 86);
place = (757, 86);
type = Stem;
},
{
place = (56, 67);
place = (56, 67);
type = Stem;
},
{
place = (210, 60);
place = (210, 60);
type = Stem;
},
{
place = (366, 60);
place = (366, 60);
type = Stem;
},
{
place = (514, 67);
place = (514, 67);
type = Stem;
}
);
layerId = m01;
shapes = (
{
closed = 1;
nodes = (
(210,757,l),
(270,757,l),
(270,843,l),
(210,843,l)
);
},
{
closed = 1;
nodes = (
(366,757,l),
(426,757,l),
(426,843,l),
(366,843,l)
);
},
{
closed = 1;
nodes = (
(471,-11,o),
(581,61,o),
(581,227,cs),
(581,715,l),
(514,715,l),
(514,233,ls),
(514,101,o),
(438,47,o),
(319,47,cs),
(194,47,o),
(123,101,o),
(123,233,cs),
(123,715,l),
(56,715,l),
(56,227,ls),
(56,63,o),
(160,-11,o),
(316,-11,cs)
);
}
);
width = 636;
}
);
note = Udieresis;
unicode = 220;
},
{
glyphname = aacute;
kernLeft = a;
kernRight = a;
layers = (
{
hints = (
{
horizontal = 1;
place = (-12, 50);
place = (-12, 50);
type = Stem;
},
{
horizontal = 1;
place = (478, 50);
place = (478, 50);
type = Stem;
},
{
horizontal = 1;
place = (592, 127);
place = (592, 127);
type = Stem;
},
{
place = (23, 65);
place = (23, 65);
type = Stem;
},
{
place = (376, 58);
place = (376, 58);
type = Stem;
},
{
horizontal = 1;
place = (-7, 49);
place = (-7, 49);
type = Stem;
}
);
layerId = m01;
shapes = (
{
closed = 1;
nodes = (
(291,-12,o),
(344,36,o),
(373,77,c),
(376,77,l),
(376,66,ls),
(379,16,o),
(407,-7,o),
(452,-7,cs),
(472,-7,o),
(485,-3,o),
(494,1,c),
(494,46,l),
(491,46,l),
(482,44,o),
(475,42,o),
(468,42,cs),
(446,43,o),
(434,56,o),
(434,87,cs),
(434,368,ls),
(434,481,o),
(364,528,o),
(251,528,cs),
(118,528,o),
(52,463,o),
(45,363,c),
(106,363,l),
(111,440,o),
(159,478,o),
(251,478,cs),
(331,478,o),
(375,444,o),
(375,374,cs),
(375,364,ls),
(375,312,o),
(338,306,o),
(236,294,cs),
(119,280,o),
(23,255,o),
(23,132,cs),
(23,36,o),
(96,-12,o),
(192,-12,cs)
);
},
{
closed = 1;
nodes = (
(142,38,o),
(88,60,o),
(88,132,cs),
(88,221,o),
(155,234,o),
(242,246,cs),
(292,253,o),
(343,262,o),
(376,280,c),
(376,187,ls),
(376,116,o),
(316,38,o),
(203,38,cs)
);
},
{
closed = 1;
nodes = (
(215,592,l),
(269,592,l),
(363,719,l),
(281,719,l)
);
}
);
width = 499;
}
);
note = aacute;
unicode = 225;
},
{
glyphname = agrave;
kernLeft = a;
kernRight = a;
layers = (
{
hints = (
{
horizontal = 1;
place = (-12, 50);
place = (-12, 50);
type = Stem;
},
{
horizontal = 1;
place = (478, 50);
place = (478, 50);
type = Stem;
},
{
horizontal = 1;
place = (592, 127);
place = (592, 127);
type = Stem;
},
{
place = (23, 65);
place = (23, 65);
type = Stem;
},
{
place = (376, 58);
place = (376, 58);
type = Stem;
},
{
horizontal = 1;
place = (-7, 49);
place = (-7, 49);
type = Stem;
}
);
layerId = m01;
shapes = (
{
closed = 1;
nodes = (
(291,-12,o),
(344,36,o),
(373,77,c),
(376,77,l),
(376,66,ls),
(379,16,o),
(407,-7,o),
(452,-7,cs),
(472,-7,o),
(485,-3,o),
(494,1,c),
(494,46,l),
(491,46,l),
(482,44,o),
(475,42,o),
(468,42,cs),
(446,43,o),
(434,56,o),
(434,87,cs),
(434,368,ls),
(434,481,o),
(364,528,o),
(251,528,cs),
(118,528,o),
(52,463,o),
(45,363,c),
(106,363,l),
(111,440,o),
(159,478,o),
(251,478,cs),
(331,478,o),
(375,444,o),
(375,374,cs),
(375,364,ls),
(375,312,o),
(338,306,o),
(236,294,cs),
(119,280,o),
(23,255,o),
(23,132,cs),
(23,36,o),
(96,-12,o),
(192,-12,cs)
);
},
{
closed = 1;
nodes = (
(142,38,o),
(88,60,o),
(88,132,cs),
(88,221,o),
(155,234,o),
(242,246,cs),
(292,253,o),
(343,262,o),
(376,280,c),
(376,187,ls),
(376,116,o),
(316,38,o),
(203,38,cs)
);
},
{
closed = 1;
nodes = (
(238,592,l),
(292,592,l),
(226,719,l),
(144,719,l)
);
}
);
width = 499;
}
);
note = agrave;
unicode = 224;
},
{
glyphname = acircumflex;
kernLeft = a;
kernRight = a;
layers = (
{
hints = (
{
horizontal = 1;
place = (-12, 50);
place = (-12, 50);
type = Stem;
},
{
horizontal = 1;
place = (478, 50);
place = (478, 50);
type = Stem;
},
{
horizontal = 1;
place = (596, 106);
place = (596, 106);
type = Stem;
},
{
place = (23, 65);
place = (23, 65);
type = Stem;
},
{
place = (376, 58);
place = (376, 58);
type = Stem;
},
{
horizontal = 1;
place = (-7, 49);
place = (-7, 49);
type = Stem;
}
);
layerId = m01;
shapes = (
{
closed = 1;
nodes = (
(291,-12,o),
(344,36,o),
(373,77,c),
(376,77,l),
(376,66,ls),
(379,16,o),
(407,-7,o),
(452,-7,cs),
(472,-7,o),
(485,-3,o),
(494,1,c),
(494,46,l),
(491,46,l),
(482,44,o),
(475,42,o),
(468,42,cs),
(446,43,o),
(434,56,o),
(434,87,cs),
(434,368,ls),
(434,481,o),
(364,528,o),
(251,528,cs),
(118,528,o),
(52,463,o),
(45,363,c),
(106,363,l),
(111,440,o),
(159,478,o),
(251,478,cs),
(331,478,o),
(375,444,o),
(375,374,cs),
(375,364,ls),
(375,312,o),
(338,306,o),
(236,294,cs),
(119,280,o),
(23,255,o),
(23,132,cs),
(23,36,o),
(96,-12,o),
(192,-12,cs)
);
},
{
closed = 1;
nodes = (
(142,38,o),
(88,60,o),
(88,132,cs),
(88,221,o),
(155,234,o),
(242,246,cs),
(292,253,o),
(343,262,o),
(376,280,c),
(376,187,ls),
(376,116,o),
(316,38,o),
(203,38,cs)
);
},
{
closed = 1;
nodes = (
(131,596,l),
(197,596,l),
(250,667,l),
(252,667,l),
(304,596,l),
(373,596,l),
(290,702,l),
(216,702,l)
);
}
);
width = 499;
}
);
note = acircumflex;
unicode = 226;
},
{
glyphname = adieresis;
kernLeft = a;
kernRight = a;
layers = (
{
hints = (
{
horizontal = 1;
place = (-12, 50);
place = (-12, 50);
type = Stem;
},
{
horizontal = 1;
place = (478, 50);
place = (478, 50);
type = Stem;
},
{
horizontal = 1;
place = (627, 86);
place = (627, 86);
type = Stem;
},
{
place = (23, 65);
place = (23, 65);
type = Stem;
},
{
place = (145, 60);
place = (145, 60);
type = Stem;
},
{
place = (376, 58);
place = (376, 58);
type = Stem;
},
{
horizontal = 1;
place = (-7, 49);
place = (-7, 49);
type = Stem;
},
{
place = (301, 60);
place = (301, 60);
type = Stem;
}
);
layerId = m01;
shapes = (
{
closed = 1;
nodes = (
(291,-12,o),
(344,36,o),
(373,77,c),
(376,77,l),
(376,66,ls),
(379,16,o),
(407,-7,o),
(452,-7,cs),
(472,-7,o),
(485,-3,o),
(494,1,c),
(494,46,l),
(491,46,l),
(482,44,o),
(475,42,o),
(468,42,cs),
(446,43,o),
(434,56,o),
(434,87,cs),
(434,368,ls),
(434,481,o),
(364,528,o),
(251,528,cs),
(118,528,o),
(52,463,o),
(45,363,c),
(106,363,l),
(111,440,o),
(159,478,o),
(251,478,cs),
(331,478,o),
(375,444,o),
(375,374,cs),
(375,364,ls),
(375,312,o),
(338,306,o),
(236,294,cs),
(119,280,o),
(23,255,o),
(23,132,cs),
(23,36,o),
(96,-12,o),
(192,-12,cs)
);
},
{
closed = 1;
nodes = (
(142,38,o),
(88,60,o),
(88,132,cs),
(88,221,o),
(155,234,o),
(242,246,cs),
(292,253,o),
(343,262,o),
(376,280,c),
(376,187,ls),
(376,116,o),
(316,38,o),
(203,38,cs)
);
},
{
closed = 1;
nodes = (
(145,627,l),
(205,627,l),
(205,713,l),
(145,713,l)
);
},
{
closed = 1;
nodes = (
(301,627,l),
(361,627,l),
(361,713,l),
(301,713,l)
);
}
);
width = 499;
}
);
note = adieresis;
unicode = 228;
},
{
glyphname = atilde;
kernLeft = a;
kernRight = a;
layers = (
{
hints = (
{
horizontal = 1;
place = (-12, 50);
place = (-12, 50);
type = Stem;
},
{
horizontal = 1;
place = (478, 50);
place = (478, 50);
type = Stem;
},
{
horizontal = 1;
place = (639, 51);
place = (639, 51);
type = Stem;
},
{
place = (23, 65);
place = (23, 65);
type = Stem;
},
{
place = (376, 58);
place = (376, 58);
type = Stem;
},
{
horizontal = 1;
place = (-7, 49);
place = (-7, 49);
type = Stem;
},
{
horizontal = 1;
place = (600, 51);
place = (600, 51);
type = Stem;
},
{
place = (339, 48);
place = (339, 48);
type = Stem;
},
{
place = (118, 49);
place = (118, 49);
type = Stem;
}
);
layerId = m01;
shapes = (
{
closed = 1;
nodes = (
(291,-12,o),
(344,36,o),
(373,77,c),
(376,77,l),
(376,66,ls),
(379,16,o),
(407,-7,o),
(452,-7,cs),
(472,-7,o),
(485,-3,o),
(494,1,c),
(494,46,l),
(491,46,l),
(482,44,o),
(475,42,o),
(468,42,cs),
(446,43,o),
(434,56,o),
(434,87,cs),
(434,368,ls),
(434,481,o),
(364,528,o),
(251,528,cs),
(118,528,o),
(52,463,o),
(45,363,c),
(106,363,l),
(111,440,o),
(159,478,o),
(251,478,cs),
(331,478,o),
(375,444,o),
(375,374,cs),
(375,364,ls),
(375,312,o),
(338,306,o),
(236,294,cs),
(119,280,o),
(23,255,o),
(23,132,cs),
(23,36,o),
(96,-12,o),
(192,-12,cs)
);
},
{
closed = 1;
nodes = (
(142,38,o),
(88,60,o),
(88,132,cs),
(88,221,o),
(155,234,o),
(242,246,cs),
(292,253,o),
(343,262,o),
(376,280,c),
(376,187,ls),
(376,116,o),
(316,38,o),
(203,38,cs)
);
},
{
closed = 1;
nodes = (
(357,600,o),
(384,634,o),
(387,688,c),
(339,688,l),
(337,666,o),
(326,651,o),
(308,651,cs),
(276,651,o),
(239,690,o),
(192,690,cs),
(150,690,o),
(123,659,o),
(118,602,c),
(167,602,l),
(169,625,o),
(181,639,o),
(195,639,cs),
(223,639,o),
(269,600,o),
(313,600,cs)
);
}
);
width = 499;
}
);
note = atilde;
unicode = 227;
},
{
glyphname = aring;
kernLeft = a;
kernRight = a;
layers = (
{
hints = (
{
horizontal = 1;
place = (-12, 50);
place = (-12, 50);
type = Stem;
},
{
horizontal = 1;
place = (478, 50);
place = (478, 50);
type = Stem;
},
{
horizontal = 1;
place = (569, 34);
place = (569, 34);
type = Stem;
},
{
horizontal = 1;
place = (705, 34);
place = (705, 34);
type = Stem;
},
{
place = (23, 65);
place = (23, 65);
type = Stem;
},
{
place = (166, 39);
place = (166, 39);
type = Stem;
},
{
place = (301, 39);
place = (301, 39);
type = Stem;
},
{
place = (376, 58);
place = (376, 58);
type = Stem;
},
{
horizontal = 1;
place = (-7, 49);
place = (-7, 49);
type = Stem;
}
);
layerId = m01;
shapes = (
{
closed = 1;
nodes = (
(291,-12,o),
(344,36,o),
(373,77,c),
(376,77,l),
(376,66,ls),
(379,16,o),
(407,-7,o),
(452,-7,cs),
(472,-7,o),
(485,-3,o),
(494,1,c),
(494,46,l),
(491,46,l),
(482,44,o),
(475,42,o),
(468,42,cs),
(446,43,o),
(434,56,o),
(434,87,cs),
(434,368,ls),
(434,481,o),
(364,528,o),
(251,528,cs),
(118,528,o),
(52,463,o),
(45,363,c),
(106,363,l),
(111,440,o),
(159,478,o),
(251,478,cs),
(331,478,o),
(375,444,o),
(375,374,cs),
(375,364,ls),
(375,312,o),
(338,306,o),
(236,294,cs),
(119,280,o),
(23,255,o),
(23,132,cs),
(23,36,o),
(96,-12,o),
(192,-12,cs)
);
},
{
closed = 1;
nodes = (
(142,38,o),
(88,60,o),
(88,132,cs),
(88,221,o),
(155,234,o),
(242,246,cs),
(292,253,o),
(343,262,o),
(376,280,c),
(376,187,ls),
(376,116,o),
(316,38,o),
(203,38,cs)
);
},
{
closed = 1;
nodes = (
(224,603,o),
(205,626,o),
(205,654,cs),
(205,683,o),
(224,705,o),
(253,705,cs),
(282,705,o),
(301,683,o),
(301,654,cs),
(301,626,o),
(282,603,o),
(253,603,cs)
);
},
{
closed = 1;
nodes = (
(301,569,o),
(340,607,o),
(340,654,cs),
(340,701,o),
(301,739,o),
(253,739,cs),
(205,739,o),
(166,701,o),
(166,654,cs),
(166,607,o),
(205,569,o),
(253,569,cs)
);
}
);
width = 499;
}
);
note = aring;
unicode = 229;
},
{
glyphname = ccedilla;
kernLeft = c;
kernRight = c;
layers = (
{
hints = (
{
horizontal = 1;
place = (-187, 38);
place = (-187, 38);
type = Stem;
},
{
horizontal = 1;
place = (-86, 34);
place = (-86, 34);
type = Stem;
},
{
horizontal = 1;
place = (-11, 51);
place = (-11, 51);
type = Stem;
},
{
horizontal = 1;
place = (477, 52);
place = (477, 52);
type = Stem;
},
{
place = (25, 64);
place = (25, 64);
type = Stem;
},
{
place = (271, 55);
place = (271, 55);
type = Stem;
},
{
horizontal = 1;
place = (-162, 21);
target = up;
type = BottomGhost;
}
);
layerId = m01;
shapes = (
{
closed = 1;
nodes = (
(285,-187,o),
(326,-161,o),
(326,-114,cs),
(326,-68,o),
(283,-48,o),
(241,-52,c),
(241,-50,l),
(284,-12,l),
(393,-3,o),
(461,69,o),
(472,178,c),
(413,178,l),
(403,95,o),
(348,40,o),
(260,40,cs),
(143,40,o),
(89,138,o),
(89,258,cs),
(89,378,o),
(142,477,o),
(261,477,cs),
(341,477,o),
(392,438,o),
(407,361,c),
(469,361,l),
(452,467,o),
(375,529,o),
(261,529,cs),
(111,529,o),
(25,412,o),
(25,258,cs),
(25,113,o),
(100,1,o),
(235,-11,c),
(176,-70,l),
(190,-93,l),
(201,-89,o),
(213,-86,o),
(230,-86,cs),
(255,-86,o),
(271,-93,o),
(271,-114,cs),
(271,-136,o),
(249,-149,o),
(214,-149,cs),
(189,-149,o),
(166,-144,o),
(145,-135,c),
(130,-162,l),
(153,-176,o),
(184,-187,o),
(227,-187,cs)
);
}
);
width = 491;
}
);
note = ccedilla;
unicode = 231;
},
{
glyphname = eacute;
kernLeft = c;
kernRight = e;
layers = (
{
hints = (
{
horizontal = 1;
place = (-13, 53);
place = (-13, 53);
type = Stem;
},
{
horizontal = 1;
place = (247, 49);
place = (247, 49);
type = Stem;
},
{
horizontal = 1;
place = (478, 51);
place = (478, 51);
type = Stem;
},
{
horizontal = 1;
place = (592, 127);
place = (592, 127);
type = Stem;
},
{
place = (25, 64);
place = (25, 64);
type = Stem;
},
{
place = (418, 65);
place = (418, 65);
type = Stem;
}
);
layerId = m01;
shapes = (
{
closed = 1;
nodes = (
(222,592,l),
(276,592,l),
(370,719,l),
(288,719,l)
);
},
{
closed = 1;
nodes = (
(382,-13,o),
(455,54,o),
(477,156,c),
(417,156,l),
(397,86,o),
(352,40,o),
(266,40,cs),
(148,40,o),
(92,131,o),
(89,247,c),
(483,247,l),
(484,392,o),
(427,529,o),
(261,529,cs),
(118,529,o),
(25,413,o),
(25,258,cs),
(25,103,o),
(111,-13,o),
(266,-13,cs)
);
},
{
closed = 1;
nodes = (
(90,296,l),
(101,399,o),
(156,478,o),
(261,478,cs),
(367,478,o),
(415,398,o),
(418,296,c)
);
}
);
width = 508;
}
);
note = eacute;
unicode = 233;
},
{
glyphname = egrave;
kernLeft = c;
kernRight = e;
layers = (
{
hints = (
{
horizontal = 1;
place = (-13, 53);
place = (-13, 53);
type = Stem;
},
{
horizontal = 1;
place = (247, 49);
place = (247, 49);
type = Stem;
},
{
horizontal = 1;
place = (478, 51);
place = (478, 51);
type = Stem;
},
{
horizontal = 1;
place = (592, 127);
place = (592, 127);
type = Stem;
},
{
place = (25, 64);
place = (25, 64);
type = Stem;
},
{
place = (418, 65);
place = (418, 65);
type = Stem;
}
);
layerId = m01;
shapes = (
{
closed = 1;
nodes = (
(382,-13,o),
(455,54,o),
(477,156,c),
(417,156,l),
(397,86,o),
(352,40,o),
(266,40,cs),
(148,40,o),
(92,131,o),
(89,247,c),
(483,247,l),
(484,392,o),
(427,529,o),
(261,529,cs),
(118,529,o),
(25,413,o),
(25,258,cs),
(25,103,o),
(111,-13,o),
(266,-13,cs)
);
},
{
closed = 1;
nodes = (
(90,296,l),
(101,399,o),
(156,478,o),
(261,478,cs),
(367,478,o),
(415,398,o),
(418,296,c)
);
},
{
closed = 1;
nodes = (
(245,592,l),
(299,592,l),
(233,719,l),
(151,719,l)
);
}
);
width = 508;
}
);
note = egrave;
unicode = 232;
},
{
glyphname = ecircumflex;
kernLeft = c;
kernRight = e;
layers = (
{
hints = (
{
horizontal = 1;
place = (-13, 53);
place = (-13, 53);
type = Stem;
},
{
horizontal = 1;
place = (247, 49);
place = (247, 49);
type = Stem;
},
{
horizontal = 1;
place = (478, 51);
place = (478, 51);
type = Stem;
},
{
horizontal = 1;
place = (596, 106);
place = (596, 106);
type = Stem;
},
{
place = (25, 64);
place = (25, 64);
type = Stem;
},
{
place = (418, 65);
place = (418, 65);
type = Stem;
}
);
layerId = m01;
shapes = (
{
closed = 1;
nodes = (
(138,596,l),
(204,596,l),
(257,667,l),
(259,667,l),
(311,596,l),
(380,596,l),
(297,702,l),
(223,702,l)
);
},
{
closed = 1;
nodes = (
(382,-13,o),
(455,54,o),
(477,156,c),
(417,156,l),
(397,86,o),
(352,40,o),
(266,40,cs),
(148,40,o),
(92,131,o),
(89,247,c),
(483,247,l),
(484,392,o),
(427,529,o),
(261,529,cs),
(118,529,o),
(25,413,o),
(25,258,cs),
(25,103,o),
(111,-13,o),
(266,-13,cs)
);
},
{
closed = 1;
nodes = (
(90,296,l),
(101,399,o),
(156,478,o),
(261,478,cs),
(367,478,o),
(415,398,o),
(418,296,c)
);
}
);
width = 508;
}
);
note = ecircumflex;
unicode = 234;
},
{
glyphname = edieresis;
kernLeft = c;
kernRight = e;
layers = (
{
hints = (
{
horizontal = 1;
place = (-13, 53);
place = (-13, 53);
type = Stem;
},
{
horizontal = 1;
place = (247, 49);
place = (247, 49);
type = Stem;
},
{
horizontal = 1;
place = (478, 51);
place = (478, 51);
type = Stem;
},
{
horizontal = 1;
place = (627, 86);
place = (627, 86);
type = Stem;
},
{
place = (25, 64);
place = (25, 64);
type = Stem;
},
{
place = (151, 60);
place = (151, 60);
type = Stem;
},
{
place = (307, 60);
place = (307, 60);
type = Stem;
},
{
place = (418, 65);
place = (418, 65);
type = Stem;
}
);
layerId = m01;
shapes = (
{
closed = 1;
nodes = (
(151,627,l),
(211,627,l),
(211,713,l),
(151,713,l)
);
},
{
closed = 1;
nodes = (
(307,627,l),
(367,627,l),
(367,713,l),
(307,713,l)
);
},
{
closed = 1;
nodes = (
(382,-13,o),
(455,54,o),
(477,156,c),
(417,156,l),
(397,86,o),
(352,40,o),
(266,40,cs),
(148,40,o),
(92,131,o),
(89,247,c),
(483,247,l),
(484,392,o),
(427,529,o),
(261,529,cs),
(118,529,o),
(25,413,o),
(25,258,cs),
(25,103,o),
(111,-13,o),
(266,-13,cs)
);
},
{
closed = 1;
nodes = (
(90,296,l),
(101,399,o),
(156,478,o),
(261,478,cs),
(367,478,o),
(415,398,o),
(418,296,c)
);
}
);
width = 508;
}
);
note = edieresis;
unicode = 235;
},
{
glyphname = iacute;
kernLeft = b;
kernRight = d;
layers = (
{
hints = (
{
horizontal = 1;
place = (0, 21);
target = up;
type = BottomGhost;
},
{
horizontal = 1;
place = (517, -20);
target = down;
type = TopGhost;
},
{
horizontal = 1;
place = (592, 127);
place = (592, 127);
type = Stem;
},
{
place = (54, 62);
place = (54, 62);
type = Stem;
}
);
layerId = m01;
shapes = (
{
closed = 1;
nodes = (
(54,0,l),
(116,0,l),
(116,517,l),
(54,517,l)
);
},
{
closed = 1;
nodes = (
(59,592,l),
(112,592,l),
(191,719,l),
(113,719,l)
);
}
);
width = 169;
}
);
note = iacute;
unicode = 237;
},
{
glyphname = igrave;
kernLeft = b;
kernRight = d;
layers = (
{
hints = (
{
horizontal = 1;
place = (0, 21);
target = up;
type = BottomGhost;
},
{
horizontal = 1;
place = (517, -20);
target = down;
type = TopGhost;
},
{
horizontal = 1;
place = (643, 25);
place = (643, 25);
type = Stem;
},
{
place = (54, 62);
place = (54, 62);
type = Stem;
},
{
place = (52, 15);
place = (52, 15);
type = Stem;
},
{
place = (37, 13);
place = (37, 13);
type = Stem;
}
);
layerId = m01;
shapes = (
{
closed = 1;
nodes = (
(54,0,l),
(116,0,l),
(116,517,l),
(54,517,l)
);
},
{
closed = 1;
nodes = (
(51,656,l),
(53,643,l),
(67,643,l)
);
},
{
closed = 1;
nodes = (
(37,668,l),
(51,656,l),
(49,668,l)
);
}
);
width = 169;
}
);
note = igrave;
unicode = 236;
},
{
glyphname = icircumflex;
kernLeft = b;
kernRight = d;
layers = (
{
hints = (
{
horizontal = 1;
place = (0, 21);
target = up;
type = BottomGhost;
},
{
horizontal = 1;
place = (517, -20);
target = down;
type = TopGhost;
},
{
horizontal = 1;
place = (596, 106);
place = (596, 106);
type = Stem;
},
{
place = (54, 62);
place = (54, 62);
type = Stem;
}
);
layerId = m01;
shapes = (
{
closed = 1;
nodes = (
(-22,596,l),
(40,596,l),
(83,665,l),
(85,665,l),
(126,596,l),
(190,596,l),
(122,702,l),
(48,702,l)
);
},
{
closed = 1;
nodes = (
(54,0,l),
(116,0,l),
(116,517,l),
(54,517,l)
);
}
);
width = 169;
}
);
note = icircumflex;
unicode = 238;
},
{
glyphname = idieresis;
kernLeft = b;
kernRight = d;
layers = (
{
hints = (
{
horizontal = 1;
place = (0, 21);
target = up;
type = BottomGhost;
},
{
horizontal = 1;
place = (517, -20);
target = down;
type = TopGhost;
},
{
horizontal = 1;
place = (627, 86);
place = (627, 86);
type = Stem;
},
{
place = (-4, 61);
place = (-4, 61);
type = Stem;
},
{
place = (54, 62);
place = (54, 62);
type = Stem;
},
{
place = (112, 61);
place = (112, 61);
type = Stem;
}
);
layerId = m01;
shapes = (
{
closed = 1;
nodes = (
(-4,627,l),
(57,627,l),
(57,713,l),
(-4,713,l)
);
},
{
closed = 1;
nodes = (
(54,0,l),
(116,0,l),
(116,517,l),
(54,517,l)
);
},
{
closed = 1;
nodes = (
(112,627,l),
(173,627,l),
(173,713,l),
(112,713,l)
);
}
);
width = 169;
}
);
note = idieresis;
unicode = 239;
},
{
glyphname = ntilde;
kernLeft = m;
kernRight = h;
layers = (
{
hints = (
{
horizontal = 1;
place = (0, 21);
target = up;
type = BottomGhost;
},
{
horizontal = 1;
place = (475, 53);
place = (475, 53);
type = Stem;
},
{
horizontal = 1;
place = (639, 51);
place = (639, 51);
type = Stem;
},
{
place = (52, 62);
place = (52, 62);
type = Stem;
},
{
place = (392, 62);
place = (392, 62);
type = Stem;
},
{
horizontal = 1;
place = (517, -20);
target = down;
type = TopGhost;
},
{
horizontal = 1;
place = (600, 51);
place = (600, 51);
type = Stem;
},
{
place = (341, 48);
place = (341, 48);
type = Stem;
},
{
place = (120, 49);
place = (120, 49);
type = Stem;
}
);
layerId = m01;
shapes = (
{
closed = 1;
nodes = (
(52,0,l),
(114,0,l),
(114,328,ls),
(114,413,o),
(186,475,o),
(274,475,cs),
(347,475,o),
(392,439,o),
(392,361,cs),
(392,0,l),
(454,0,l),
(454,367,ls),
(454,471,o),
(385,528,o),
(289,528,cs),
(207,528,o),
(151,490,o),
(116,438,c),
(114,438,l),
(114,517,l),
(52,517,l)
);
},
{
closed = 1;
nodes = (
(359,600,o),
(386,634,o),
(389,688,c),
(341,688,l),
(339,666,o),
(328,651,o),
(310,651,cs),
(278,651,o),
(241,690,o),
(194,690,cs),
(152,690,o),
(125,659,o),
(120,602,c),
(169,602,l),
(171,625,o),
(183,639,o),
(197,639,cs),
(225,639,o),
(271,600,o),
(315,600,cs)
);
}
);
width = 502;
}
);
note = ntilde;
unicode = 241;
},
{
glyphname = oacute;
kernLeft = c;
kernRight = o;
layers = (
{
hints = (
{
horizontal = 1;
place = (-13, 52);
place = (-13, 52);
type = Stem;
},
{
horizontal = 1;
place = (477, 52);
place = (477, 52);
type = Stem;
},
{
horizontal = 1;
place = (592, 127);
place = (592, 127);
type = Stem;
},
{
place = (25, 64);
place = (25, 64);
type = Stem;
},
{
place = (440, 63);
place = (440, 63);
type = Stem;
}
);
layerId = m01;
shapes = (
{
closed = 1;
nodes = (
(227,592,l),
(281,592,l),
(375,719,l),
(293,719,l)
);
},
{
closed = 1;
nodes = (
(149,39,o),
(89,137,o),
(89,258,cs),
(89,379,o),
(149,477,o),
(265,477,cs),
(380,477,o),
(440,379,o),
(440,258,cs),
(440,137,o),
(380,39,o),
(265,39,cs)
);
},
{
closed = 1;
nodes = (
(414,-13,o),
(503,104,o),
(503,258,cs),
(503,412,o),
(414,529,o),
(265,529,cs),
(116,529,o),
(25,412,o),
(25,258,cs),
(25,104,o),
(116,-13,o),
(265,-13,cs)
);
}
);
width = 529;
}
);
note = oacute;
unicode = 243;
},
{
glyphname = ograve;
kernLeft = c;
kernRight = o;
layers = (
{
hints = (
{
horizontal = 1;
place = (-13, 52);
place = (-13, 52);
type = Stem;
},
{
horizontal = 1;
place = (477, 52);
place = (477, 52);
type = Stem;
},
{
horizontal = 1;
place = (592, 127);
place = (592, 127);
type = Stem;
},
{
place = (25, 64);
place = (25, 64);
type = Stem;
},
{
place = (440, 63);
place = (440, 63);
type = Stem;
}
);
layerId = m01;
shapes = (
{
closed = 1;
nodes = (
(149,39,o),
(89,137,o),
(89,258,cs),
(89,379,o),
(149,477,o),
(265,477,cs),
(380,477,o),
(440,379,o),
(440,258,cs),
(440,137,o),
(380,39,o),
(265,39,cs)
);
},
{
closed = 1;
nodes = (
(414,-13,o),
(503,104,o),
(503,258,cs),
(503,412,o),
(414,529,o),
(265,529,cs),
(116,529,o),
(25,412,o),
(25,258,cs),
(25,104,o),
(116,-13,o),
(265,-13,cs)
);
},
{
closed = 1;
nodes = (
(249,592,l),
(303,592,l),
(237,719,l),
(155,719,l)
);
}
);
width = 529;
}
);
note = ograve;
unicode = 242;
},
{
glyphname = ocircumflex;
kernLeft = c;
kernRight = o;
layers = (
{
hints = (
{
horizontal = 1;
place = (-13, 52);
place = (-13, 52);
type = Stem;
},
{
horizontal = 1;
place = (477, 52);
place = (477, 52);
type = Stem;
},
{
horizontal = 1;
place = (596, 106);
place = (596, 106);
type = Stem;
},
{
place = (25, 64);
place = (25, 64);
type = Stem;
},
{
place = (440, 63);
place = (440, 63);
type = Stem;
}
);
layerId = m01;
shapes = (
{
closed = 1;
nodes = (
(143,596,l),
(209,596,l),
(262,667,l),
(264,667,l),
(316,596,l),
(385,596,l),
(302,702,l),
(228,702,l)
);
},
{
closed = 1;
nodes = (
(149,39,o),
(89,137,o),
(89,258,cs),
(89,379,o),
(149,477,o),
(265,477,cs),
(380,477,o),
(440,379,o),
(440,258,cs),
(440,137,o),
(380,39,o),
(265,39,cs)
);
},
{
closed = 1;
nodes = (
(414,-13,o),
(503,104,o),
(503,258,cs),
(503,412,o),
(414,529,o),
(265,529,cs),
(116,529,o),
(25,412,o),
(25,258,cs),
(25,104,o),
(116,-13,o),
(265,-13,cs)
);
}
);
width = 529;
}
);
note = ocircumflex;
unicode = 244;
},
{
glyphname = odieresis;
kernLeft = c;
kernRight = o;
layers = (
{
hints = (
{
horizontal = 1;
place = (-13, 52);
place = (-13, 52);
type = Stem;
},
{
horizontal = 1;
place = (477, 52);
place = (477, 52);
type = Stem;
},
{
horizontal = 1;
place = (627, 86);
place = (627, 86);
type = Stem;
},
{
place = (25, 64);
place = (25, 64);
type = Stem;
},
{
place = (156, 60);
place = (156, 60);
type = Stem;
},
{
place = (312, 60);
place = (312, 60);
type = Stem;
},
{
place = (440, 63);
place = (440, 63);
type = Stem;
}
);
layerId = m01;
shapes = (
{
closed = 1;
nodes = (
(156,627,l),
(216,627,l),
(216,713,l),
(156,713,l)
);
},
{
closed = 1;
nodes = (
(312,627,l),
(372,627,l),
(372,713,l),
(312,713,l)
);
},
{
closed = 1;
nodes = (
(149,39,o),
(89,137,o),
(89,258,cs),
(89,379,o),
(149,477,o),
(265,477,cs),
(380,477,o),
(440,379,o),
(440,258,cs),
(440,137,o),
(380,39,o),
(265,39,cs)
);
},
{
closed = 1;
nodes = (
(414,-13,o),
(503,104,o),
(503,258,cs),
(503,412,o),
(414,529,o),
(265,529,cs),
(116,529,o),
(25,412,o),
(25,258,cs),
(25,104,o),
(116,-13,o),
(265,-13,cs)
);
}
);
width = 529;
}
);
note = odieresis;
unicode = 246;
},
{
glyphname = otilde;
kernLeft = c;
kernRight = o;
layers = (
{
hints = (
{
horizontal = 1;
place = (-13, 52);
place = (-13, 52);
type = Stem;
},
{
horizontal = 1;
place = (477, 52);
place = (477, 52);
type = Stem;
},
{
horizontal = 1;
place = (639, 51);
place = (639, 51);
type = Stem;
},
{
place = (25, 64);
place = (25, 64);
type = Stem;
},
{
place = (440, 63);
place = (440, 63);
type = Stem;
},
{
horizontal = 1;
place = (600, 51);
place = (600, 51);
type = Stem;
},
{
place = (351, 48);
place = (351, 48);
type = Stem;
},
{
place = (130, 49);
place = (130, 49);
type = Stem;
}
);
layerId = m01;
shapes = (
{
closed = 1;
nodes = (
(149,39,o),
(89,137,o),
(89,258,cs),
(89,379,o),
(149,477,o),
(265,477,cs),
(380,477,o),
(440,379,o),
(440,258,cs),
(440,137,o),
(380,39,o),
(265,39,cs)
);
},
{
closed = 1;
nodes = (
(414,-13,o),
(503,104,o),
(503,258,cs),
(503,412,o),
(414,529,o),
(265,529,cs),
(116,529,o),
(25,412,o),
(25,258,cs),
(25,104,o),
(116,-13,o),
(265,-13,cs)
);
},
{
closed = 1;
nodes = (
(369,600,o),
(396,634,o),
(399,688,c),
(351,688,l),
(349,666,o),
(338,651,o),
(320,651,cs),
(288,651,o),
(251,690,o),
(204,690,cs),
(162,690,o),
(135,659,o),
(130,602,c),
(179,602,l),
(181,625,o),
(193,639,o),
(207,639,cs),
(235,639,o),
(281,600,o),
(325,600,cs)
);
}
);
width = 529;
}
);
note = otilde;
unicode = 245;
},
{
glyphname = uacute;
kernLeft = u;
kernRight = u;
layers = (
{
hints = (
{
horizontal = 1;
place = (-12, 52);
place = (-12, 52);
type = Stem;
},
{
horizontal = 1;
place = (517, -20);
target = down;
type = TopGhost;
},
{
horizontal = 1;
place = (592, 127);
place = (592, 127);
type = Stem;
},
{
place = (48, 62);
place = (48, 62);
type = Stem;
},
{
place = (382, 61);
place = (382, 61);
type = Stem;
},
{
horizontal = 1;
place = (0, 21);
target = up;
type = BottomGhost;
}
);
layerId = m01;
shapes = (
{
closed = 1;
nodes = (
(211,592,l),
(265,592,l),
(359,719,l),
(277,719,l)
);
},
{
closed = 1;
nodes = (
(300,-12,o),
(344,26,o),
(380,76,c),
(382,76,l),
(382,0,l),
(443,0,l),
(443,517,l),
(382,517,l),
(382,194,ls),
(382,106,o),
(320,40,o),
(232,40,cs),
(157,40,o),
(110,78,o),
(110,156,cs),
(110,517,l),
(48,517,l),
(48,152,ls),
(48,48,o),
(118,-12,o),
(218,-12,cs)
);
}
);
width = 495;
}
);
note = uacute;
unicode = 250;
},
{
glyphname = ugrave;
kernLeft = u;
kernRight = u;
layers = (
{
hints = (
{
horizontal = 1;
place = (-12, 52);
place = (-12, 52);
type = Stem;
},
{
horizontal = 1;
place = (517, -20);
target = down;
type = TopGhost;
},
{
horizontal = 1;
place = (592, 127);
place = (592, 127);
type = Stem;
},
{
place = (48, 62);
place = (48, 62);
type = Stem;
},
{
place = (382, 61);
place = (382, 61);
type = Stem;
},
{
horizontal = 1;
place = (0, 21);
target = up;
type = BottomGhost;
}
);
layerId = m01;
shapes = (
{
closed = 1;
nodes = (
(300,-12,o),
(344,26,o),
(380,76,c),
(382,76,l),
(382,0,l),
(443,0,l),
(443,517,l),
(382,517,l),
(382,194,ls),
(382,106,o),
(320,40,o),
(232,40,cs),
(157,40,o),
(110,78,o),
(110,156,cs),
(110,517,l),
(48,517,l),
(48,152,ls),
(48,48,o),
(118,-12,o),
(218,-12,cs)
);
},
{
closed = 1;
nodes = (
(235,592,l),
(289,592,l),
(223,719,l),
(141,719,l)
);
}
);
width = 495;
}
);
note = ugrave;
unicode = 249;
},
{
glyphname = ucircumflex;
kernLeft = u;
kernRight = u;
layers = (
{
hints = (
{
horizontal = 1;
place = (-12, 52);
place = (-12, 52);
type = Stem;
},
{
horizontal = 1;
place = (517, -20);
target = down;
type = TopGhost;
},
{
horizontal = 1;
place = (596, 106);
place = (596, 106);
type = Stem;
},
{
place = (48, 62);
place = (48, 62);
type = Stem;
},
{
place = (382, 61);
place = (382, 61);
type = Stem;
},
{
horizontal = 1;
place = (0, 21);
target = up;
type = BottomGhost;
}
);
layerId = m01;
shapes = (
{
closed = 1;
nodes = (
(128,596,l),
(194,596,l),
(247,667,l),
(249,667,l),
(301,596,l),
(370,596,l),
(287,702,l),
(213,702,l)
);
},
{
closed = 1;
nodes = (
(300,-12,o),
(344,26,o),
(380,76,c),
(382,76,l),
(382,0,l),
(443,0,l),
(443,517,l),
(382,517,l),
(382,194,ls),
(382,106,o),
(320,40,o),
(232,40,cs),
(157,40,o),
(110,78,o),
(110,156,cs),
(110,517,l),
(48,517,l),
(48,152,ls),
(48,48,o),
(118,-12,o),
(218,-12,cs)
);
}
);
width = 495;
}
);
note = ucircumflex;
unicode = 251;
},
{
glyphname = udieresis;
kernLeft = u;
kernRight = u;
layers = (
{
hints = (
{
horizontal = 1;
place = (-12, 52);
place = (-12, 52);
type = Stem;
},
{
horizontal = 1;
place = (517, -20);
target = down;
type = TopGhost;
},
{
horizontal = 1;
place = (627, 86);
place = (627, 86);
type = Stem;
},
{
place = (48, 62);
place = (48, 62);
type = Stem;
},
{
place = (141, 60);
place = (141, 60);
type = Stem;
},
{
place = (382, 61);
place = (382, 61);
type = Stem;
},
{
place = (297, 60);
place = (297, 60);
type = Stem;
},
{
horizontal = 1;
place = (0, 21);
target = up;
type = BottomGhost;
}
);
layerId = m01;
shapes = (
{
closed = 1;
nodes = (
(141,627,l),
(201,627,l),
(201,713,l),
(141,713,l)
);
},
{
closed = 1;
nodes = (
(297,627,l),
(357,627,l),
(357,713,l),
(297,713,l)
);
},
{
closed = 1;
nodes = (
(300,-12,o),
(344,26,o),
(380,76,c),
(382,76,l),
(382,0,l),
(443,0,l),
(443,517,l),
(382,517,l),
(382,194,ls),
(382,106,o),
(320,40,o),
(232,40,cs),
(157,40,o),
(110,78,o),
(110,156,cs),
(110,517,l),
(48,517,l),
(48,152,ls),
(48,48,o),
(118,-12,o),
(218,-12,cs)
);
}
);
width = 495;
}
);
note = udieresis;
unicode = 252;
},
{
glyphname = dagger;
layers = (
{
hints = (
{
horizontal = 1;
place = (465, 55);
place = (465, 55);
type = Stem;
},
{
horizontal = 1;
place = (715, -20);
target = down;
type = TopGhost;
},
{
place = (227, 62);
place = (227, 62);
type = Stem;
}
);
layerId = m01;
shapes = (
{
closed = 1;
nodes = (
(227,-104,l),
(289,-104,l),
(289,465,l),
(479,465,l),
(479,520,l),
(289,520,l),
(289,715,l),
(227,715,l),
(227,520,l),
(37,520,l),
(37,465,l),
(227,465,l)
);
}
);
width = 516;
}
);
note = dagger;
unicode = 8224;
},
{
glyphname = degree;
layers = (
{
hints = (
{
horizontal = 1;
place = (459, 41);
place = (459, 41);
type = Stem;
},
{
horizontal = 1;
place = (658, 42);
place = (658, 42);
type = Stem;
},
{
place = (38, 49);
place = (38, 49);
type = Stem;
},
{
place = (231, 49);
place = (231, 49);
type = Stem;
}
);
layerId = m01;
shapes = (
{
closed = 1;
nodes = (
(116,500,o),
(87,533,o),
(87,579,cs),
(87,624,o),
(116,658,o),
(159,658,cs),
(203,658,o),
(231,624,o),
(231,579,cs),
(231,533,o),
(203,500,o),
(159,500,cs)
);
},
{
closed = 1;
nodes = (
(227,459,o),
(280,512,o),
(280,579,cs),
(280,646,o),
(227,700,o),
(159,700,cs),
(92,700,o),
(38,646,o),
(38,579,cs),
(38,512,o),
(92,459,o),
(159,459,cs)
);
}
);
width = 318;
}
);
note = degree;
unicode = 176;
},
{
glyphname = cent;
layers = (
{
hints = (
{
horizontal = 1;
place = (-12, 53);
place = (-12, 53);
type = Stem;
},
{
horizontal = 1;
place = (475, 53);
place = (475, 53);
type = Stem;
},
{
place = (26, 63);
place = (26, 63);
type = Stem;
},
{
place = (236, 46);
place = (236, 46);
type = Stem;
},
{
place = (413, 60);
place = (413, 60);
type = Stem;
}
);
layerId = m01;
shapes = (
{
closed = 1;
nodes = (
(236,-85,l),
(282,-85,l),
(282,-12,l),
(393,-5,o),
(461,68,o),
(473,178,c),
(413,178,l),
(405,102,o),
(357,49,o),
(282,41,c),
(282,475,l),
(350,469,o),
(394,431,o),
(408,361,c),
(469,361,l),
(454,460,o),
(384,521,o),
(282,528,c),
(282,591,l),
(236,591,l),
(236,527,l),
(101,514,o),
(26,402,o),
(26,258,cs),
(26,113,o),
(101,1,o),
(236,-12,c)
);
},
{
closed = 1;
nodes = (
(236,41,l),
(135,54,o),
(89,147,o),
(89,258,cs),
(89,369,o),
(135,462,o),
(236,475,c)
);
}
);
width = 495;
}
);
note = cent;
unicode = 162;
},
{
glyphname = sterling;
layers = (
{
hints = (
{
horizontal = 1;
place = (-11, 57);
place = (-11, 57);
type = Stem;
},
{
horizontal = 1;
place = (308, 51);
place = (308, 51);
type = Stem;
},
{
horizontal = 1;
place = (645, 54);
place = (645, 54);
type = Stem;
},
{
place = (69, 65);
place = (69, 65);
type = Stem;
},
{
place = (435, 62);
place = (435, 62);
type = Stem;
},
{
horizontal = 1;
place = (39, 50);
place = (39, 50);
type = Stem;
},
{
place = (137, 60);
place = (137, 60);
type = Stem;
},
{
horizontal = 1;
place = (-4, 21);
target = up;
type = BottomGhost;
}
);
layerId = m01;
shapes = (
{
closed = 1;
nodes = (
(433,-11,o),
(473,13,o),
(513,49,c),
(477,94,l),
(448,68,o),
(414,46,o),
(373,46,cs),
(310,46,o),
(269,89,o),
(197,89,cs),
(166,89,o),
(149,83,o),
(123,71,c),
(122,73,l),
(170,113,o),
(197,165,o),
(197,237,cs),
(197,261,o),
(192,285,o),
(187,308,c),
(331,308,l),
(331,359,l),
(171,359,l),
(154,409,o),
(134,456,o),
(134,504,cs),
(134,589,o),
(187,645,o),
(281,645,cs),
(362,645,o),
(433,599,o),
(435,481,c),
(497,481,l),
(495,625,o),
(401,699,o),
(284,699,cs),
(144,699,o),
(69,610,o),
(69,505,cs),
(69,451,o),
(86,404,o),
(104,359,c),
(38,359,l),
(38,308,l),
(121,308,l),
(130,282,o),
(137,254,o),
(137,227,cs),
(137,144,o),
(95,93,o),
(34,49,c),
(71,-4,l),
(100,16,o),
(135,39,o),
(175,39,cs),
(254,39,o),
(279,-11,o),
(370,-11,cs)
);
}
);
width = 535;
}
);
note = sterling;
unicode = 163;
},
{
glyphname = section;
layers = (
{
hints = (
{
horizontal = 1;
place = (-184, 57);
place = (-184, 57);
type = Stem;
},
{
horizontal = 1;
place = (643, 57);
place = (643, 57);
type = Stem;
},
{
place = (28, 64);
place = (28, 64);
type = Stem;
},
{
place = (470, 64);
place = (470, 64);
type = Stem;
},
{
place = (398, 66);
place = (398, 66);
type = Stem;
},
{
place = (102, 66);
place = (102, 66);
type = Stem;
}
);
layerId = m01;
shapes = (
{
closed = 1;
nodes = (
(400,-184,o),
(464,-125,o),
(464,-40,cs),
(464,-2,o),
(448,28,o),
(421,56,c),
(492,77,o),
(534,124,o),
(534,194,cs),
(534,296,o),
(440,348,o),
(323,410,cs),
(222,465,o),
(168,493,o),
(168,554,cs),
(168,604,o),
(203,643,o),
(277,643,cs),
(353,643,o),
(400,601,o),
(405,525,c),
(470,525,l),
(463,628,o),
(396,700,o),
(279,700,cs),
(171,700,o),
(102,639,o),
(102,551,cs),
(102,514,o),
(116,484,o),
(140,458,c),
(74,437,o),
(28,395,o),
(28,322,cs),
(28,227,o),
(111,177,o),
(235,106,cs),
(348,40,o),
(398,16,o),
(398,-41,cs),
(398,-95,o),
(362,-127,o),
(291,-127,cs),
(201,-127,o),
(150,-76,o),
(145,6,c),
(80,6,l),
(83,-96,o),
(158,-184,o),
(290,-184,cs)
);
},
{
closed = 1;
nodes = (
(347,115,o),
(305,138,o),
(261,163,cs),
(141,232,o),
(92,261,o),
(92,327,cs),
(92,375,o),
(122,410,o),
(180,423,c),
(211,400,o),
(250,379,o),
(295,354,cs),
(410,291,o),
(470,259,o),
(470,192,cs),
(470,150,o),
(448,107,o),
(382,89,c)
);
}
);
width = 562;
}
);
note = section;
unicode = 167;
},
{
glyphname = bullet;
layers = (
{
hints = (
{
horizontal = 1;
place = (218, 215);
place = (218, 215);
type = Stem;
},
{
place = (36, 216);
place = (36, 216);
type = Stem;
}
);
layerId = m01;
shapes = (
{
closed = 1;
nodes = (
(204,218,o),
(252,266,o),
(252,325,cs),
(252,384,o),
(204,433,o),
(145,433,cs),
(85,433,o),
(36,384,o),
(36,325,cs),
(36,266,o),
(85,218,o),
(145,218,cs)
);
}
);
width = 288;
}
);
note = bullet;
unicode = 8226;
},
{
glyphname = paragraph;
layers = (
{
hints = (
{
horizontal = 1;
place = (0, 21);
target = up;
type = BottomGhost;
},
{
horizontal = 1;
place = (654, 61);
place = (654, 61);
type = Stem;
},
{
place = (254, 60);
place = (254, 60);
type = Stem;
},
{
place = (386, 61);
place = (386, 61);
type = Stem;
}
);
layerId = m01;
shapes = (
{
closed = 1;
nodes = (
(254,0,l),
(314,0,l),
(314,654,l),
(386,654,l),
(386,0,l),
(447,0,l),
(447,715,l),
(214,715,ls),
(154,715,o),
(108,700,o),
(78,668,cs),
(47,637,o),
(29,595,o),
(29,545,cs),
(29,436,o),
(94,370,o),
(221,370,cs),
(254,370,l)
);
}
);
width = 511;
}
);
note = paragraph;
unicode = 182;
},
{
glyphname = germandbls;
kernLeft = germandbls;
kernRight = germandbls;
layers = (
{
hints = (
{
horizontal = 1;
place = (-7, 52);
place = (-7, 52);
type = Stem;
},
{
horizontal = 1;
place = (374, 49);
place = (374, 49);
type = Stem;
},
{
horizontal = 1;
place = (672, 51);
place = (672, 51);
type = Stem;
},
{
place = (52, 62);
place = (52, 62);
type = Stem;
},
{
place = (360, 62);
place = (360, 62);
type = Stem;
},
{
place = (393, 64);
place = (393, 64);
type = Stem;
},
{
horizontal = 1;
place = (0, 21);
target = up;
type = BottomGhost;
},
{
horizontal = 1;
place = (-1, 21);
target = up;
type = BottomGhost;
}
);
layerId = m01;
shapes = (
{
closed = 1;
nodes = (
(372,-7,o),
(457,70,o),
(457,209,cs),
(457,314,o),
(401,378,o),
(320,403,c),
(320,405,l),
(387,429,o),
(422,481,o),
(422,554,cs),
(422,651,o),
(347,723,o),
(240,723,cs),
(125,723,o),
(52,653,o),
(52,544,cs),
(52,0,l),
(114,0,l),
(114,541,ls),
(114,622,o),
(161,672,o),
(239,672,cs),
(315,672,o),
(360,623,o),
(360,552,cs),
(360,479,o),
(316,423,o),
(237,423,cs),
(197,423,l),
(197,374,l),
(234,374,ls),
(338,374,o),
(393,308,o),
(393,206,cs),
(393,104,o),
(334,47,o),
(243,45,cs),
(227,45,o),
(209,47,o),
(192,50,cs),
(190,50,l),
(190,-1,l),
(206,-5,o),
(233,-7,o),
(245,-7,cs)
);
}
);
width = 483;
}
);
note = germandbls;
unicode = 223;
},
{
glyphname = registered;
kernLeft = registered;
layers = (
{
hints = (
{
horizontal = 1;
place = (244, 32);
place = (244, 32);
type = Stem;
},
{
horizontal = 1;
place = (468, 34);
place = (468, 34);
type = Stem;
},
{
horizontal = 1;
place = (583, 36);
place = (583, 36);
type = Stem;
},
{
horizontal = 1;
place = (696, 32);
place = (696, 32);
type = Stem;
},
{
place = (27, 38);
place = (27, 38);
type = Stem;
},
{
place = (171, 44);
place = (171, 44);
type = Stem;
},
{
place = (325, 44);
place = (325, 44);
type = Stem;
},
{
place = (463, 38);
place = (463, 38);
type = Stem;
}
);
layerId = m01;
shapes = (
{
closed = 1;
nodes = (
(171,360,l),
(215,360,l),
(215,468,l),
(267,468,ls),
(301,468,o),
(317,451,o),
(318,419,cs),
(320,388,o),
(322,363,o),
(329,360,c),
(372,360,l),
(372,362,l),
(365,366,o),
(365,390,o),
(361,428,cs),
(359,461,o),
(347,477,o),
(321,484,c),
(321,485,l),
(354,494,o),
(369,517,o),
(369,547,cs),
(369,590,o),
(337,619,o),
(289,619,cs),
(171,619,l)
);
},
{
closed = 1;
nodes = (
(215,502,l),
(215,583,l),
(280,583,ls),
(311,583,o),
(325,566,o),
(325,542,cs),
(325,518,o),
(310,502,o),
(279,502,cs)
);
},
{
closed = 1;
nodes = (
(148,276,o),
(65,364,o),
(65,486,cs),
(65,607,o),
(148,696,o),
(264,696,cs),
(380,696,o),
(463,607,o),
(463,486,cs),
(463,364,o),
(380,276,o),
(264,276,cs)
);
},
{
closed = 1;
nodes = (
(396,244,o),
(501,346,o),
(501,486,cs),
(501,625,o),
(396,728,o),
(264,728,cs),
(132,728,o),
(27,625,o),
(27,486,cs),
(27,346,o),
(132,244,o),
(264,244,cs)
);
}
);
width = 528;
}
);
note = registered;
unicode = 174;
},
{
glyphname = copyright;
kernLeft = copyright;
kernRight = copyright;
layers = (
{
hints = (
{
horizontal = 1;
place = (-17, 35);
place = (-17, 35);
type = Stem;
},
{
horizontal = 1;
place = (124, 51);
place = (124, 51);
type = Stem;
},
{
horizontal = 1;
place = (538, 52);
place = (538, 52);
type = Stem;
},
{
horizontal = 1;
place = (693, 35);
place = (693, 35);
type = Stem;
},
{
place = (41, 43);
place = (41, 43);
type = Stem;
},
{
place = (202, 62);
place = (202, 62);
type = Stem;
},
{
place = (728, 43);
place = (728, 43);
type = Stem;
}
);
layerId = m01;
shapes = (
{
closed = 1;
nodes = (
(468,124,o),
(513,144,o),
(544,176,cs),
(573,205,o),
(590,247,o),
(592,289,c),
(533,289,l),
(526,224,o),
(483,175,o),
(408,175,cs),
(317,175,o),
(264,251,o),
(264,355,cs),
(264,458,o),
(313,538,o),
(410,538,cs),
(475,538,o),
(516,502,o),
(526,448,c),
(587,448,l),
(573,531,o),
(510,590,o),
(410,590,cs),
(280,590,o),
(202,490,o),
(202,355,cs),
(202,220,o),
(285,124,o),
(408,124,cs)
);
},
{
closed = 1;
nodes = (
(221,18,o),
(84,161,o),
(84,355,cs),
(84,549,o),
(221,693,o),
(406,693,cs),
(591,693,o),
(728,549,o),
(728,355,cs),
(728,161,o),
(591,18,o),
(406,18,cs)
);
},
{
closed = 1;
nodes = (
(611,-17,o),
(771,141,o),
(771,355,cs),
(771,569,o),
(611,728,o),
(406,728,cs),
(201,728,o),
(41,569,o),
(41,355,cs),
(41,141,o),
(201,-17,o),
(406,-17,cs)
);
}
);
width = 812;
}
);
note = copyright;
unicode = 169;
},
{
glyphname = trademark;
kernLeft = trademark;
layers = (
{
hints = (
{
horizontal = 1;
place = (429, 57);
place = (429, 57);
type = Stem;
},
{
horizontal = 1;
place = (675, 40);
place = (675, 40);
type = Stem;
},
{
place = (125, 46);
place = (125, 46);
type = Stem;
},
{
place = (311, 43);
place = (311, 43);
type = Stem;
},
{
place = (548, 43);
place = (548, 43);
type = Stem;
}
);
layerId = m01;
shapes = (
{
closed = 1;
nodes = (
(311,429,l),
(354,429,l),
(354,659,l),
(356,659,l),
(356,659,o),
(371,605,o),
(383,568,cs),
(428,429,l),
(473,429,l),
(518,568,ls),
(531,608,o),
(546,659,o),
(546,659,c),
(548,659,l),
(548,429,l),
(591,429,l),
(591,715,l),
(523,715,l),
(451,486,l),
(450,486,l),
(378,715,l),
(311,715,l)
);
},
{
closed = 1;
nodes = (
(125,429,l),
(171,429,l),
(171,675,l),
(263,675,l),
(263,715,l),
(33,715,l),
(33,675,l),
(125,675,l)
);
}
);
width = 636;
}
);
note = trademark;
unicode = 8482;
},
{
glyphname = acute;
layers = (
{
hints = (
{
horizontal = 1;
place = (592, 127);
place = (592, 127);
type = Stem;
},
{
place = (209, 148);
place = (209, 148);
type = Stem;
}
);
layerId = m01;
shapes = (
{
closed = 1;
nodes = (
(209,592,l),
(263,592,l),
(357,719,l),
(275,719,l)
);
}
);
width = 500;
}
);
note = acute;
unicode = 180;
},
{
glyphname = dieresis;
layers = (
{
hints = (
{
horizontal = 1;
place = (627, 86);
place = (627, 86);
type = Stem;
},
{
place = (148, 60);
place = (148, 60);
type = Stem;
},
{
place = (304, 60);
place = (304, 60);
type = Stem;
}
);
layerId = m01;
shapes = (
{
closed = 1;
nodes = (
(148,627,l),
(208,627,l),
(208,713,l),
(148,713,l)
);
},
{
closed = 1;
nodes = (
(304,627,l),
(364,627,l),
(364,713,l),
(304,713,l)
);
}
);
width = 512;
}
);
note = dieresis;
unicode = 168;
},
{
glyphname = notequal;
layers = (
{
hints = (
{
horizontal = 1;
place = (204, 53);
place = (204, 53);
type = Stem;
},
{
horizontal = 1;
place = (364, 53);
place = (364, 53);
type = Stem;
},
{
place = (55, 420);
place = (55, 420);
type = Stem;
},
{
horizontal = 1;
place = (364, 163);
place = (364, 163);
type = Stem;
}
);
layerId = m01;
shapes = (
{
closed = 1;
nodes = (
(134,86,l),
(190,86,l),
(245,204,l),
(475,204,l),
(475,257,l),
(269,257,l),
(320,364,l),
(475,364,l),
(475,417,l),
(344,417,l),
(396,527,l),
(340,527,l),
(288,417,l),
(55,417,l),
(55,364,l),
(264,364,l),
(213,257,l),
(55,257,l),
(55,204,l),
(189,204,l)
);
}
);
width = 530;
}
);
note = notequal;
unicode = 8800;
},
{
glyphname = AE;
kernLeft = AE;
kernRight = E;
layers = (
{
hints = (
{
horizontal = 1;
place = (0, 62);
place = (0, 62);
type = Stem;
},
{
horizontal = 1;
place = (225, 55);
place = (225, 55);
type = Stem;
},
{
horizontal = 1;
place = (341, 58);
place = (341, 58);
type = Stem;
},
{
horizontal = 1;
place = (656, 59);
place = (656, 59);
type = Stem;
},
{
place = (453, 67);
place = (453, 67);
type = Stem;
}
);
layerId = m01;
shapes = (
{
closed = 1;
nodes = (
(11,0,l),
(79,0,l),
(167,225,l),
(453,225,l),
(453,0,l),
(909,0,l),
(909,62,l),
(520,62,l),
(520,341,l),
(862,341,l),
(862,399,l),
(520,399,l),
(520,656,l),
(898,656,l),
(898,715,l),
(293,715,l)
);
},
{
closed = 1;
nodes = (
(188,280,l),
(336,656,l),
(453,656,l),
(453,280,l)
);
}
);
width = 945;
}
);
note = AE;
unicode = 198;
},
{
glyphname = Oslash;
kernLeft = C;
kernRight = O;
layers = (
{
hints = (
{
horizontal = 1;
place = (-14, 60);
place = (-14, 60);
type = Stem;
},
{
horizontal = 1;
place = (670, 60);
place = (670, 60);
type = Stem;
},
{
place = (36, 70);
place = (36, 70);
type = Stem;
},
{
place = (632, 70);
place = (632, 70);
type = Stem;
},
{
horizontal = 1;
place = (699, -20);
target = down;
type = TopGhost;
}
);
layerId = m01;
shapes = (
{
closed = 1;
nodes = (
(61,-16,l),
(143,74,l),
(199,19,o),
(276,-14,o),
(368,-14,cs),
(571,-14,o),
(702,145,o),
(702,358,cs),
(702,455,o),
(674,541,o),
(626,606,c),
(710,699,l),
(677,729,l),
(596,639,l),
(538,696,o),
(461,730,o),
(368,730,cs),
(166,730,o),
(36,571,o),
(36,358,cs),
(36,260,o),
(64,173,o),
(113,108,c),
(28,14,l)
);
},
{
closed = 1;
nodes = (
(158,157,l),
(123,211,o),
(106,281,o),
(106,358,cs),
(106,531,o),
(197,670,o),
(368,670,cs),
(447,670,o),
(509,641,o),
(553,592,c)
);
},
{
closed = 1;
nodes = (
(290,46,o),
(230,75,o),
(185,121,c),
(580,557,l),
(615,503,o),
(632,433,o),
(632,358,cs),
(632,185,o),
(540,46,o),
(368,46,cs)
);
}
);
width = 738;
}
);
note = Oslash;
unicode = 216;
},
{
glyphname = infinity;
layers = (
{
hints = (
{
horizontal = 1;
place = (133, 54);
place = (133, 54);
type = Stem;
},
{
horizontal = 1;
place = (423, 53);
place = (423, 53);
type = Stem;
},
{
place = (37, 61);
place = (37, 61);
type = Stem;
},
{
place = (617, 61);
place = (617, 61);
type = Stem;
}
);
layerId = m01;
shapes = (
{
closed = 1;
nodes = (
(268,133,o),
(319,190,o),
(360,256,c),
(401,190,o),
(449,133,o),
(527,133,cs),
(620,133,o),
(678,202,o),
(678,305,cs),
(678,407,o),
(620,476,o),
(527,476,cs),
(449,476,o),
(401,419,o),
(360,353,c),
(319,419,o),
(268,476,o),
(187,476,cs),
(86,476,o),
(37,396,o),
(37,305,cs),
(37,213,o),
(86,133,o),
(187,133,cs)
);
},
{
closed = 1;
nodes = (
(126,187,o),
(98,240,o),
(98,305,cs),
(98,369,o),
(126,423,o),
(190,423,cs),
(251,423,o),
(291,366,o),
(327,304,c),
(291,243,o),
(251,187,o),
(190,187,cs)
);
},
{
closed = 1;
nodes = (
(467,187,o),
(430,243,o),
(394,304,c),
(430,366,o),
(467,423,o),
(524,423,cs),
(588,423,o),
(617,369,o),
(617,305,cs),
(617,240,o),
(588,187,o),
(524,187,cs)
);
}
);
width = 715;
}
);
note = infinity;
unicode = 8734;
},
{
glyphname = plusminus;
layers = (
{
hints = (
{
horizontal = 1;
place = (0, 53);
place = (0, 53);
type = Stem;
},
{
horizontal = 1;
place = (313, 54);
place = (313, 54);
type = Stem;
},
{
place = (237, 56);
place = (237, 56);
type = Stem;
}
);
layerId = m01;
shapes = (
{
closed = 1;
nodes = (
(237,133,l),
(293,133,l),
(293,313,l),
(475,313,l),
(475,367,l),
(293,367,l),
(293,545,l),
(237,545,l),
(237,367,l),
(55,367,l),
(55,313,l),
(237,313,l)
);
},
{
closed = 1;
nodes = (
(55,0,l),
(475,0,l),
(475,53,l),
(55,53,l)
);
}
);
width = 530;
}
);
note = plusminus;
unicode = 177;
},
{
glyphname = lessequal;
layers = (
{
hints = (
{
horizontal = 1;
place = (0, 53);
place = (0, 53);
type = Stem;
},
{
place = (50, 52);
place = (50, 52);
type = Stem;
}
);
layerId = m01;
shapes = (
{
closed = 1;
nodes = (
(445,113,l),
(445,172,l),
(102,313,l),
(102,315,l),
(445,455,l),
(445,514,l),
(50,347,l),
(50,280,l)
);
},
{
closed = 1;
nodes = (
(50,0,l),
(445,0,l),
(445,53,l),
(50,53,l)
);
}
);
width = 499;
}
);
note = lessequal;
unicode = 8804;
},
{
glyphname = greaterequal;
layers = (
{
hints = (
{
horizontal = 1;
place = (0, 53);
place = (0, 53);
type = Stem;
},
{
place = (397, 52);
place = (397, 52);
type = Stem;
}
);
layerId = m01;
shapes = (
{
closed = 1;
nodes = (
(54,113,l),
(449,280,l),
(449,347,l),
(54,514,l),
(54,455,l),
(397,315,l),
(397,313,l),
(54,172,l)
);
},
{
closed = 1;
nodes = (
(54,0,l),
(449,0,l),
(449,53,l),
(54,53,l)
);
}
);
width = 499;
}
);
note = greaterequal;
unicode = 8805;
},
{
glyphname = yen;
layers = (
{
hints = (
{
horizontal = 1;
place = (0, 207);
place = (0, 207);
type = Stem;
},
{
horizontal = 1;
place = (280, 46);
place = (280, 46);
type = Stem;
},
{
horizontal = 1;
place = (686, -20);
target = down;
type = TopGhost;
},
{
place = (240, 63);
place = (240, 63);
type = Stem;
},
{
horizontal = 1;
place = (161, 46);
place = (161, 46);
type = Stem;
}
);
layerId = m01;
shapes = (
{
closed = 1;
nodes = (
(240,0,l),
(303,0,l),
(303,161,l),
(484,161,l),
(484,207,l),
(303,207,l),
(303,280,l),
(484,280,l),
(484,326,l),
(315,326,l),
(532,686,l),
(463,686,l),
(273,360,l),
(271,360,l),
(84,686,l),
(11,686,l),
(228,326,l),
(59,326,l),
(59,280,l),
(240,280,l),
(240,207,l),
(59,207,l),
(59,161,l),
(240,161,l)
);
}
);
width = 543;
}
);
note = yen;
unicode = 165;
},
{
glyphname = mu;
layers = (
{
hints = (
{
horizontal = 1;
place = (-166, 21);
target = up;
type = BottomGhost;
},
{
horizontal = 1;
place = (-12, 52);
place = (-12, 52);
type = Stem;
},
{
horizontal = 1;
place = (517, -20);
target = down;
type = TopGhost;
},
{
place = (52, 62);
place = (52, 62);
type = Stem;
},
{
place = (385, 62);
place = (385, 62);
type = Stem;
},
{
horizontal = 1;
place = (0, 21);
target = up;
type = BottomGhost;
}
);
layerId = m01;
shapes = (
{
closed = 1;
nodes = (
(52,-166,l),
(114,-166,l),
(114,34,l),
(116,34,l),
(141,1,o),
(178,-12,o),
(223,-12,cs),
(304,-12,o),
(348,26,o),
(383,76,c),
(385,76,l),
(385,0,l),
(447,0,l),
(447,517,l),
(385,517,l),
(385,194,ls),
(385,106,o),
(323,40,o),
(236,40,cs),
(160,40,o),
(114,78,o),
(114,156,cs),
(114,517,l),
(52,517,l)
);
}
);
width = 499;
}
);
note = mu;
unicode = 181;
},
{
glyphname = partialdiff;
layers = (
{
hints = (
{
horizontal = 1;
place = (-13, 52);
place = (-13, 52);
type = Stem;
},
{
horizontal = 1;
place = (420, 53);
place = (420, 53);
type = Stem;
},
{
horizontal = 1;
place = (721, -20);
target = down;
type = TopGhost;
},
{
place = (36, 65);
place = (36, 65);
type = Stem;
},
{
place = (414, 67);
place = (414, 67);
type = Stem;
}
);
layerId = m01;
shapes = (
{
closed = 1;
nodes = (
(402,-13,o),
(481,125,o),
(481,299,cs),
(481,497,o),
(406,693,o),
(137,721,c),
(137,666,l),
(316,642,o),
(391,529,o),
(412,396,c),
(380,448,o),
(325,473,o),
(265,473,cs),
(129,473,o),
(36,361,o),
(36,208,cs),
(36,82,o),
(112,-13,o),
(243,-13,cs)
);
},
{
closed = 1;
nodes = (
(143,39,o),
(101,122,o),
(101,208,cs),
(101,333,o),
(166,420,o),
(267,420,cs),
(360,420,o),
(414,351,o),
(414,259,cs),
(414,145,o),
(349,39,o),
(244,39,cs)
);
}
);
width = 517;
}
);
note = partialdiff;
unicode = 8706;
},
{
glyphname = summation;
layers = (
{
hints = (
{
horizontal = 1;
place = (-100, 60);
place = (-100, 60);
type = Stem;
},
{
horizontal = 1;
place = (656, 59);
place = (656, 59);
type = Stem;
},
{
place = (41, 513);
place = (41, 513);
type = Stem;
},
{
place = (41, 80);
place = (41, 80);
type = Stem;
},
{
place = (343, 69);
place = (343, 69);
type = Stem;
}
);
layerId = m01;
shapes = (
{
closed = 1;
nodes = (
(41,-100,l),
(554,-100,l),
(554,-40,l),
(118,-40,l),
(118,-38,l),
(412,308,l),
(412,343,l),
(121,654,l),
(121,656,l),
(550,656,l),
(550,715,l),
(41,715,l),
(41,649,l),
(343,324,l),
(343,322,l),
(41,-40,l)
);
}
);
width = 591;
}
);
note = summation;
unicode = 8721;
},
{
glyphname = product;
layers = (
{
hints = (
{
horizontal = 1;
place = (655, 60);
place = (655, 60);
type = Stem;
},
{
place = (69, 67);
place = (69, 67);
type = Stem;
},
{
place = (527, 67);
place = (527, 67);
type = Stem;
}
);
layerId = m01;
shapes = (
{
closed = 1;
nodes = (
(69,-100,l),
(136,-100,l),
(136,655,l),
(527,655,l),
(527,-100,l),
(594,-100,l),
(594,715,l),
(69,715,l)
);
}
);
width = 663;
}
);
note = product;
unicode = 8719;
},
{
glyphname = pi;
layers = (
{
hints = (
{
horizontal = 1;
place = (-4, 54);
place = (-4, 54);
type = Stem;
},
{
horizontal = 1;
place = (466, 51);
place = (466, 51);
type = Stem;
},
{
place = (101, 62);
place = (101, 62);
type = Stem;
},
{
place = (401, 61);
place = (401, 61);
type = Stem;
},
{
horizontal = 1;
place = (0, 21);
target = up;
type = BottomGhost;
}
);
layerId = m01;
shapes = (
{
closed = 1;
nodes = (
(520,-4,o),
(537,-1,o),
(553,5,c),
(553,58,l),
(550,58,l),
(541,54,o),
(527,50,o),
(513,50,cs),
(479,50,o),
(462,62,o),
(462,99,cs),
(462,466,l),
(548,466,l),
(548,517,l),
(20,517,l),
(20,466,l),
(101,466,l),
(101,0,l),
(163,0,l),
(163,466,l),
(401,466,l),
(401,89,ls),
(401,23,o),
(442,-4,o),
(499,-4,cs)
);
}
);
width = 580;
}
);
note = pi;
unicode = 960;
},
{
glyphname = integral;
layers = (
{
hints = (
{
horizontal = 1;
place = (-176, 55);
place = (-176, 55);
type = Stem;
},
{
horizontal = 1;
place = (731, -20);
target = down;
type = TopGhost;
},
{
place = (143, 62);
place = (143, 62);
type = Stem;
},
{
horizontal = 1;
place = (686, 55);
place = (686, 55);
type = Stem;
},
{
horizontal = 1;
place = (-165, 21);
target = up;
type = BottomGhost;
}
);
layerId = m01;
shapes = (
{
closed = 1;
nodes = (
(153,-176,o),
(205,-134,o),
(205,-49,cs),
(205,613,ls),
(205,663,o),
(231,686,o),
(272,686,cs),
(294,686,o),
(313,681,o),
(324,676,c),
(327,676,l),
(327,731,l),
(308,738,o),
(288,741,o),
(263,741,cs),
(195,741,o),
(143,699,o),
(143,614,cs),
(143,-48,ls),
(143,-98,o),
(117,-121,o),
(75,-121,cs),
(54,-121,o),
(34,-116,o),
(23,-111,c),
(20,-111,l),
(20,-165,l),
(39,-173,o),
(59,-176,o),
(84,-176,cs)
);
}
);
width = 356;
}
);
note = integral;
unicode = 8747;
},
{
glyphname = ordfeminine;
layers = (
{
hints = (
{
horizontal = 1;
place = (228, 48);
place = (228, 48);
type = Stem;
},
{
horizontal = 1;
place = (653, 47);
place = (653, 47);
type = Stem;
},
{
place = (38, 63);
place = (38, 63);
type = Stem;
},
{
place = (346, 57);
place = (346, 57);
type = Stem;
},
{
horizontal = 1;
place = (233, 47);
place = (233, 47);
type = Stem;
}
);
layerId = m01;
shapes = (
{
closed = 1;
nodes = (
(276,228,o),
(317,268,o),
(344,305,c),
(346,305,l),
(346,301,ls),
(349,256,o),
(373,233,o),
(419,233,cs),
(438,233,o),
(451,237,o),
(459,240,c),
(459,284,l),
(456,284,l),
(449,282,o),
(441,280,o),
(435,280,cs),
(413,280,o),
(403,293,o),
(403,322,cs),
(403,558,ls),
(403,658,o),
(339,700,o),
(241,700,cs),
(129,700,o),
(69,640,o),
(61,554,c),
(119,554,l),
(126,618,o),
(166,653,o),
(242,653,cs),
(309,653,o),
(345,623,o),
(345,565,cs),
(345,558,ls),
(345,513,o),
(315,505,o),
(228,497,cs),
(123,486,o),
(38,463,o),
(38,357,cs),
(38,273,o),
(107,228,o),
(191,228,cs)
);
},
{
closed = 1;
nodes = (
(149,276,o),
(101,296,o),
(101,357,cs),
(101,430,o),
(153,442,o),
(232,451,cs),
(274,456,o),
(319,465,o),
(346,479,c),
(346,403,ls),
(346,343,o),
(299,276,o),
(201,276,cs)
);
}
);
width = 470;
}
);
note = ordfeminine;
unicode = 170;
},
{
glyphname = ordmasculine;
layers = (
{
hints = (
{
horizontal = 1;
place = (226, 50);
place = (226, 50);
type = Stem;
},
{
horizontal = 1;
place = (652, 48);
place = (652, 48);
type = Stem;
},
{
place = (29, 62);
place = (29, 62);
type = Stem;
},
{
place = (388, 62);
place = (388, 62);
type = Stem;
}
);
layerId = m01;
shapes = (
{
closed = 1;
nodes = (
(142,276,o),
(91,358,o),
(91,463,cs),
(91,568,o),
(142,652,o),
(240,652,cs),
(338,652,o),
(388,568,o),
(388,463,cs),
(388,358,o),
(338,276,o),
(240,276,cs)
);
},
{
closed = 1;
nodes = (
(371,226,o),
(450,329,o),
(450,463,cs),
(450,597,o),
(371,700,o),
(240,700,cs),
(108,700,o),
(29,597,o),
(29,463,cs),
(29,329,o),
(108,226,o),
(240,226,cs)
);
}
);
width = 479;
}
);
note = ordmasculine;
unicode = 186;
},
{
glyphname = Omega;
layers = (
{
hints = (
{
horizontal = 1;
place = (0, 58);
place = (0, 58);
type = Stem;
},
{
horizontal = 1;
place = (670, 60);
place = (670, 60);
type = Stem;
},
{
place = (36, 70);
place = (36, 70);
type = Stem;
},
{
place = (197, 108);
place = (197, 108);
type = Stem;
},
{
place = (604, 70);
place = (604, 70);
type = Stem;
}
);
layerId = m01;
shapes = (
{
closed = 1;
nodes = (
(41,0,l),
(305,0,l),
(305,59,l),
(173,95,o),
(106,225,o),
(106,373,cs),
(106,546,o),
(193,670,o),
(354,670,cs),
(515,670,o),
(604,546,o),
(604,373,cs),
(604,225,o),
(541,95,o),
(405,59,c),
(405,0,l),
(669,0,l),
(669,58,l),
(513,58,l),
(513,60,l),
(613,115,o),
(674,228,o),
(674,371,cs),
(674,584,o),
(544,730,o),
(354,730,cs),
(165,730,o),
(36,584,o),
(36,371,cs),
(36,228,o),
(97,115,o),
(197,60,c),
(197,58,l),
(41,58,l)
);
}
);
width = 710;
}
);
note = Omega;
unicode = 8486;
},
{
glyphname = ae;
kernLeft = a;
kernRight = e;
layers = (
{
hints = (
{
horizontal = 1;
place = (-12, 50);
place = (-12, 50);
type = Stem;
},
{
horizontal = 1;
place = (247, 49);
place = (247, 49);
type = Stem;
},
{
horizontal = 1;
place = (478, 50);
place = (478, 50);
type = Stem;
},
{
place = (23, 65);
place = (23, 65);
type = Stem;
},
{
place = (376, 59);
place = (376, 59);
type = Stem;
},
{
place = (752, 65);
place = (752, 65);
type = Stem;
},
{
horizontal = 1;
place = (-13, 53);
place = (-13, 53);
type = Stem;
},
{
horizontal = 1;
place = (478, 51);
place = (478, 51);
type = Stem;
}
);
layerId = m01;
shapes = (
{
closed = 1;
nodes = (
(296,-12,o),
(361,20,o),
(408,102,c),
(410,102,l),
(447,31,o),
(513,-13,o),
(608,-13,cs),
(719,-13,o),
(791,55,o),
(811,156,c),
(751,156,l),
(733,88,o),
(690,40,o),
(608,40,cs),
(490,40,o),
(438,131,o),
(435,247,c),
(817,247,l),
(818,351,o),
(793,433,o),
(732,484,cs),
(698,513,o),
(654,529,o),
(601,529,cs),
(518,529,o),
(457,490,o),
(421,428,c),
(400,496,o),
(341,528,o),
(253,528,cs),
(126,528,o),
(59,462,o),
(49,363,c),
(110,363,l),
(118,439,o),
(165,478,o),
(253,478,cs),
(332,478,o),
(375,442,o),
(375,372,cs),
(375,364,ls),
(375,312,o),
(341,304,o),
(237,293,cs),
(120,281,o),
(23,257,o),
(23,135,cs),
(23,38,o),
(101,-12,o),
(201,-12,cs)
);
},
{
closed = 1;
nodes = (
(145,38,o),
(88,63,o),
(88,134,cs),
(88,223,o),
(151,235,o),
(241,245,cs),
(291,251,o),
(343,260,o),
(376,277,c),
(376,187,ls),
(376,116,o),
(319,38,o),
(210,38,cs)
);
},
{
closed = 1;
nodes = (
(437,296,l),
(447,399,o),
(498,478,o),
(601,478,cs),
(702,478,o),
(750,398,o),
(752,296,c)
);
}
);
width = 842;
}
);
note = ae;
unicode = 230;
},
{
glyphname = oslash;
kernLeft = c;
kernRight = o;
layers = (
{
hints = (
{
horizontal = 1;
place = (-13, 52);
place = (-13, 52);
type = Stem;
},
{
horizontal = 1;
place = (477, 52);
place = (477, 52);
type = Stem;
},
{
place = (25, 64);
place = (25, 64);
type = Stem;
},
{
place = (440, 63);
place = (440, 63);
type = Stem;
}
);
layerId = m01;
shapes = (
{
closed = 1;
nodes = (
(45,-15,l),
(103,50,l),
(143,10,o),
(198,-13,o),
(265,-13,cs),
(414,-13,o),
(503,104,o),
(503,258,cs),
(503,328,o),
(485,390,o),
(450,437,c),
(511,505,l),
(483,530,l),
(426,466,l),
(386,505,o),
(331,529,o),
(265,529,cs),
(116,529,o),
(25,412,o),
(25,258,cs),
(25,188,o),
(44,125,o),
(78,78,c),
(18,10,l)
);
},
{
closed = 1;
nodes = (
(120,124,l),
(99,161,o),
(89,207,o),
(89,258,cs),
(89,379,o),
(149,477,o),
(265,477,cs),
(317,477,o),
(358,457,o),
(387,423,c)
);
},
{
closed = 1;
nodes = (
(212,39,o),
(171,59,o),
(141,93,c),
(409,392,l),
(430,355,o),
(440,308,o),
(440,258,cs),
(440,137,o),
(380,39,o),
(265,39,cs)
);
}
);
width = 529;
}
);
note = oslash;
unicode = 248;
},
{
glyphname = questiondown;
kernRight = questiondown;
layers = (
{
hints = (
{
horizontal = 1;
place = (-140, 56);
place = (-140, 56);
type = Stem;
},
{
horizontal = 1;
place = (501, 87);
place = (501, 87);
type = Stem;
},
{
place = (41, 66);
place = (41, 66);
type = Stem;
},
{
place = (231, 76);
place = (231, 76);
type = Stem;
},
{
place = (407, 63);
place = (407, 63);
type = Stem;
},
{
place = (239, 60);
place = (239, 60);
type = Stem;
}
);
layerId = m01;
shapes = (
{
closed = 1;
nodes = (
(401,-140,o),
(468,-32,o),
(470,84,c),
(407,84,l),
(404,-13,o),
(349,-84,o),
(246,-84,cs),
(161,-84,o),
(107,-32,o),
(107,44,cs),
(107,120,o),
(151,155,o),
(196,193,cs),
(271,256,o),
(298,301,o),
(299,415,c),
(239,415,l),
(238,315,o),
(218,287,o),
(145,226,cs),
(95,184,o),
(41,141,o),
(41,43,cs),
(41,-60,o),
(117,-140,o),
(243,-140,cs)
);
},
{
closed = 1;
nodes = (
(231,501,l),
(307,501,l),
(307,588,l),
(231,588,l)
);
}
);
width = 497;
}
);
note = questiondown;
unicode = 191;
},
{
glyphname = exclamdown;
kernRight = exclamdown;
layers = (
{
hints = (
{
horizontal = 1;
place = (501, 87);
place = (501, 87);
type = Stem;
},
{
place = (72, 68);
place = (72, 68);
type = Stem;
},
{
place = (68, 76);
place = (68, 76);
type = Stem;
}
);
layerId = m01;
shapes = (
{
closed = 1;
nodes = (
(72,-127,l),
(140,-127,l),
(140,102,l),
(126,415,l),
(87,415,l),
(72,102,l)
);
},
{
closed = 1;
nodes = (
(68,501,l),
(144,501,l),
(144,588,l),
(68,588,l)
);
}
);
width = 212;
}
);
note = exclamdown;
unicode = 161;
},
{
glyphname = logicalnot;
layers = (
{
hints = (
{
horizontal = 1;
place = (329, 53);
place = (329, 53);
type = Stem;
},
{
place = (395, 56);
place = (395, 56);
type = Stem;
}
);
layerId = m01;
shapes = (
{
closed = 1;
nodes = (
(395,139,l),
(451,139,l),
(451,382,l),
(59,382,l),
(59,329,l),
(395,329,l)
);
}
);
width = 530;
}
);
note = logicalnot;
unicode = 172;
},
{
glyphname = radical;
layers = (
{
hints = (
{
horizontal = 1;
place = (-100, 68);
place = (-100, 68);
type = Stem;
},
{
horizontal = 1;
place = (252, 56);
place = (252, 56);
type = Stem;
},
{
horizontal = 1;
place = (715, -20);
target = down;
type = TopGhost;
},
{
place = (13, 540);
place = (13, 540);
type = Stem;
}
);
layerId = m01;
shapes = (
{
closed = 1;
nodes = (
(228,-100,l),
(297,-100,l),
(553,715,l),
(490,715,l),
(299,98,ls),
(282,44,o),
(262,-32,o),
(262,-32,c),
(260,-32,l),
(260,-32,o),
(236,43,o),
(216,95,cs),
(134,308,l),
(13,308,l),
(13,252,l),
(87,252,l)
);
}
);
width = 564;
}
);
note = radical;
unicode = 8730;
},
{
glyphname = florin;
layers = (
{
hints = (
{
horizontal = 1;
place = (-150, 54);
place = (-150, 54);
type = Stem;
},
{
horizontal = 1;
place = (350, 50);
place = (350, 50);
type = Stem;
},
{
horizontal = 1;
place = (637, 54);
place = (637, 54);
type = Stem;
},
{
place = (-20, 340);
place = (-20, 340);
type = Stem;
},
{
place = (39, 254);
place = (39, 254);
type = Stem;
}
);
layerId = m01;
shapes = (
{
closed = 1;
nodes = (
(-20,-148,l),
(-14,-149,o),
(1,-150,o),
(6,-150,cs),
(78,-150,o),
(118,-119,o),
(129,-42,cs),
(184,350,l),
(293,350,l),
(293,400,l),
(191,400,l),
(215,570,ls),
(222,616,o),
(239,637,o),
(286,637,cs),
(290,637,o),
(316,637,o),
(320,636,c),
(320,690,l),
(314,691,o),
(285,691,o),
(280,691,cs),
(204,691,o),
(165,654,o),
(154,577,cs),
(128,400,l),
(39,400,l),
(39,350,l),
(121,350,l),
(67,-38,ls),
(61,-80,o),
(37,-96,o),
(-2,-96,cs),
(-20,-96,l)
);
}
);
width = 335;
}
);
note = florin;
unicode = 402;
},
{
glyphname = approxequal;
layers = (
{
hints = (
{
horizontal = 1;
place = (231, 54);
place = (231, 54);
type = Stem;
},
{
horizontal = 1;
place = (334, 54);
place = (334, 54);
type = Stem;
},
{
place = (45, 54);
place = (45, 54);
type = Stem;
},
{
horizontal = 1;
place = (183, 54);
place = (183, 54);
type = Stem;
},
{
horizontal = 1;
place = (382, 54);
place = (382, 54);
type = Stem;
}
);
layerId = m01;
shapes = (
{
closed = 1;
nodes = (
(99,178,l),
(101,211,o),
(119,231,o),
(150,231,cs),
(203,231,o),
(297,183,o),
(371,183,cs),
(438,183,o),
(474,222,o),
(478,291,c),
(425,291,l),
(423,256,o),
(403,237,o),
(368,237,cs),
(308,237,o),
(220,285,o),
(149,285,cs),
(89,285,o),
(49,248,o),
(45,178,c)
);
},
{
closed = 1;
nodes = (
(99,328,l),
(101,362,o),
(119,382,o),
(150,382,cs),
(203,382,o),
(297,334,o),
(371,334,cs),
(438,334,o),
(474,373,o),
(478,441,c),
(425,441,l),
(423,407,o),
(403,388,o),
(368,388,cs),
(308,388,o),
(220,436,o),
(149,436,cs),
(89,436,o),
(49,399,o),
(45,328,c)
);
}
);
width = 530;
}
);
note = approxequal;
unicode = 8776;
},
{
glyphname = Delta;
layers = (
{
hints = (
{
horizontal = 1;
place = (0, 56);
place = (0, 56);
type = Stem;
},
{
horizontal = 1;
place = (715, -20);
target = down;
type = TopGhost;
},
{
place = (21, 592);
place = (21, 592);
type = Stem;
},
{
horizontal = 1;
place = (652, 63);
place = (652, 63);
type = Stem;
}
);
layerId = m01;
shapes = (
{
closed = 1;
nodes = (
(88,56,l),
(279,548,ls),
(296,591,o),
(315,652,o),
(315,652,c),
(317,652,l),
(317,652,o),
(338,589,o),
(353,548,cs),
(543,56,l)
);
},
{
closed = 1;
nodes = (
(21,0,l),
(613,0,l),
(613,56,l),
(354,715,l),
(278,715,l),
(21,57,l)
);
}
);
width = 634;
}
);
note = Delta;
unicode = 8710;
},
{
glyphname = guillemotleft;
kernLeft = guillemotleft;
kernRight = guillemotleft;
layers = (
{
hints = (
{
horizontal = 1;
place = (121, 301);
place = (121, 301);
type = Stem;
},
{
place = (56, 129);
place = (56, 129);
type = Stem;
},
{
place = (226, 129);
place = (226, 129);
type = Stem;
}
);
layerId = m01;
shapes = (
{
closed = 1;
nodes = (
(185,121,l),
(185,190,l),
(92,270,l),
(92,272,l),
(185,353,l),
(185,422,l),
(56,309,l),
(56,234,l)
);
},
{
closed = 1;
nodes = (
(355,121,l),
(355,190,l),
(262,270,l),
(262,272,l),
(355,353,l),
(355,422,l),
(226,309,l),
(226,234,l)
);
}
);
width = 411;
}
);
note = guillemotleft;
unicode = 171;
},
{
glyphname = guillemotright;
kernLeft = guillemotright;
kernRight = guillemotright;
layers = (
{
hints = (
{
horizontal = 1;
place = (121, 301);
place = (121, 301);
type = Stem;
},
{
place = (56, 129);
place = (56, 129);
type = Stem;
},
{
place = (226, 129);
place = (226, 129);
type = Stem;
}
);
layerId = m01;
shapes = (
{
closed = 1;
nodes = (
(56,121,l),
(185,234,l),
(185,309,l),
(56,422,l),
(56,353,l),
(149,273,l),
(149,271,l),
(56,190,l)
);
},
{
closed = 1;
nodes = (
(226,121,l),
(355,234,l),
(355,309,l),
(226,422,l),
(226,353,l),
(319,273,l),
(319,271,l),
(226,190,l)
);
}
);
width = 411;
}
);
note = guillemotright;
unicode = 187;
},
{
glyphname = ellipsis;
kernLeft = comma;
kernRight = comma;
layers = (
{
hints = (
{
horizontal = 1;
place = (0, 87);
place = (0, 87);
type = Stem;
},
{
place = (42, 76);
place = (42, 76);
type = Stem;
},
{
place = (238, 75);
place = (238, 75);
type = Stem;
},
{
place = (434, 75);
place = (434, 75);
type = Stem;
}
);
layerId = m01;
shapes = (
{
closed = 1;
nodes = (
(42,0,l),
(118,0,l),
(118,87,l),
(42,87,l)
);
},
{
closed = 1;
nodes = (
(238,0,l),
(313,0,l),
(313,87,l),
(238,87,l)
);
},
{
closed = 1;
nodes = (
(434,0,l),
(509,0,l),
(509,87,l),
(434,87,l)
);
}
);
width = 551;
}
);
note = ellipsis;
unicode = 8230;
},
{
glyphname = Agrave;
kernLeft = A;
kernRight = A;
layers = (
{
hints = (
{
horizontal = 1;
place = (0, 21);
target = up;
type = BottomGhost;
},
{
horizontal = 1;
place = (225, 55);
place = (225, 55);
type = Stem;
},
{
horizontal = 1;
place = (715, -20);
target = down;
type = TopGhost;
},
{
horizontal = 1;
place = (753, 114);
place = (753, 114);
type = Stem;
},
{
place = (8, 618);
place = (8, 618);
type = Stem;
},
{
horizontal = 1;
place = (651, 64);
place = (651, 64);
type = Stem;
}
);
layerId = m01;
shapes = (
{
closed = 1;
nodes = (
(8,0,l),
(76,0,l),
(160,225,l),
(471,225,l),
(554,0,l),
(626,0,l),
(354,715,l),
(278,715,l)
);
},
{
closed = 1;
nodes = (
(180,280,l),
(280,547,ls),
(296,590,o),
(315,651,o),
(315,651,c),
(317,651,l),
(317,651,o),
(338,587,o),
(353,547,cs),
(451,280,l)
);
},
{
closed = 1;
nodes = (
(299,753,l),
(353,753,l),
(287,867,l),
(205,867,l)
);
}
);
width = 634;
}
);
note = Agrave;
unicode = 192;
},
{
glyphname = Atilde;
kernLeft = A;
kernRight = A;
layers = (
{
hints = (
{
horizontal = 1;
place = (0, 21);
target = up;
type = BottomGhost;
},
{
horizontal = 1;
place = (225, 55);
place = (225, 55);
type = Stem;
},
{
horizontal = 1;
place = (715, -20);
target = down;
type = TopGhost;
},
{
horizontal = 1;
place = (760, 51);
place = (760, 51);
type = Stem;
},
{
place = (183, 49);
place = (183, 49);
type = Stem;
},
{
place = (404, 48);
place = (404, 48);
type = Stem;
},
{
horizontal = 1;
place = (651, 64);
place = (651, 64);
type = Stem;
},
{
horizontal = 1;
place = (799, 50);
place = (799, 50);
type = Stem;
}
);
layerId = m01;
shapes = (
{
closed = 1;
nodes = (
(8,0,l),
(76,0,l),
(160,225,l),
(471,225,l),
(554,0,l),
(626,0,l),
(354,715,l),
(278,715,l)
);
},
{
closed = 1;
nodes = (
(180,280,l),
(280,547,ls),
(296,590,o),
(315,651,o),
(315,651,c),
(317,651,l),
(317,651,o),
(338,587,o),
(353,547,cs),
(451,280,l)
);
},
{
closed = 1;
nodes = (
(422,760,o),
(449,794,o),
(452,847,c),
(404,847,l),
(402,825,o),
(391,811,o),
(373,811,cs),
(341,811,o),
(304,849,o),
(257,849,cs),
(215,849,o),
(188,819,o),
(183,762,c),
(232,762,l),
(234,785,o),
(246,799,o),
(260,799,cs),
(288,799,o),
(334,760,o),
(378,760,cs)
);
}
);
width = 634;
}
);
note = Atilde;
unicode = 195;
},
{
glyphname = Otilde;
kernLeft = C;
kernRight = O;
layers = (
{
hints = (
{
horizontal = 1;
place = (-14, 60);
place = (-14, 60);
type = Stem;
},
{
horizontal = 1;
place = (670, 60);
place = (670, 60);
type = Stem;
},
{
horizontal = 1;
place = (760, 51);
place = (760, 51);
type = Stem;
},
{
place = (36, 70);
place = (36, 70);
type = Stem;
},
{
place = (456, 48);
place = (456, 48);
type = Stem;
},
{
place = (632, 70);
place = (632, 70);
type = Stem;
},
{
horizontal = 1;
place = (799, 50);
place = (799, 50);
type = Stem;
},
{
place = (235, 49);
place = (235, 49);
type = Stem;
}
);
layerId = m01;
shapes = (
{
closed = 1;
nodes = (
(474,760,o),
(501,794,o),
(504,847,c),
(456,847,l),
(454,825,o),
(443,811,o),
(425,811,cs),
(393,811,o),
(356,849,o),
(309,849,cs),
(267,849,o),
(240,819,o),
(235,762,c),
(284,762,l),
(286,785,o),
(298,799,o),
(312,799,cs),
(340,799,o),
(386,760,o),
(430,760,cs)
);
},
{
closed = 1;
nodes = (
(197,46,o),
(106,185,o),
(106,358,cs),
(106,531,o),
(197,670,o),
(368,670,cs),
(540,670,o),
(632,531,o),
(632,358,cs),
(632,185,o),
(540,46,o),
(368,46,cs)
);
},
{
closed = 1;
nodes = (
(571,-14,o),
(702,145,o),
(702,358,cs),
(702,571,o),
(571,730,o),
(368,730,cs),
(166,730,o),
(36,571,o),
(36,358,cs),
(36,145,o),
(166,-14,o),
(368,-14,cs)
);
}
);
width = 738;
}
);
note = Otilde;
unicode = 213;
},
{
glyphname = OE;
kernLeft = C;
kernRight = E;
layers = (
{
hints = (
{
horizontal = 1;
place = (-14, 60);
place = (-14, 60);
type = Stem;
},
{
horizontal = 1;
place = (341, 58);
place = (341, 58);
type = Stem;
},
{
horizontal = 1;
place = (656, 59);
place = (656, 59);
type = Stem;
},
{
place = (36, 70);
place = (36, 70);
type = Stem;
},
{
place = (577, 67);
place = (577, 67);
type = Stem;
},
{
horizontal = 1;
place = (0, 62);
place = (0, 62);
type = Stem;
},
{
horizontal = 1;
place = (670, 60);
place = (670, 60);
type = Stem;
}
);
layerId = m01;
shapes = (
{
closed = 1;
nodes = (
(457,-14,o),
(530,26,o),
(577,96,c),
(577,0,l),
(1050,0,l),
(1050,62,l),
(644,62,l),
(644,341,l),
(1009,341,l),
(1009,399,l),
(644,399,l),
(644,656,l),
(1039,656,l),
(1039,715,l),
(577,715,l),
(577,614,l),
(531,686,o),
(458,730,o),
(360,730,cs),
(168,730,o),
(36,571,o),
(36,358,cs),
(36,145,o),
(166,-14,o),
(360,-14,cs)
);
},
{
closed = 1;
nodes = (
(195,46,o),
(106,185,o),
(106,358,cs),
(106,531,o),
(196,670,o),
(360,670,cs),
(476,670,o),
(572,591,o),
(577,481,c),
(577,243,ls),
(577,126,o),
(477,46,o),
(360,46,cs)
);
}
);
width = 1086;
}
);
note = OE;
unicode = 338;
},
{
glyphname = oe;
kernLeft = c;
kernRight = e;
layers = (
{
hints = (
{
horizontal = 1;
place = (-13, 52);
place = (-13, 52);
type = Stem;
},
{
horizontal = 1;
place = (247, 49);
place = (247, 49);
type = Stem;
},
{
horizontal = 1;
place = (477, 52);
place = (477, 52);
type = Stem;
},
{
place = (25, 64);
place = (25, 64);
type = Stem;
},
{
place = (420, 60);
place = (420, 60);
type = Stem;
},
{
place = (797, 65);
place = (797, 65);
type = Stem;
}
);
layerId = m01;
shapes = (
{
closed = 1;
nodes = (
(350,-13,o),
(416,38,o),
(450,120,c),
(483,38,o),
(550,-13,o),
(652,-13,cs),
(764,-13,o),
(835,55,o),
(855,156,c),
(796,156,l),
(777,88,o),
(735,40,o),
(652,40,cs),
(535,40,o),
(482,131,o),
(480,247,c),
(862,247,l),
(862,351,o),
(838,432,o),
(777,484,cs),
(743,513,o),
(699,529,o),
(645,529,cs),
(550,529,o),
(483,477,o),
(450,396,c),
(416,476,o),
(350,529,o),
(255,529,cs),
(110,529,o),
(25,412,o),
(25,258,cs),
(25,104,o),
(110,-13,o),
(255,-13,cs)
);
},
{
closed = 1;
nodes = (
(145,39,o),
(89,137,o),
(89,258,cs),
(89,379,o),
(145,477,o),
(255,477,cs),
(364,477,o),
(420,379,o),
(420,258,cs),
(420,137,o),
(364,39,o),
(255,39,cs)
);
},
{
closed = 1;
nodes = (
(479,296,l),
(490,399,o),
(543,478,o),
(646,478,cs),
(749,478,o),
(794,398,o),
(797,296,c)
);
}
);
width = 886;
}
);
note = oe;
unicode = 339;
},
{
glyphname = endash;
kernLeft = hyphen;
kernRight = hyphen;
layers = (
{
hints = (
{
horizontal = 1;
place = (228, 53);
place = (228, 53);
type = Stem;
},
{
place = (42, 415);
place = (42, 415);
type = Stem;
}
);
layerId = m01;
shapes = (
{
closed = 1;
nodes = (
(42,228,l),
(457,228,l),
(457,281,l),
(42,281,l)
);
}
);
width = 499;
}
);
note = endash;
unicode = 8211;
},
{
glyphname = emdash;
kernLeft = hyphen;
kernRight = hyphen;
layers = (
{
hints = (
{
horizontal = 1;
place = (228, 53);
place = (228, 53);
type = Stem;
},
{
place = (42, 683);
place = (42, 683);
type = Stem;
}
);
layerId = m01;
shapes = (
{
closed = 1;
nodes = (
(42,228,l),
(725,228,l),
(725,281,l),
(42,281,l)
);
}
);
width = 767;
}
);
note = emdash;
unicode = 8212;
},
{
glyphname = quotedblleft;
kernLeft = quotedblleft;
kernRight = quotedblleft;
layers = (
{
hints = (
{
horizontal = 1;
place = (530, 86);
place = (530, 86);
type = Stem;
},
{
horizontal = 1;
place = (717, -20);
target = down;
type = TopGhost;
},
{
place = (42, 69);
place = (42, 69);
type = Stem;
},
{
place = (170, 70);
place = (170, 70);
type = Stem;
},
{
horizontal = 1;
place = (684, 33);
place = (684, 33);
type = Stem;
}
);
layerId = m01;
shapes = (
{
closed = 1;
nodes = (
(42,530,l),
(111,530,l),
(111,616,l),
(80,616,l),
(80,624,ls),
(80,661,o),
(93,676,o),
(112,684,c),
(112,717,l),
(69,710,o),
(42,680,o),
(42,621,cs)
);
},
{
closed = 1;
nodes = (
(170,530,l),
(240,530,l),
(240,616,l),
(208,616,l),
(208,624,ls),
(208,661,o),
(221,676,o),
(240,684,c),
(240,717,l),
(197,710,o),
(170,680,o),
(170,621,cs)
);
}
);
width = 282;
}
);
note = quotedblleft;
unicode = 8220;
},
{
glyphname = quotedblright;
kernLeft = quotedblright;
kernRight = quotedblright;
layers = (
{
hints = (
{
horizontal = 1;
place = (629, 86);
place = (629, 86);
type = Stem;
},
{
place = (42, 69);
place = (42, 69);
type = Stem;
},
{
place = (170, 70);
place = (170, 70);
type = Stem;
}
);
layerId = m01;
shapes = (
{
closed = 1;
nodes = (
(41,528,l),
(85,535,o),
(111,565,o),
(111,624,cs),
(111,715,l),
(42,715,l),
(42,629,l),
(73,629,l),
(73,622,ls),
(73,585,o),
(61,569,o),
(41,561,c)
);
},
{
closed = 1;
nodes = (
(169,528,l),
(213,535,o),
(240,565,o),
(240,624,cs),
(240,715,l),
(170,715,l),
(170,629,l),
(201,629,l),
(201,622,ls),
(201,585,o),
(189,569,o),
(169,561,c)
);
}
);
width = 282;
}
);
note = quotedblright;
unicode = 8221;
},
{
glyphname = quoteleft;
kernLeft = quotedblleft;
kernRight = quotedblleft;
layers = (
{
hints = (
{
horizontal = 1;
place = (530, 86);
place = (530, 86);
type = Stem;
},
{
horizontal = 1;
place = (717, -20);
target = down;
type = TopGhost;
},
{
place = (42, 69);
place = (42, 69);
type = Stem;
}
);
layerId = m01;
shapes = (
{
closed = 1;
nodes = (
(42,530,l),
(111,530,l),
(111,616,l),
(80,616,l),
(80,624,ls),
(80,661,o),
(93,676,o),
(112,684,c),
(112,717,l),
(69,710,o),
(42,680,o),
(42,621,cs)
);
}
);
width = 153;
}
);
note = quoteleft;
unicode = 8216;
},
{
glyphname = quoteright;
kernLeft = quotedblright;
kernRight = quotedblright;
layers = (
{
hints = (
{
horizontal = 1;
place = (629, 86);
place = (629, 86);
type = Stem;
},
{
place = (42, 69);
place = (42, 69);
type = Stem;
}
);
layerId = m01;
shapes = (
{
closed = 1;
nodes = (
(41,528,l),
(85,535,o),
(111,565,o),
(111,624,cs),
(111,715,l),
(42,715,l),
(42,629,l),
(73,629,l),
(73,622,ls),
(73,585,o),
(61,569,o),
(41,561,c)
);
}
);
width = 153;
}
);
note = quoteright;
unicode = 8217;
},
{
glyphname = divide;
kernLeft = minus;
kernRight = minus;
layers = (
{
hints = (
{
place = (116, 84);
place = (116, 84);
type = Stem;
},
{
place = (299, 54);
place = (299, 54);
type = Stem;
},
{
place = (452, 84);
place = (452, 84);
type = Stem;
},
{
place = (227, 76);
place = (227, 76);
type = Stem;
}
);
layerId = m01;
shapes = (
{
closed = 1;
nodes = (
(227,116,l),
(303,116,l),
(303,200,l),
(227,200,l)
);
},
{
closed = 1;
nodes = (
(55,299,l),
(475,299,l),
(475,353,l),
(55,353,l)
);
},
{
closed = 1;
nodes = (
(227,452,l),
(303,452,l),
(303,536,l),
(227,536,l)
);
}
);
width = 530;
}
);
note = divide;
unicode = 247;
},
{
glyphname = lozenge;
layers = (
{
hints = (
{
horizontal = 1;
place = (0, 63);
place = (0, 63);
type = Stem;
},
{
horizontal = 1;
place = (652, 63);
place = (652, 63);
type = Stem;
},
{
place = (31, 468);
place = (31, 468);
type = Stem;
}
);
layerId = m01;
shapes = (
{
closed = 1;
nodes = (
(265,63,l),
(102,359,l),
(263,652,l),
(265,652,l),
(428,355,l),
(267,63,l)
);
},
{
closed = 1;
nodes = (
(233,0,l),
(299,0,l),
(499,356,l),
(298,715,l),
(232,715,l),
(31,357,l)
);
}
);
width = 530;
}
);
note = lozenge;
unicode = 9674;
},
{
glyphname = ydieresis;
kernLeft = yacute;
kernRight = yacute;
layers = (
{
hints = (
{
horizontal = 1;
place = (-171, 56);
place = (-171, 56);
type = Stem;
},
{
horizontal = 1;
place = (517, -20);
target = down;
type = TopGhost;
},
{
horizontal = 1;
place = (627, 86);
place = (627, 86);
type = Stem;
},
{
place = (131, 60);
place = (131, 60);
type = Stem;
},
{
place = (287, 60);
place = (287, 60);
type = Stem;
},
{
horizontal = 1;
place = (-163, 21);
target = up;
type = BottomGhost;
}
);
layerId = m01;
shapes = (
{
closed = 1;
nodes = (
(173,-171,o),
(214,-147,o),
(249,-54,cs),
(462,517,l),
(398,517,l),
(279,183,ls),
(262,135,o),
(240,65,o),
(240,65,c),
(238,65,l),
(238,65,o),
(215,135,o),
(197,183,cs),
(73,517,l),
(7,517,l),
(206,1,l),
(189,-45,ls),
(170,-98,o),
(142,-115,o),
(103,-115,cs),
(79,-115,o),
(65,-111,o),
(56,-108,c),
(53,-108,l),
(53,-163,l),
(69,-168,o),
(83,-171,o),
(106,-171,cs)
);
},
{
closed = 1;
nodes = (
(131,627,l),
(191,627,l),
(191,713,l),
(131,713,l)
);
},
{
closed = 1;
nodes = (
(287,627,l),
(347,627,l),
(347,713,l),
(287,713,l)
);
}
);
width = 469;
}
);
note = ydieresis;
unicode = 255;
},
{
glyphname = Ydieresis;
kernLeft = Yacute;
kernRight = Yacute;
layers = (
{
hints = (
{
horizontal = 1;
place = (0, 21);
target = up;
type = BottomGhost;
},
{
horizontal = 1;
place = (715, -20);
target = down;
type = TopGhost;
},
{
horizontal = 1;
place = (757, 86);
place = (757, 86);
type = Stem;
},
{
place = (265, 68);
place = (265, 68);
type = Stem;
},
{
place = (191, 60);
place = (191, 60);
type = Stem;
},
{
place = (347, 60);
place = (347, 60);
type = Stem;
}
);
layerId = m01;
shapes = (
{
closed = 1;
nodes = (
(265,0,l),
(333,0,l),
(333,310,l),
(593,715,l),
(521,715,l),
(301,369,l),
(299,369,l),
(81,715,l),
(7,715,l),
(265,312,l)
);
},
{
closed = 1;
nodes = (
(191,757,l),
(251,757,l),
(251,843,l),
(191,843,l)
);
},
{
closed = 1;
nodes = (
(347,757,l),
(407,757,l),
(407,843,l),
(347,843,l)
);
}
);
width = 600;
}
);
note = Ydieresis;
unicode = 376;
},
{
glyphname = fraction;
layers = (
{
hints = (
{
horizontal = 1;
place = (0, 21);
target = up;
type = BottomGhost;
},
{
horizontal = 1;
place = (715, -20);
target = down;
type = TopGhost;
},
{
place = (-183, 549);
place = (-183, 549);
type = Stem;
}
);
layerId = m01;
shapes = (
{
closed = 1;
nodes = (
(-183,0,l),
(-122,0,l),
(366,715,l),
(306,715,l)
);
}
);
width = 183;
}
);
note = fraction;
unicode = 8260;
},
{
glyphname = Euro;
layers = (
{
hints = (
{
horizontal = 1;
place = (-14, 56);
place = (-14, 56);
type = Stem;
},
{
horizontal = 1;
place = (257, 46);
place = (257, 46);
type = Stem;
},
{
horizontal = 1;
place = (380, 46);
place = (380, 46);
type = Stem;
},
{
horizontal = 1;
place = (645, 55);
place = (645, 55);
type = Stem;
},
{
place = (84, 68);
place = (84, 68);
type = Stem;
},
{
place = (514, 60);
place = (514, 60);
type = Stem;
}
);
layerId = m01;
shapes = (
{
closed = 1;
nodes = (
(479,-14,o),
(566,90,o),
(574,240,c),
(514,240,l),
(502,125,o),
(449,42,o),
(344,42,cs),
(236,42,o),
(174,126,o),
(156,257,c),
(365,257,l),
(365,303,l),
(152,303,l),
(151,315,o),
(151,328,o),
(151,342,cs),
(151,354,o),
(151,367,o),
(152,380,c),
(365,380,l),
(365,426,l),
(155,426,l),
(173,557,o),
(232,645,o),
(343,645,cs),
(433,645,o),
(483,591,o),
(500,498,c),
(563,498,l),
(544,623,o),
(462,700,o),
(344,700,cs),
(206,700,o),
(112,591,o),
(89,426,c),
(22,426,l),
(22,380,l),
(84,380,l),
(83,367,o),
(83,354,o),
(83,342,cs),
(83,328,o),
(83,315,o),
(84,303,c),
(22,303,l),
(22,257,l),
(89,257,l),
(113,90,o),
(208,-14,o),
(342,-14,cs)
);
}
);
width = 604;
}
);
note = Euro;
unicode = 8364;
},
{
glyphname = guilsinglleft;
kernLeft = guillemotleft;
kernRight = guillemotleft;
layers = (
{
hints = (
{
horizontal = 1;
place = (121, 301);
place = (121, 301);
type = Stem;
},
{
place = (56, 139);
place = (56, 139);
type = Stem;
}
);
layerId = m01;
shapes = (
{
closed = 1;
nodes = (
(195,121,l),
(195,190,l),
(91,270,l),
(91,272,l),
(195,353,l),
(195,422,l),
(56,309,l),
(56,234,l)
);
}
);
width = 251;
}
);
note = guilsinglleft;
unicode = 8249;
},
{
glyphname = guilsinglright;
kernLeft = guillemotright;
kernRight = guillemotright;
layers = (
{
hints = (
{
horizontal = 1;
place = (121, 301);
place = (121, 301);
type = Stem;
},
{
place = (56, 139);
place = (56, 139);
type = Stem;
}
);
layerId = m01;
shapes = (
{
closed = 1;
nodes = (
(56,121,l),
(195,234,l),
(195,309,l),
(56,422,l),
(56,353,l),
(159,273,l),
(159,271,l),
(56,190,l)
);
}
);
width = 251;
}
);
note = guilsinglright;
unicode = 8250;
},
{
glyphname = fi;
kernLeft = f;
kernRight = d;
layers = (
{
hints = (
{
horizontal = 1;
place = (0, 21);
target = up;
type = BottomGhost;
},
{
horizontal = 1;
place = (466, 51);
place = (466, 51);
type = Stem;
},
{
horizontal = 1;
place = (666, 54);
place = (666, 54);
type = Stem;
},
{
place = (91, 61);
place = (91, 61);
type = Stem;
},
{
place = (315, 62);
place = (315, 62);
type = Stem;
},
{
horizontal = 1;
place = (627, 88);
place = (627, 88);
type = Stem;
}
);
layerId = m01;
shapes = (
{
closed = 1;
nodes = (
(91,0,l),
(152,0,l),
(152,466,l),
(248,466,l),
(248,517,l),
(152,517,l),
(152,607,ls),
(152,646,o),
(168,666,o),
(220,666,cs),
(247,666,l),
(247,719,l),
(243,719,o),
(219,720,o),
(212,720,cs),
(133,720,o),
(91,686,o),
(91,609,cs),
(91,517,l),
(16,517,l),
(16,466,l),
(91,466,l)
);
},
{
closed = 1;
nodes = (
(315,0,l),
(377,0,l),
(377,517,l),
(315,517,l)
);
},
{
closed = 1;
nodes = (
(315,627,l),
(377,627,l),
(377,715,l),
(315,715,l)
);
}
);
width = 430;
}
);
note = fi;
unicode = 64257;
},
{
glyphname = fl;
kernLeft = f;
kernRight = d;
layers = (
{
hints = (
{
horizontal = 1;
place = (0, 21);
target = up;
type = BottomGhost;
},
{
horizontal = 1;
place = (466, 51);
place = (466, 51);
type = Stem;
},
{
horizontal = 1;
place = (666, 54);
place = (666, 54);
type = Stem;
},
{
place = (91, 61);
place = (91, 61);
type = Stem;
},
{
place = (316, 62);
place = (316, 62);
type = Stem;
},
{
horizontal = 1;
place = (715, -20);
target = down;
type = TopGhost;
}
);
layerId = m01;
shapes = (
{
closed = 1;
nodes = (
(91,0,l),
(152,0,l),
(152,466,l),
(248,466,l),
(248,517,l),
(152,517,l),
(152,607,ls),
(152,646,o),
(168,666,o),
(220,666,cs),
(247,666,l),
(247,719,l),
(243,719,o),
(219,720,o),
(212,720,cs),
(133,720,o),
(91,686,o),
(91,609,cs),
(91,517,l),
(16,517,l),
(16,466,l),
(91,466,l)
);
},
{
closed = 1;
nodes = (
(316,0,l),
(378,0,l),
(378,715,l),
(316,715,l)
);
}
);
width = 433;
}
);
note = fl;
unicode = 64258;
},
{
glyphname = daggerdbl;
layers = (
{
hints = (
{
horizontal = 1;
place = (91, 55);
place = (91, 55);
type = Stem;
},
{
horizontal = 1;
place = (465, 55);
place = (465, 55);
type = Stem;
},
{
horizontal = 1;
place = (715, -20);
target = down;
type = TopGhost;
},
{
place = (227, 62);
place = (227, 62);
type = Stem;
}
);
layerId = m01;
shapes = (
{
closed = 1;
nodes = (
(227,-104,l),
(289,-104,l),
(289,91,l),
(479,91,l),
(479,146,l),
(289,146,l),
(289,465,l),
(479,465,l),
(479,520,l),
(289,520,l),
(289,715,l),
(227,715,l),
(227,520,l),
(37,520,l),
(37,465,l),
(227,465,l),
(227,146,l),
(37,146,l),
(37,91,l),
(227,91,l)
);
}
);
width = 516;
}
);
note = daggerdbl;
unicode = 8225;
},
{
glyphname = periodcentered;
kernLeft = periodcentered;
kernRight = periodcentered;
layers = (
{
hints = (
{
horizontal = 1;
place = (268, 87);
place = (268, 87);
type = Stem;
},
{
place = (43, 76);
place = (43, 76);
type = Stem;
}
);
layerId = m01;
shapes = (
{
closed = 1;
nodes = (
(43,268,l),
(119,268,l),
(119,355,l),
(43,355,l)
);
}
);
width = 160;
}
);
note = periodcentered;
unicode = 183;
},
{
glyphname = quotesinglbase;
kernLeft = quotesinglbase;
kernRight = quotesinglbase;
layers = (
{
hints = (
{
horizontal = 1;
place = (0, 86);
place = (0, 86);
type = Stem;
},
{
place = (42, 69);
place = (42, 69);
type = Stem;
}
);
layerId = m01;
shapes = (
{
closed = 1;
nodes = (
(41,-101,l),
(85,-94,o),
(111,-64,o),
(111,-5,cs),
(111,86,l),
(42,86,l),
(42,0,l),
(73,0,l),
(73,-8,ls),
(73,-45,o),
(61,-60,o),
(41,-68,c)
);
}
);
width = 153;
}
);
note = quotesinglbase;
unicode = 8218;
},
{
glyphname = quotedblbase;
kernLeft = quotesinglbase;
kernRight = quotesinglbase;
layers = (
{
hints = (
{
horizontal = 1;
place = (0, 86);
place = (0, 86);
type = Stem;
},
{
place = (42, 69);
place = (42, 69);
type = Stem;
},
{
place = (170, 70);
place = (170, 70);
type = Stem;
}
);
layerId = m01;
shapes = (
{
closed = 1;
nodes = (
(41,-101,l),
(85,-94,o),
(111,-64,o),
(111,-5,cs),
(111,86,l),
(42,86,l),
(42,0,l),
(73,0,l),
(73,-8,ls),
(73,-45,o),
(61,-60,o),
(41,-68,c)
);
},
{
closed = 1;
nodes = (
(169,-101,l),
(213,-94,o),
(240,-64,o),
(240,-5,cs),
(240,86,l),
(170,86,l),
(170,0,l),
(201,0,l),
(201,-8,ls),
(201,-45,o),
(189,-60,o),
(169,-68,c)
);
}
);
width = 282;
}
);
note = quotedblbase;
unicode = 8222;
},
{
glyphname = perthousand;
kernLeft = percent;
layers = (
{
hints = (
{
horizontal = 1;
place = (0, 21);
target = up;
type = BottomGhost;
},
{
horizontal = 1;
place = (310, 47);
place = (310, 47);
type = Stem;
},
{
horizontal = 1;
place = (652, 48);
place = (652, 48);
type = Stem;
},
{
place = (30, 59);
place = (30, 59);
type = Stem;
},
{
place = (279, 57);
place = (279, 57);
type = Stem;
},
{
horizontal = 1;
place = (-14, 48);
place = (-14, 48);
type = Stem;
},
{
horizontal = 1;
place = (329, 47);
place = (329, 47);
type = Stem;
},
{
horizontal = 1;
place = (685, -20);
target = down;
type = TopGhost;
},
{
place = (443, 58);
place = (443, 58);
type = Stem;
},
{
place = (691, 58);
place = (691, 58);
type = Stem;
},
{
place = (799, 59);
place = (799, 59);
type = Stem;
},
{
place = (1048, 58);
place = (1048, 58);
type = Stem;
}
);
layerId = m01;
shapes = (
{
closed = 1;
nodes = (
(129,357,o),
(89,410,o),
(89,505,cs),
(89,602,o),
(129,652,o),
(184,652,cs),
(237,652,o),
(279,600,o),
(279,505,cs),
(279,408,o),
(239,357,o),
(184,357,cs)
);
},
{
closed = 1;
nodes = (
(272,310,o),
(336,382,o),
(336,505,cs),
(336,631,o),
(268,700,o),
(184,700,cs),
(99,700,o),
(30,629,o),
(30,505,cs),
(30,382,o),
(95,310,o),
(184,310,cs)
);
},
{
closed = 1;
nodes = (
(165,0,l),
(220,0,l),
(614,685,l),
(560,685,l)
);
},
{
closed = 1;
nodes = (
(542,34,o),
(501,86,o),
(501,181,cs),
(501,278,o),
(542,329,o),
(596,329,cs),
(650,329,o),
(691,276,o),
(691,181,cs),
(691,84,o),
(652,34,o),
(596,34,cs)
);
},
{
closed = 1;
nodes = (
(685,-14,o),
(749,59,o),
(749,181,cs),
(749,308,o),
(681,376,o),
(596,376,cs),
(512,376,o),
(443,306,o),
(443,181,cs),
(443,59,o),
(508,-14,o),
(596,-14,cs)
);
},
{
closed = 1;
nodes = (
(898,34,o),
(858,86,o),
(858,181,cs),
(858,278,o),
(898,329,o),
(953,329,cs),
(1007,329,o),
(1048,276,o),
(1048,181,cs),
(1048,84,o),
(1009,34,o),
(953,34,cs)
);
},
{
closed = 1;
nodes = (
(1041,-14,o),
(1106,59,o),
(1106,181,cs),
(1106,308,o),
(1038,376,o),
(953,376,cs),
(868,376,o),
(799,306,o),
(799,181,cs),
(799,59,o),
(865,-14,o),
(953,-14,cs)
);
}
);
width = 1136;
}
);
note = perthousand;
unicode = 8240;
},
{
glyphname = Acircumflex;
kernLeft = A;
kernRight = A;
layers = (
{
hints = (
{
horizontal = 1;
place = (0, 21);
target = up;
type = BottomGhost;
},
{
horizontal = 1;
place = (225, 55);
place = (225, 55);
type = Stem;
},
{
horizontal = 1;
place = (715, -20);
target = down;
type = TopGhost;
},
{
horizontal = 1;
place = (754, 103);
place = (754, 103);
type = Stem;
},
{
place = (8, 618);
place = (8, 618);
type = Stem;
},
{
horizontal = 1;
place = (651, 64);
place = (651, 64);
type = Stem;
}
);
layerId = m01;
shapes = (
{
closed = 1;
nodes = (
(8,0,l),
(76,0,l),
(160,225,l),
(471,225,l),
(554,0,l),
(626,0,l),
(354,715,l),
(278,715,l)
);
},
{
closed = 1;
nodes = (
(180,280,l),
(280,547,ls),
(296,590,o),
(315,651,o),
(315,651,c),
(317,651,l),
(317,651,o),
(338,587,o),
(353,547,cs),
(451,280,l)
);
},
{
closed = 1;
nodes = (
(187,754,l),
(255,754,l),
(315,822,l),
(317,822,l),
(377,754,l),
(447,754,l),
(355,857,l),
(281,857,l)
);
}
);
width = 634;
}
);
note = Acircumflex;
unicode = 194;
},
{
glyphname = Ecircumflex;
kernRight = E;
layers = (
{
hints = (
{
horizontal = 1;
place = (0, 62);
place = (0, 62);
type = Stem;
},
{
horizontal = 1;
place = (341, 58);
place = (341, 58);
type = Stem;
},
{
horizontal = 1;
place = (656, 59);
place = (656, 59);
type = Stem;
},
{
horizontal = 1;
place = (754, 103);
place = (754, 103);
type = Stem;
},
{
place = (64, 67);
place = (64, 67);
type = Stem;
}
);
layerId = m01;
shapes = (
{
closed = 1;
nodes = (
(64,0,l),
(561,0,l),
(561,62,l),
(131,62,l),
(131,341,l),
(515,341,l),
(515,399,l),
(131,399,l),
(131,656,l),
(550,656,l),
(550,715,l),
(64,715,l)
);
},
{
closed = 1;
nodes = (
(189,754,l),
(257,754,l),
(317,822,l),
(319,822,l),
(379,754,l),
(449,754,l),
(357,857,l),
(283,857,l)
);
}
);
width = 598;
}
);
note = Ecircumflex;
unicode = 202;
},
{
glyphname = Aacute;
kernLeft = A;
kernRight = A;
layers = (
{
hints = (
{
horizontal = 1;
place = (0, 21);
target = up;
type = BottomGhost;
},
{
horizontal = 1;
place = (225, 55);
place = (225, 55);
type = Stem;
},
{
horizontal = 1;
place = (715, -20);
target = down;
type = TopGhost;
},
{
horizontal = 1;
place = (753, 114);
place = (753, 114);
type = Stem;
},
{
place = (8, 618);
place = (8, 618);
type = Stem;
},
{
horizontal = 1;
place = (651, 64);
place = (651, 64);
type = Stem;
}
);
layerId = m01;
shapes = (
{
closed = 1;
nodes = (
(8,0,l),
(76,0,l),
(160,225,l),
(471,225,l),
(554,0,l),
(626,0,l),
(354,715,l),
(278,715,l)
);
},
{
closed = 1;
nodes = (
(180,280,l),
(280,547,ls),
(296,590,o),
(315,651,o),
(315,651,c),
(317,651,l),
(317,651,o),
(338,587,o),
(353,547,cs),
(451,280,l)
);
},
{
closed = 1;
nodes = (
(283,753,l),
(337,753,l),
(431,867,l),
(349,867,l)
);
}
);
width = 634;
}
);
note = Aacute;
unicode = 193;
},
{
glyphname = Edieresis;
kernRight = E;
layers = (
{
hints = (
{
horizontal = 1;
place = (0, 62);
place = (0, 62);
type = Stem;
},
{
horizontal = 1;
place = (341, 58);
place = (341, 58);
type = Stem;
},
{
horizontal = 1;
place = (656, 59);
place = (656, 59);
type = Stem;
},
{
horizontal = 1;
place = (757, 86);
place = (757, 86);
type = Stem;
},
{
place = (64, 67);
place = (64, 67);
type = Stem;
},
{
place = (211, 60);
place = (211, 60);
type = Stem;
},
{
place = (367, 60);
place = (367, 60);
type = Stem;
}
);
layerId = m01;
shapes = (
{
closed = 1;
nodes = (
(211,757,l),
(271,757,l),
(271,843,l),
(211,843,l)
);
},
{
closed = 1;
nodes = (
(367,757,l),
(427,757,l),
(427,843,l),
(367,843,l)
);
},
{
closed = 1;
nodes = (
(64,0,l),
(561,0,l),
(561,62,l),
(131,62,l),
(131,341,l),
(515,341,l),
(515,399,l),
(131,399,l),
(131,656,l),
(550,656,l),
(550,715,l),
(64,715,l)
);
}
);
width = 598;
}
);
note = Edieresis;
unicode = 203;
},
{
glyphname = Egrave;
kernRight = E;
layers = (
{
hints = (
{
horizontal = 1;
place = (0, 62);
place = (0, 62);
type = Stem;
},
{
horizontal = 1;
place = (341, 58);
place = (341, 58);
type = Stem;
},
{
horizontal = 1;
place = (656, 211);
place = (656, 211);
type = Stem;
},
{
place = (64, 67);
place = (64, 67);
type = Stem;
},
{
horizontal = 1;
place = (656, 59);
place = (656, 59);
type = Stem;
}
);
layerId = m01;
shapes = (
{
closed = 1;
nodes = (
(301,753,l),
(355,753,l),
(289,867,l),
(207,867,l)
);
},
{
closed = 1;
nodes = (
(64,0,l),
(561,0,l),
(561,62,l),
(131,62,l),
(131,341,l),
(515,341,l),
(515,399,l),
(131,399,l),
(131,656,l),
(550,656,l),
(550,715,l),
(64,715,l)
);
}
);
width = 598;
}
);
note = Egrave;
unicode = 200;
},
{
glyphname = Iacute;
layers = (
{
hints = (
{
horizontal = 1;
place = (0, 21);
target = up;
type = BottomGhost;
},
{
horizontal = 1;
place = (715, -20);
target = down;
type = TopGhost;
},
{
horizontal = 1;
place = (753, 114);
place = (753, 114);
type = Stem;
},
{
place = (67, 67);
place = (67, 67);
type = Stem;
}
);
layerId = m01;
shapes = (
{
closed = 1;
nodes = (
(67,0,l),
(134,0,l),
(134,715,l),
(67,715,l)
);
},
{
closed = 1;
nodes = (
(72,753,l),
(126,753,l),
(220,867,l),
(138,867,l)
);
}
);
width = 202;
}
);
note = Iacute;
unicode = 205;
},
{
glyphname = Icircumflex;
layers = (
{
hints = (
{
horizontal = 1;
place = (0, 21);
target = up;
type = BottomGhost;
},
{
horizontal = 1;
place = (715, -20);
target = down;
type = TopGhost;
},
{
horizontal = 1;
place = (754, 103);
place = (754, 103);
type = Stem;
},
{
place = (67, 67);
place = (67, 67);
type = Stem;
}
);
layerId = m01;
shapes = (
{
closed = 1;
nodes = (
(67,0,l),
(134,0,l),
(134,715,l),
(67,715,l)
);
},
{
closed = 1;
nodes = (
(-29,754,l),
(39,754,l),
(99,822,l),
(101,822,l),
(161,754,l),
(231,754,l),
(139,857,l),
(65,857,l)
);
}
);
width = 202;
}
);
note = Icircumflex;
unicode = 206;
},
{
glyphname = Idieresis;
layers = (
{
hints = (
{
horizontal = 1;
place = (0, 21);
target = up;
type = BottomGhost;
},
{
horizontal = 1;
place = (715, -20);
target = down;
type = TopGhost;
},
{
horizontal = 1;
place = (757, 86);
place = (757, 86);
type = Stem;
},
{
place = (67, 67);
place = (67, 67);
type = Stem;
},
{
place = (-7, 60);
place = (-7, 60);
type = Stem;
},
{
place = (149, 60);
place = (149, 60);
type = Stem;
}
);
layerId = m01;
shapes = (
{
closed = 1;
nodes = (
(67,0,l),
(134,0,l),
(134,715,l),
(67,715,l)
);
},
{
closed = 1;
nodes = (
(-7,757,l),
(53,757,l),
(53,843,l),
(-7,843,l)
);
},
{
closed = 1;
nodes = (
(149,757,l),
(209,757,l),
(209,843,l),
(149,843,l)
);
}
);
width = 202;
}
);
note = Idieresis;
unicode = 207;
},
{
glyphname = Igrave;
layers = (
{
hints = (
{
horizontal = 1;
place = (0, 21);
target = up;
type = BottomGhost;
},
{
horizontal = 1;
place = (715, -20);
target = down;
type = TopGhost;
},
{
horizontal = 1;
place = (753, 114);
place = (753, 114);
type = Stem;
},
{
place = (67, 67);
place = (67, 67);
type = Stem;
}
);
layerId = m01;
shapes = (
{
closed = 1;
nodes = (
(67,0,l),
(134,0,l),
(134,715,l),
(67,715,l)
);
},
{
closed = 1;
nodes = (
(79,753,l),
(133,753,l),
(67,867,l),
(-15,867,l)
);
}
);
width = 202;
}
);
note = Igrave;
unicode = 204;
},
{
glyphname = Oacute;
kernLeft = C;
kernRight = O;
layers = (
{
hints = (
{
horizontal = 1;
place = (-14, 60);
place = (-14, 60);
type = Stem;
},
{
horizontal = 1;
place = (670, 60);
place = (670, 60);
type = Stem;
},
{
place = (36, 70);
place = (36, 70);
type = Stem;
},
{
place = (632, 70);
place = (632, 70);
type = Stem;
},
{
horizontal = 1;
place = (753, 114);
place = (753, 114);
type = Stem;
}
);
layerId = m01;
shapes = (
{
closed = 1;
nodes = (
(332,753,l),
(386,753,l),
(480,867,l),
(398,867,l)
);
},
{
closed = 1;
nodes = (
(197,46,o),
(106,185,o),
(106,358,cs),
(106,531,o),
(197,670,o),
(368,670,cs),
(540,670,o),
(632,531,o),
(632,358,cs),
(632,185,o),
(540,46,o),
(368,46,cs)
);
},
{
closed = 1;
nodes = (
(571,-14,o),
(702,145,o),
(702,358,cs),
(702,571,o),
(571,730,o),
(368,730,cs),
(166,730,o),
(36,571,o),
(36,358,cs),
(36,145,o),
(166,-14,o),
(368,-14,cs)
);
}
);
width = 738;
}
);
note = Oacute;
unicode = 211;
},
{
glyphname = Ocircumflex;
kernLeft = C;
kernRight = O;
layers = (
{
hints = (
{
horizontal = 1;
place = (-14, 60);
place = (-14, 60);
type = Stem;
},
{
horizontal = 1;
place = (670, 60);
place = (670, 60);
type = Stem;
},
{
place = (36, 70);
place = (36, 70);
type = Stem;
},
{
place = (632, 70);
place = (632, 70);
type = Stem;
},
{
horizontal = 1;
place = (754, 103);
place = (754, 103);
type = Stem;
}
);
layerId = m01;
shapes = (
{
closed = 1;
nodes = (
(197,46,o),
(106,185,o),
(106,358,cs),
(106,531,o),
(197,670,o),
(368,670,cs),
(540,670,o),
(632,531,o),
(632,358,cs),
(632,185,o),
(540,46,o),
(368,46,cs)
);
},
{
closed = 1;
nodes = (
(571,-14,o),
(702,145,o),
(702,358,cs),
(702,571,o),
(571,730,o),
(368,730,cs),
(166,730,o),
(36,571,o),
(36,358,cs),
(36,145,o),
(166,-14,o),
(368,-14,cs)
);
},
{
closed = 1;
nodes = (
(239,754,l),
(307,754,l),
(367,822,l),
(369,822,l),
(429,754,l),
(499,754,l),
(407,857,l),
(333,857,l)
);
}
);
width = 738;
}
);
note = Ocircumflex;
unicode = 212;
},
{
glyphname = Ograve;
kernLeft = C;
kernRight = O;
layers = (
{
hints = (
{
horizontal = 1;
place = (-14, 60);
place = (-14, 60);
type = Stem;
},
{
horizontal = 1;
place = (670, 60);
place = (670, 60);
type = Stem;
},
{
place = (36, 70);
place = (36, 70);
type = Stem;
},
{
place = (632, 70);
place = (632, 70);
type = Stem;
},
{
horizontal = 1;
place = (753, 114);
place = (753, 114);
type = Stem;
}
);
layerId = m01;
shapes = (
{
closed = 1;
nodes = (
(353,753,l),
(407,753,l),
(341,867,l),
(259,867,l)
);
},
{
closed = 1;
nodes = (
(197,46,o),
(106,185,o),
(106,358,cs),
(106,531,o),
(197,670,o),
(368,670,cs),
(540,670,o),
(632,531,o),
(632,358,cs),
(632,185,o),
(540,46,o),
(368,46,cs)
);
},
{
closed = 1;
nodes = (
(571,-14,o),
(702,145,o),
(702,358,cs),
(702,571,o),
(571,730,o),
(368,730,cs),
(166,730,o),
(36,571,o),
(36,358,cs),
(36,145,o),
(166,-14,o),
(368,-14,cs)
);
}
);
width = 738;
}
);
note = Ograve;
unicode = 210;
},
{
glyphname = Uacute;
kernLeft = U;
kernRight = U;
layers = (
{
hints = (
{
horizontal = 1;
place = (-11, 58);
place = (-11, 58);
type = Stem;
},
{
horizontal = 1;
place = (715, -20);
target = down;
type = TopGhost;
},
{
horizontal = 1;
place = (753, 114);
place = (753, 114);
type = Stem;
},
{
place = (56, 67);
place = (56, 67);
type = Stem;
},
{
place = (514, 67);
place = (514, 67);
type = Stem;
}
);
layerId = m01;
shapes = (
{
closed = 1;
nodes = (
(283,753,l),
(337,753,l),
(431,867,l),
(349,867,l)
);
},
{
closed = 1;
nodes = (
(471,-11,o),
(581,61,o),
(581,227,cs),
(581,715,l),
(514,715,l),
(514,233,ls),
(514,101,o),
(438,47,o),
(319,47,cs),
(194,47,o),
(123,101,o),
(123,233,cs),
(123,715,l),
(56,715,l),
(56,227,ls),
(56,63,o),
(160,-11,o),
(316,-11,cs)
);
}
);
width = 636;
}
);
note = Uacute;
unicode = 218;
},
{
glyphname = Ucircumflex;
kernLeft = U;
kernRight = U;
layers = (
{
hints = (
{
horizontal = 1;
place = (-11, 58);
place = (-11, 58);
type = Stem;
},
{
horizontal = 1;
place = (715, -20);
target = down;
type = TopGhost;
},
{
horizontal = 1;
place = (754, 103);
place = (754, 103);
type = Stem;
},
{
place = (56, 67);
place = (56, 67);
type = Stem;
},
{
place = (514, 67);
place = (514, 67);
type = Stem;
}
);
layerId = m01;
shapes = (
{
closed = 1;
nodes = (
(471,-11,o),
(581,61,o),
(581,227,cs),
(581,715,l),
(514,715,l),
(514,233,ls),
(514,101,o),
(438,47,o),
(319,47,cs),
(194,47,o),
(123,101,o),
(123,233,cs),
(123,715,l),
(56,715,l),
(56,227,ls),
(56,63,o),
(160,-11,o),
(316,-11,cs)
);
},
{
closed = 1;
nodes = (
(188,754,l),
(256,754,l),
(316,822,l),
(318,822,l),
(378,754,l),
(448,754,l),
(356,857,l),
(282,857,l)
);
}
);
width = 636;
}
);
note = Ucircumflex;
unicode = 219;
},
{
glyphname = Ugrave;
kernLeft = U;
kernRight = U;
layers = (
{
hints = (
{
horizontal = 1;
place = (-11, 58);
place = (-11, 58);
type = Stem;
},
{
horizontal = 1;
place = (715, -20);
target = down;
type = TopGhost;
},
{
horizontal = 1;
place = (753, 114);
place = (753, 114);
type = Stem;
},
{
place = (56, 67);
place = (56, 67);
type = Stem;
},
{
place = (514, 67);
place = (514, 67);
type = Stem;
}
);
layerId = m01;
shapes = (
{
closed = 1;
nodes = (
(300,753,l),
(354,753,l),
(288,867,l),
(206,867,l)
);
},
{
closed = 1;
nodes = (
(471,-11,o),
(581,61,o),
(581,227,cs),
(581,715,l),
(514,715,l),
(514,233,ls),
(514,101,o),
(438,47,o),
(319,47,cs),
(194,47,o),
(123,101,o),
(123,233,cs),
(123,715,l),
(56,715,l),
(56,227,ls),
(56,63,o),
(160,-11,o),
(316,-11,cs)
);
}
);
width = 636;
}
);
note = Ugrave;
unicode = 217;
},
{
glyphname = dotlessi;
kernLeft = m;
kernRight = u;
layers = (
{
hints = (
{
horizontal = 1;
place = (0, 21);
target = up;
type = BottomGhost;
},
{
horizontal = 1;
place = (517, -20);
target = down;
type = TopGhost;
},
{
place = (54, 62);
place = (54, 62);
type = Stem;
}
);
layerId = m01;
shapes = (
{
closed = 1;
nodes = (
(54,0,l),
(116,0,l),
(116,517,l),
(54,517,l)
);
}
);
width = 169;
}
);
note = dotlessi;
unicode = 305;
},
{
glyphname = circumflex;
layers = (
{
hints = (
{
horizontal = 1;
place = (596, 106);
place = (596, 106);
type = Stem;
},
{
place = (129, 242);
place = (129, 242);
type = Stem;
}
);
layerId = m01;
shapes = (
{
closed = 1;
nodes = (
(129,596,l),
(195,596,l),
(248,667,l),
(250,667,l),
(302,596,l),
(371,596,l),
(288,702,l),
(214,702,l)
);
}
);
width = 500;
}
);
note = circumflex;
unicode = 710;
},
{
glyphname = tilde;
layers = (
{
hints = (
{
horizontal = 1;
place = (600, 51);
place = (600, 51);
type = Stem;
},
{
place = (115, 49);
place = (115, 49);
type = Stem;
},
{
place = (336, 48);
place = (336, 48);
type = Stem;
},
{
horizontal = 1;
place = (639, 51);
place = (639, 51);
type = Stem;
}
);
layerId = m01;
shapes = (
{
closed = 1;
nodes = (
(354,600,o),
(381,634,o),
(384,688,c),
(336,688,l),
(334,666,o),
(323,651,o),
(305,651,cs),
(273,651,o),
(236,690,o),
(189,690,cs),
(147,690,o),
(120,659,o),
(115,602,c),
(164,602,l),
(166,625,o),
(178,639,o),
(192,639,cs),
(220,639,o),
(266,600,o),
(310,600,cs)
);
}
);
width = 500;
}
);
note = tilde;
unicode = 732;
},
{
glyphname = macron;
layers = (
{
hints = (
{
horizontal = 1;
place = (627, 56);
place = (627, 56);
type = Stem;
},
{
place = (126, 248);
place = (126, 248);
type = Stem;
}
);
layerId = m01;
shapes = (
{
closed = 1;
nodes = (
(126,627,l),
(374,627,l),
(374,683,l),
(126,683,l)
);
}
);
width = 500;
}
);
note = macron;
unicode = 175;
},
{
glyphname = breve;
layers = (
{
hints = (
{
horizontal = 1;
place = (595, 53);
place = (595, 53);
type = Stem;
},
{
place = (140, 243);
place = (140, 243);
type = Stem;
}
);
layerId = m01;
shapes = (
{
closed = 1;
nodes = (
(332,595,o),
(379,643,o),
(383,703,c),
(332,703,l),
(326,671,o),
(302,648,o),
(261,648,cs),
(220,648,o),
(197,671,o),
(191,703,c),
(140,703,l),
(144,640,o),
(193,595,o),
(261,595,cs)
);
}
);
width = 500;
}
);
note = breve;
unicode = 728;
},
{
glyphname = dotaccent;
layers = (
{
hints = (
{
horizontal = 1;
place = (627, 88);
place = (627, 88);
type = Stem;
},
{
place = (225, 61);
place = (225, 61);
type = Stem;
}
);
layerId = m01;
shapes = (
{
closed = 1;
nodes = (
(225,627,l),
(286,627,l),
(286,715,l),
(225,715,l)
);
}
);
width = 512;
}
);
note = dotaccent;
unicode = 729;
},
{
glyphname = ring;
layers = (
{
hints = (
{
horizontal = 1;
place = (569, 34);
place = (569, 34);
type = Stem;
},
{
horizontal = 1;
place = (705, 34);
place = (705, 34);
type = Stem;
},
{
place = (167, 39);
place = (167, 39);
type = Stem;
},
{
place = (302, 39);
place = (302, 39);
type = Stem;
}
);
layerId = m01;
shapes = (
{
closed = 1;
nodes = (
(225,603,o),
(206,626,o),
(206,654,cs),
(206,683,o),
(225,705,o),
(254,705,cs),
(283,705,o),
(302,683,o),
(302,654,cs),
(302,626,o),
(283,603,o),
(254,603,cs)
);
},
{
closed = 1;
nodes = (
(302,569,o),
(341,607,o),
(341,654,cs),
(341,701,o),
(302,739,o),
(254,739,cs),
(206,739,o),
(167,701,o),
(167,654,cs),
(167,607,o),
(206,569,o),
(254,569,cs)
);
}
);
width = 509;
}
);
note = ring;
unicode = 730;
},
{
glyphname = cedilla;
layers = (
{
hints = (
{
horizontal = 1;
place = (-187, 38);
place = (-187, 38);
type = Stem;
},
{
horizontal = 1;
place = (-86, 34);
place = (-86, 34);
type = Stem;
},
{
place = (267, 55);
place = (267, 55);
type = Stem;
},
{
horizontal = 1;
place = (-162, 21);
target = up;
type = BottomGhost;
}
);
layerId = m01;
shapes = (
{
closed = 1;
nodes = (
(281,-187,o),
(322,-161,o),
(322,-114,cs),
(322,-68,o),
(279,-48,o),
(237,-52,c),
(237,-50,l),
(294,0,l),
(243,0,l),
(172,-70,l),
(186,-93,l),
(197,-89,o),
(209,-86,o),
(226,-86,cs),
(251,-86,o),
(267,-93,o),
(267,-114,cs),
(267,-136,o),
(245,-149,o),
(210,-149,cs),
(185,-149,o),
(162,-144,o),
(141,-135,c),
(126,-162,l),
(149,-176,o),
(180,-187,o),
(223,-187,cs)
);
}
);
width = 500;
}
);
note = cedilla;
unicode = 184;
},
